<?xml version="1.0" encoding="UTF-8" standalone="no"?>
<!DOCTYPE svg PUBLIC "-//W3C//DTD SVG 1.1//EN"
 "http://www.w3.org/Graphics/SVG/1.1/DTD/svg11.dtd">
<!-- Generated by graphviz version 2.42.4 (0)
 -->
<!-- Title: OrdoWorkflow Pages: 1 -->
<svg width="1212pt" height="533pt"
 viewBox="0.00 0.00 1211.70 533.20" xmlns="http://www.w3.org/2000/svg" xmlns:xlink="http://www.w3.org/1999/xlink">
<g id="graph0" class="graph" transform="scale(1 1) rotate(0) translate(21.6 511.6)">
<title>OrdoWorkflow</title>
<polygon fill="white" stroke="transparent" points="-21.6,21.6 -21.6,-511.6 1190.1,-511.6 1190.1,21.6 -21.6,21.6"/>
<text text-anchor="middle" x="584.25" y="-468.4" font-family="Helvetica,sans-Serif" font-size="22.00">Program Error Support Survey — subtree view</text>
<!-- ENTRY -->
<g id="node1" class="node">
<title>ENTRY</title>
<path fill="#dcebff" stroke="#475569" stroke-width="1.2" d="M714,-458C714,-458 488,-458 488,-458 482,-458 476,-452 476,-446 476,-446 476,-430 476,-430 476,-424 482,-418 488,-418 488,-418 714,-418 714,-418 720,-418 726,-424 726,-430 726,-430 726,-446 726,-446 726,-452 720,-458 714,-458"/>
<text text-anchor="middle" x="601" y="-441" font-family="Helvetica,sans-Serif" font-size="10.00">ENTRY</text>
<text text-anchor="middle" x="601" y="-430" font-family="Helvetica,sans-Serif" font-size="10.00">Program Error Support Survey — subtree view</text>
</g>
<!-- N2_STARTUP_CONTEXT -->
<g id="node2" class="node">
<title>N2_STARTUP_CONTEXT</title>
<path fill="#fff4d6" stroke="#b45309" stroke-width="1.2" d="M728,-363C728,-363 474,-363 474,-363 468,-363 462,-357 462,-351 462,-351 462,-335 462,-335 462,-329 468,-323 474,-323 474,-323 728,-323 728,-323 734,-323 740,-329 740,-335 740,-335 740,-351 740,-351 740,-357 734,-363 728,-363"/>
<text text-anchor="middle" x="601" y="-346" font-family="Helvetica,sans-Serif" font-size="10.00">N2_STARTUP_CONTEXT</text>
<text text-anchor="middle" x="601" y="-335" font-family="Helvetica,sans-Serif" font-size="10.00">Коли саме проявляється проблема із запуском?</text>
</g>
<!-- ENTRY&#45;&gt;N2_STARTUP_CONTEXT -->
<g id="edge1" class="edge">
<title>ENTRY&#45;&gt;N2_STARTUP_CONTEXT</title>
<path fill="none" stroke="#475569" d="M601,-417.73C601,-404.01 601,-385.42 601,-370.33"/>
<polygon fill="#475569" stroke="#475569" points="603.45,-370.24 601,-363.24 598.55,-370.25 603.45,-370.24"/>
</g>
<!-- N3_STARTUP_DETAIL -->
<g id="node3" class="node">
<title>N3_STARTUP_DETAIL</title>
<path fill="#f8fafc" stroke="#475569" stroke-width="1.2" d="M679,-259C679,-259 523,-259 523,-259 517,-259 511,-253 511,-247 511,-247 511,-231 511,-231 511,-225 517,-219 523,-219 523,-219 679,-219 679,-219 685,-219 691,-225 691,-231 691,-231 691,-247 691,-247 691,-253 685,-259 679,-259"/>
<text text-anchor="middle" x="601" y="-242" font-family="Helvetica,sans-Serif" font-size="10.00">N3_STARTUP_DETAIL</text>
<text text-anchor="middle" x="601" y="-231" font-family="Helvetica,sans-Serif" font-size="10.00">Що саме бачить користувач?</text>
</g>
<!-- N2_STARTUP_CONTEXT&#45;&gt;N3_STARTUP_DETAIL -->
<g id="edge2" class="edge">
<title>N2_STARTUP_CONTEXT&#45;&gt;N3_STARTUP_DETAIL</title>
<path fill="none" stroke="#475569" d="M461.62,-330.57C393.88,-322.08 330.59,-308.07 349,-286 368.82,-262.24 441.53,-250.72 503.79,-245.15"/>
<polygon fill="#475569" stroke="#475569" points="504.18,-247.58 510.94,-244.53 503.76,-242.7 504.18,-247.58"/>
<text text-anchor="middle" x="450" y="-288.8" font-family="Helvetica,sans-Serif" font-size="9.00">A — одразу після натискання &quot;Запустити&quot;</text>
</g>
<!-- N2_STARTUP_CONTEXT&#45;&gt;N3_STARTUP_DETAIL -->
<g id="edge3" class="edge">
<title>N2_STARTUP_CONTEXT&#45;&gt;N3_STARTUP_DETAIL</title>
<path fill="none" stroke="#475569" d="M598.44,-322.79C597.47,-314.56 596.48,-304.82 596,-296 595.47,-286.31 596.11,-275.7 597.09,-266.35"/>
<polygon fill="#475569" stroke="#475569" points="599.55,-266.39 597.93,-259.16 594.68,-265.82 599.55,-266.39"/>
<text text-anchor="middle" x="670" y="-288.8" font-family="Helvetica,sans-Serif" font-size="9.00">B — після оновлення програми</text>
</g>
<!-- N2_STARTUP_CONTEXT&#45;&gt;N3_STARTUP_DETAIL -->
<g id="edge4" class="edge">
<title>N2_STARTUP_CONTEXT&#45;&gt;N3_STARTUP_DETAIL</title>
<path fill="none" stroke="#475569" d="M717.41,-322.88C730.1,-316.28 741.48,-307.55 750,-296 769.85,-269.09 737.65,-255.11 698.17,-247.85"/>
<polygon fill="#475569" stroke="#475569" points="698.57,-245.43 691.25,-246.65 697.73,-250.26 698.57,-245.43"/>
<text text-anchor="middle" x="816" y="-288.8" font-family="Helvetica,sans-Serif" font-size="9.00">C — після входу в акаунт</text>
</g>
<!-- terminal_STOP_STARTUP_NO_RESPONSE -->
<g id="node4" class="node">
<title>terminal_STOP_STARTUP_NO_RESPONSE</title>
<path fill="#ffe2e2" stroke="#475569" stroke-width="1.2" d="M396.5,-155C396.5,-155 291.5,-155 291.5,-155 285.5,-155 279.5,-149 279.5,-143 279.5,-143 279.5,-127 279.5,-127 279.5,-121 285.5,-115 291.5,-115 291.5,-115 396.5,-115 396.5,-115 402.5,-115 408.5,-121 408.5,-127 408.5,-127 408.5,-143 408.5,-143 408.5,-149 402.5,-155 396.5,-155"/>
<text text-anchor="middle" x="344" y="-138" font-family="Helvetica,sans-Serif" font-size="10.00">Terminal</text>
<text text-anchor="middle" x="344" y="-127" font-family="Helvetica,sans-Serif" font-size="10.00">Startup No Response</text>
</g>
<!-- N3_STARTUP_DETAIL&#45;&gt;terminal_STOP_STARTUP_NO_RESPONSE -->
<g id="edge5" class="edge">
<title>N3_STARTUP_DETAIL&#45;&gt;terminal_STOP_STARTUP_NO_RESPONSE</title>
<path fill="none" stroke="#475569" d="M538.61,-218.93C514.73,-211.18 487.38,-201.76 463,-192 437.73,-181.88 410.18,-169.04 387.96,-158.21"/>
<polygon fill="#475569" stroke="#475569" points="388.91,-155.94 381.55,-155.06 386.75,-160.35 388.91,-155.94"/>
<text text-anchor="middle" x="527" y="-184.8" font-family="Helvetica,sans-Serif" font-size="9.00">A — нічого не відбувається</text>
</g>
<!-- terminal_STOP_STARTUP_CRASH -->
<g id="node7" class="node">
<title>terminal_STOP_STARTUP_CRASH</title>
<path fill="#ffe2e2" stroke="#475569" stroke-width="1.2" d="M635.5,-155C635.5,-155 566.5,-155 566.5,-155 560.5,-155 554.5,-149 554.5,-143 554.5,-143 554.5,-127 554.5,-127 554.5,-121 560.5,-115 566.5,-115 566.5,-115 635.5,-115 635.5,-115 641.5,-115 647.5,-121 647.5,-127 647.5,-127 647.5,-143 647.5,-143 647.5,-149 641.5,-155 635.5,-155"/>
<text text-anchor="middle" x="601" y="-138" font-family="Helvetica,sans-Serif" font-size="10.00">Terminal</text>
<text text-anchor="middle" x="601" y="-127" font-family="Helvetica,sans-Serif" font-size="10.00">Startup Crash</text>
</g>
<!-- N3_STARTUP_DETAIL&#45;&gt;terminal_STOP_STARTUP_CRASH -->
<g id="edge8" class="edge">
<title>N3_STARTUP_DETAIL&#45;&gt;terminal_STOP_STARTUP_CRASH</title>
<path fill="none" stroke="#475569" d="M601,-218.81C601,-202.86 601,-179.98 601,-162.32"/>
<polygon fill="#475569" stroke="#475569" points="603.45,-162.1 601,-155.1 598.55,-162.1 603.45,-162.1"/>
<text text-anchor="middle" x="684.5" y="-184.8" font-family="Helvetica,sans-Serif" font-size="9.00">B — програма закривається / crash</text>
</g>
<!-- terminal_STOP_STARTUP_ERROR_MESSAGE -->
<g id="node10" class="node">
<title>terminal_STOP_STARTUP_ERROR_MESSAGE</title>
<path fill="#ffe2e2" stroke="#475569" stroke-width="1.2" d="M944.5,-155C944.5,-155 833.5,-155 833.5,-155 827.5,-155 821.5,-149 821.5,-143 821.5,-143 821.5,-127 821.5,-127 821.5,-121 827.5,-115 833.5,-115 833.5,-115 944.5,-115 944.5,-115 950.5,-115 956.5,-121 956.5,-127 956.5,-127 956.5,-143 956.5,-143 956.5,-149 950.5,-155 944.5,-155"/>
<text text-anchor="middle" x="889" y="-138" font-family="Helvetica,sans-Serif" font-size="10.00">Terminal</text>
<text text-anchor="middle" x="889" y="-127" font-family="Helvetica,sans-Serif" font-size="10.00">Startup Error Message</text>
</g>
<!-- N3_STARTUP_DETAIL&#45;&gt;terminal_STOP_STARTUP_ERROR_MESSAGE -->
<g id="edge11" class="edge">
<title>N3_STARTUP_DETAIL&#45;&gt;terminal_STOP_STARTUP_ERROR_MESSAGE</title>
<path fill="none" stroke="#475569" d="M689.48,-218.94C718.13,-211.73 749.78,-202.65 778,-192 802.52,-182.75 828.76,-169.67 849.56,-158.48"/>
<polygon fill="#475569" stroke="#475569" points="850.85,-160.57 855.84,-155.08 848.52,-156.26 850.85,-160.57"/>
<text text-anchor="middle" x="876.5" y="-184.8" font-family="Helvetica,sans-Serif" font-size="9.00">C — показується текст помилки</text>
</g>
<!-- artifact_DOC_STARTUP_NO_RESPONSE_REPORT -->
<g id="node5" class="node">
<title>artifact_DOC_STARTUP_NO_RESPONSE_REPORT</title>
<polygon fill="#e8f8ec" stroke="#475569" stroke-width="1.2" points="238,-51 235,-55 214,-55 211,-51 0,-51 0,0 238,0 238,-51"/>
<text text-anchor="middle" x="119" y="-34" font-family="Helvetica,sans-Serif" font-size="10.00">Artifact</text>
<text text-anchor="middle" x="119" y="-23" font-family="Helvetica,sans-Serif" font-size="10.00">Diagnostic report — no response on startup</text>
<text text-anchor="middle" x="119" y="-12" font-family="Helvetica,sans-Serif" font-size="10.00">support_case_document</text>
</g>
<!-- terminal_STOP_STARTUP_NO_RESPONSE&#45;&gt;artifact_DOC_STARTUP_NO_RESPONSE_REPORT -->
<g id="edge6" class="edge">
<title>terminal_STOP_STARTUP_NO_RESPONSE&#45;&gt;artifact_DOC_STARTUP_NO_RESPONSE_REPORT</title>
<path fill="none" stroke="#475569" stroke-dasharray="5,2" d="M304.03,-114.91C268.82,-98.08 217.07,-73.36 177.25,-54.33"/>
<polygon fill="#475569" stroke="#475569" points="177.84,-51.9 170.46,-51.09 175.72,-56.32 177.84,-51.9"/>
<text text-anchor="middle" x="266.5" y="-80.8" font-family="Helvetica,sans-Serif" font-size="9.00">produces</text>
</g>
<!-- artifact_DOC_SYSTEM_INFO_CHECKLIST -->
<g id="node6" class="node">
<title>artifact_DOC_SYSTEM_INFO_CHECKLIST</title>
<polygon fill="#e8f8ec" stroke="#475569" stroke-width="1.2" points="410,-51 407,-55 386,-55 383,-51 278,-51 278,0 410,0 410,-51"/>
<text text-anchor="middle" x="344" y="-34" font-family="Helvetica,sans-Serif" font-size="10.00">Artifact</text>
<text text-anchor="middle" x="344" y="-23" font-family="Helvetica,sans-Serif" font-size="10.00">System info checklist</text>
<text text-anchor="middle" x="344" y="-12" font-family="Helvetica,sans-Serif" font-size="10.00">qa_checklist</text>
</g>
<!-- terminal_STOP_STARTUP_NO_RESPONSE&#45;&gt;artifact_DOC_SYSTEM_INFO_CHECKLIST -->
<g id="edge7" class="edge">
<title>terminal_STOP_STARTUP_NO_RESPONSE&#45;&gt;artifact_DOC_SYSTEM_INFO_CHECKLIST</title>
<path fill="none" stroke="#475569" stroke-dasharray="5,2" d="M344,-114.78C344,-99.11 344,-76.64 344,-58.29"/>
<polygon fill="#475569" stroke="#475569" points="346.45,-58.23 344,-51.23 341.55,-58.23 346.45,-58.23"/>
<text text-anchor="middle" x="365.5" y="-80.8" font-family="Helvetica,sans-Serif" font-size="9.00">produces</text>
</g>
<!-- artifact_DOC_CRASH_REPRO_REPORT -->
<g id="node8" class="node">
<title>artifact_DOC_CRASH_REPRO_REPORT</title>
<polygon fill="#e8f8ec" stroke="#475569" stroke-width="1.2" points="601.5,-51 598.5,-55 577.5,-55 574.5,-51 450.5,-51 450.5,0 601.5,0 601.5,-51"/>
<text text-anchor="middle" x="526" y="-34" font-family="Helvetica,sans-Serif" font-size="10.00">Artifact</text>
<text text-anchor="middle" x="526" y="-23" font-family="Helvetica,sans-Serif" font-size="10.00">Crash reproduction report</text>
<text text-anchor="middle" x="526" y="-12" font-family="Helvetica,sans-Serif" font-size="10.00">support_case_document</text>
</g>
<!-- terminal_STOP_STARTUP_CRASH&#45;&gt;artifact_DOC_CRASH_REPRO_REPORT -->
<g id="edge9" class="edge">
<title>terminal_STOP_STARTUP_CRASH&#45;&gt;artifact_DOC_CRASH_REPRO_REPORT</title>
<path fill="none" stroke="#475569" stroke-dasharray="5,2" d="M587.59,-114.78C576.46,-98.83 560.42,-75.84 547.5,-57.32"/>
<polygon fill="#475569" stroke="#475569" points="549.27,-55.57 543.25,-51.23 545.25,-58.37 549.27,-55.57"/>
<text text-anchor="middle" x="589.5" y="-80.8" font-family="Helvetica,sans-Serif" font-size="9.00">produces</text>
</g>
<!-- artifact_DOC_CRASH_LOG_REQUEST -->
<g id="node9" class="node">
<title>artifact_DOC_CRASH_LOG_REQUEST</title>
<polygon fill="#e8f8ec" stroke="#475569" stroke-width="1.2" points="754.5,-51 751.5,-55 730.5,-55 727.5,-51 641.5,-51 641.5,0 754.5,0 754.5,-51"/>
<text text-anchor="middle" x="698" y="-34" font-family="Helvetica,sans-Serif" font-size="10.00">Artifact</text>
<text text-anchor="middle" x="698" y="-23" font-family="Helvetica,sans-Serif" font-size="10.00">Crash log request</text>
<text text-anchor="middle" x="698" y="-12" font-family="Helvetica,sans-Serif" font-size="10.00">evidence_request</text>
</g>
<!-- terminal_STOP_STARTUP_CRASH&#45;&gt;artifact_DOC_CRASH_LOG_REQUEST -->
<g id="edge10" class="edge">
<title>terminal_STOP_STARTUP_CRASH&#45;&gt;artifact_DOC_CRASH_LOG_REQUEST</title>
<path fill="none" stroke="#475569" stroke-dasharray="5,2" d="M618.34,-114.78C632.86,-98.69 653.84,-75.44 670.62,-56.84"/>
<polygon fill="#475569" stroke="#475569" points="672.82,-58.07 675.69,-51.23 669.18,-54.78 672.82,-58.07"/>
<text text-anchor="middle" x="671.5" y="-80.8" font-family="Helvetica,sans-Serif" font-size="9.00">produces</text>
</g>
<!-- artifact_DOC_ERROR_TEXT_CAPTURE -->
<g id="node11" class="node">
<title>artifact_DOC_ERROR_TEXT_CAPTURE</title>
<polygon fill="#e8f8ec" stroke="#475569" stroke-width="1.2" points="983.5,-51 980.5,-55 959.5,-55 956.5,-51 794.5,-51 794.5,0 983.5,0 983.5,-51"/>
<text text-anchor="middle" x="889" y="-34" font-family="Helvetica,sans-Serif" font-size="10.00">Artifact</text>
<text text-anchor="middle" x="889" y="-23" font-family="Helvetica,sans-Serif" font-size="10.00">Error text and screenshot capture</text>
<text text-anchor="middle" x="889" y="-12" font-family="Helvetica,sans-Serif" font-size="10.00">evidence_request</text>
</g>
<!-- terminal_STOP_STARTUP_ERROR_MESSAGE&#45;&gt;artifact_DOC_ERROR_TEXT_CAPTURE -->
<g id="edge12" class="edge">
<title>terminal_STOP_STARTUP_ERROR_MESSAGE&#45;&gt;artifact_DOC_ERROR_TEXT_CAPTURE</title>
<path fill="none" stroke="#475569" stroke-dasharray="5,2" d="M889,-114.78C889,-99.11 889,-76.64 889,-58.29"/>
<polygon fill="#475569" stroke="#475569" points="891.45,-58.23 889,-51.23 886.55,-58.23 891.45,-58.23"/>
<text text-anchor="middle" x="910.5" y="-80.8" font-family="Helvetica,sans-Serif" font-size="9.00">produces</text>
</g>
<!-- artifact_DOC_STARTUP_ERROR_TRIAGE -->
<g id="node12" class="node">
<title>artifact_DOC_STARTUP_ERROR_TRIAGE</title>
<polygon fill="#e8f8ec" stroke="#475569" stroke-width="1.2" points="1168.5,-51 1165.5,-55 1144.5,-55 1141.5,-51 1023.5,-51 1023.5,0 1168.5,0 1168.5,-51"/>
<text text-anchor="middle" x="1096" y="-34" font-family="Helvetica,sans-Serif" font-size="10.00">Artifact</text>
<text text-anchor="middle" x="1096" y="-23" font-family="Helvetica,sans-Serif" font-size="10.00">Startup error triage note</text>
<text text-anchor="middle" x="1096" y="-12" font-family="Helvetica,sans-Serif" font-size="10.00">support_case_document</text>
</g>
<!-- terminal_STOP_STARTUP_ERROR_MESSAGE&#45;&gt;artifact_DOC_STARTUP_ERROR_TRIAGE -->
<g id="edge13" class="edge">
<title>terminal_STOP_STARTUP_ERROR_MESSAGE&#45;&gt;artifact_DOC_STARTUP_ERROR_TRIAGE</title>
<path fill="none" stroke="#475569" stroke-dasharray="5,2" d="M926.01,-114.78C958.44,-97.94 1005.97,-73.25 1042.53,-54.27"/>
<polygon fill="#475569" stroke="#475569" points="1043.68,-56.43 1048.76,-51.03 1041.42,-52.08 1043.68,-56.43"/>
<text text-anchor="middle" x="1014.5" y="-80.8" font-family="Helvetica,sans-Serif" font-size="9.00">produces</text>
</g>
</g>
</svg>
