<?xml version="1.0" encoding="UTF-8" standalone="no"?>
<!DOCTYPE svg PUBLIC "-//W3C//DTD SVG 1.1//EN"
 "http://www.w3.org/Graphics/SVG/1.1/DTD/svg11.dtd">
<!-- Generated by graphviz version 2.42.4 (0)
 -->
<!-- Title: DemoSupportTriageFull Pages: 1 -->
<svg width="1199pt" height="689pt"
 viewBox="0.00 0.00 1199.45 689.40" xmlns="http://www.w3.org/2000/svg" xmlns:xlink="http://www.w3.org/1999/xlink">
<g id="graph0" class="graph" transform="scale(1 1) rotate(0) translate(25.2 664.2)">
<title>DemoSupportTriageFull</title>
<polygon fill="white" stroke="transparent" points="-25.2,25.2 -25.2,-664.2 1174.25,-664.2 1174.25,25.2 -25.2,25.2"/>
<text text-anchor="middle" x="574.52" y="-617.4" font-family="Helvetica,sans-Serif" font-size="22.00">Demo Support Triage — FULL graph / all data layers</text>
<!-- ENTRY -->
<g id="node1" class="node">
<title>ENTRY</title>
<path fill="#dbeafe" stroke="#2563eb" stroke-width="2" d="M178.55,-607C178.55,-607 81.55,-607 81.55,-607 75.55,-607 69.55,-601 69.55,-595 69.55,-595 69.55,-583 69.55,-583 69.55,-577 75.55,-571 81.55,-571 81.55,-571 178.55,-571 178.55,-571 184.55,-571 190.55,-577 190.55,-583 190.55,-583 190.55,-595 190.55,-595 190.55,-601 184.55,-607 178.55,-607"/>
<text text-anchor="middle" x="130.05" y="-591.8" font-family="Helvetica,sans-Serif" font-size="9.00">ENTRY</text>
<text text-anchor="middle" x="130.05" y="-581.8" font-family="Helvetica,sans-Serif" font-size="9.00">Demo Support Triage</text>
</g>
<!-- N1 -->
<g id="node2" class="node">
<title>N1</title>
<path fill="#fef3c7" stroke="#f59e0b" stroke-width="3" d="M190.05,-494C190.05,-494 70.05,-494 70.05,-494 64.05,-494 58.05,-488 58.05,-482 58.05,-482 58.05,-470 58.05,-470 58.05,-464 64.05,-458 70.05,-458 70.05,-458 190.05,-458 190.05,-458 196.05,-458 202.05,-464 202.05,-470 202.05,-470 202.05,-482 202.05,-482 202.05,-488 196.05,-494 190.05,-494"/>
<text text-anchor="middle" x="130.05" y="-478.8" font-family="Helvetica,sans-Serif" font-size="9.00">N1_ISSUE_TYPE</text>
<text text-anchor="middle" x="130.05" y="-468.8" font-family="Helvetica,sans-Serif" font-size="9.00">Choose support issue type</text>
</g>
<!-- ENTRY&#45;&gt;N1 -->
<g id="edge1" class="edge">
<title>ENTRY&#45;&gt;N1</title>
<path fill="none" stroke="#475569" d="M130.05,-570.66C130.05,-551.92 130.05,-521.94 130.05,-500.96"/>
<polygon fill="#475569" stroke="#475569" points="132.32,-500.72 130.05,-494.22 127.77,-500.72 132.32,-500.72"/>
</g>
<!-- N2 -->
<g id="node3" class="node">
<title>N2</title>
<path fill="#fef3c7" stroke="#f59e0b" stroke-width="3" d="M165.55,-367C165.55,-367 94.55,-367 94.55,-367 88.55,-367 82.55,-361 82.55,-355 82.55,-355 82.55,-343 82.55,-343 82.55,-337 88.55,-331 94.55,-331 94.55,-331 165.55,-331 165.55,-331 171.55,-331 177.55,-337 177.55,-343 177.55,-343 177.55,-355 177.55,-355 177.55,-361 171.55,-367 165.55,-367"/>
<text text-anchor="middle" x="130.05" y="-351.8" font-family="Helvetica,sans-Serif" font-size="9.00">N2_SEVERITY</text>
<text text-anchor="middle" x="130.05" y="-341.8" font-family="Helvetica,sans-Serif" font-size="9.00">Choose severity</text>
</g>
<!-- N1&#45;&gt;N2 -->
<g id="edge2" class="edge">
<title>N1&#45;&gt;N2</title>
<path fill="none" stroke="#f59e0b" stroke-width="3" d="M58.75,-457.9C37.86,-449.22 17.34,-436.26 5.05,-417 -15.24,-385.22 33.47,-367.48 75.9,-358.36"/>
<polygon fill="#f59e0b" stroke="#f59e0b" stroke-width="3" points="76.46,-360.57 82.37,-357.03 75.54,-356.11 76.46,-360.57"/>
<text text-anchor="middle" x="42.55" y="-410.6" font-family="Helvetica,sans-Serif" font-size="8.00" fill="#b45309">A — login problem</text>
</g>
<!-- N1&#45;&gt;N2 -->
<g id="edge3" class="edge">
<title>N1&#45;&gt;N2</title>
<path fill="none" stroke="#475569" d="M128.17,-457.77C127.01,-446.24 125.64,-430.73 125.05,-417 124.43,-402.64 125.56,-386.59 126.91,-373.8"/>
<polygon fill="#475569" stroke="#475569" points="129.2,-373.77 127.67,-367.06 124.68,-373.26 129.2,-373.77"/>
<text text-anchor="middle" x="166.05" y="-410.6" font-family="Helvetica,sans-Serif" font-size="8.00">B — billing question</text>
</g>
<!-- N1&#45;&gt;N2 -->
<g id="edge4" class="edge">
<title>N1&#45;&gt;N2</title>
<path fill="none" stroke="#475569" d="M169.35,-457.91C186.01,-448.45 203.7,-434.93 213.05,-417 223.42,-397.1 205.38,-381.03 183.5,-369.62"/>
<polygon fill="#475569" stroke="#475569" points="184.39,-367.52 177.56,-366.67 182.37,-371.6 184.39,-367.52"/>
<text text-anchor="middle" x="249.05" y="-410.6" font-family="Helvetica,sans-Serif" font-size="8.00">C — product bug</text>
</g>
<!-- C1 -->
<g id="node7" class="node">
<title>C1</title>
<polygon fill="#eef2ff" stroke="#4f46e5" stroke-width="1.2" points="1143.05,-508 1019.05,-508 1019.05,-444 1149.05,-444 1149.05,-502 1143.05,-508"/>
<polyline fill="none" stroke="#4f46e5" stroke-width="1.2" points="1143.05,-508 1143.05,-502 "/>
<polyline fill="none" stroke="#4f46e5" stroke-width="1.2" points="1149.05,-502 1143.05,-502 "/>
<text text-anchor="middle" x="1084.05" y="-493.8" font-family="Helvetica,sans-Serif" font-size="9.00">Contract v2</text>
<text text-anchor="middle" x="1084.05" y="-483.8" font-family="Helvetica,sans-Serif" font-size="9.00">input: choice</text>
<text text-anchor="middle" x="1084.05" y="-473.8" font-family="Helvetica,sans-Serif" font-size="9.00">requires: issue_type</text>
<text text-anchor="middle" x="1084.05" y="-463.8" font-family="Helvetica,sans-Serif" font-size="9.00">writes: state.issue_type</text>
<text text-anchor="middle" x="1084.05" y="-453.8" font-family="Helvetica,sans-Serif" font-size="9.00">coverage: ✓ issue_type</text>
</g>
<!-- N1&#45;&gt;C1 -->
<g id="edge9" class="edge">
<title>N1&#45;&gt;C1</title>
<path fill="none" stroke="#4f46e5" stroke-dasharray="5,2" d="M192.95,-494.04C245.42,-508.1 322.41,-526.47 391.05,-534 525.48,-548.76 866.58,-535.22 999.05,-508 1003.41,-507.1 1007.84,-506.02 1012.27,-504.79"/>
<polygon fill="#4f46e5" stroke="#4f46e5" points="1013.15,-506.9 1018.76,-502.9 1011.88,-502.54 1013.15,-506.9"/>
<text text-anchor="middle" x="408.05" y="-537.6" font-family="Helvetica,sans-Serif" font-size="8.00">contract</text>
</g>
<!-- S1 -->
<g id="node9" class="node">
<title>S1</title>
<polygon fill="#e8f8ec" stroke="#16a34a" stroke-width="1.2" points="972.55,-498 845.55,-498 845.55,-454 978.55,-454 978.55,-492 972.55,-498"/>
<polyline fill="none" stroke="#16a34a" stroke-width="1.2" points="972.55,-498 972.55,-492 "/>
<polyline fill="none" stroke="#16a34a" stroke-width="1.2" points="978.55,-492 972.55,-492 "/>
<text text-anchor="middle" x="912.05" y="-483.8" font-family="Helvetica,sans-Serif" font-size="9.00">state.issue_type</text>
<text text-anchor="middle" x="912.05" y="-473.8" font-family="Helvetica,sans-Serif" font-size="9.00">required | written</text>
<text text-anchor="middle" x="912.05" y="-463.8" font-family="Helvetica,sans-Serif" font-size="9.00">writers: N1_ISSUE_TYPE</text>
</g>
<!-- N1&#45;&gt;S1 -->
<g id="edge11" class="edge">
<title>N1&#45;&gt;S1</title>
<path fill="none" stroke="#16a34a" stroke-dasharray="5,2" d="M201.07,-494.01C224.2,-499.28 250.09,-504.55 274.05,-508 454.11,-533.96 501.37,-550.39 682.55,-534 746.66,-528.2 762.94,-524.95 825.05,-508 833.21,-505.77 841.7,-503.11 850.02,-500.28"/>
<polygon fill="#16a34a" stroke="#16a34a" points="850.95,-502.37 856.35,-498.09 849.46,-498.07 850.95,-502.37"/>
<text text-anchor="middle" x="670.05" y="-537.6" font-family="Helvetica,sans-Serif" font-size="8.00">writes</text>
</g>
<!-- R1 -->
<g id="node13" class="node">
<title>R1</title>
<polygon fill="#fff7ed" stroke="#ea580c" stroke-width="1.2" points="799.05,-503 645.05,-503 645.05,-449 805.05,-449 805.05,-497 799.05,-503"/>
<polyline fill="none" stroke="#ea580c" stroke-width="1.2" points="799.05,-503 799.05,-497 "/>
<polyline fill="none" stroke="#ea580c" stroke-width="1.2" points="805.05,-497 799.05,-497 "/>
<text text-anchor="middle" x="725.05" y="-488.8" font-family="Helvetica,sans-Serif" font-size="9.00">Unmatched input</text>
<text text-anchor="middle" x="725.05" y="-478.8" font-family="Helvetica,sans-Serif" font-size="9.00">CLARIFY.REQUEST</text>
<text text-anchor="middle" x="725.05" y="-468.8" font-family="Helvetica,sans-Serif" font-size="9.00">strategy: show_A_B_C_options</text>
<text text-anchor="middle" x="725.05" y="-458.8" font-family="Helvetica,sans-Serif" font-size="9.00">max attempts: 2</text>
</g>
<!-- N1&#45;&gt;R1 -->
<g id="edge15" class="edge">
<title>N1&#45;&gt;R1</title>
<path fill="none" stroke="#ea580c" stroke-dasharray="5,2" d="M186.05,-494.01C263.44,-516.64 407.49,-550.62 530.55,-534 569.83,-528.69 612.15,-516.85 647.25,-505.24"/>
<polygon fill="#ea580c" stroke="#ea580c" points="648.27,-507.3 653.72,-503.08 646.83,-502.98 648.27,-507.3"/>
<text text-anchor="middle" x="518.05" y="-537.6" font-family="Helvetica,sans-Serif" font-size="8.00">repair</text>
</g>
<!-- TRACE1 -->
<g id="node15" class="node">
<title>TRACE1</title>
<polygon fill="#fef3c7" stroke="#d97706" stroke-width="1.2" points="598.55,-494 293.55,-494 293.55,-458 604.55,-458 604.55,-488 598.55,-494"/>
<polyline fill="none" stroke="#d97706" stroke-width="1.2" points="598.55,-494 598.55,-488 "/>
<polyline fill="none" stroke="#d97706" stroke-width="1.2" points="604.55,-488 598.55,-488 "/>
<text text-anchor="middle" x="449.05" y="-478.8" font-family="Helvetica,sans-Serif" font-size="9.00">Trace branch comment</text>
<text text-anchor="middle" x="449.05" y="-468.8" font-family="Helvetica,sans-Serif" font-size="9.00">User selected login problem and clarified password reset failed.</text>
</g>
<!-- N1&#45;&gt;TRACE1 -->
<g id="edge17" class="edge">
<title>N1&#45;&gt;TRACE1</title>
<path fill="none" stroke="#d97706" stroke-dasharray="5,2" d="M202.43,-476C227.64,-476 257.04,-476 286.57,-476"/>
<polygon fill="#d97706" stroke="#d97706" points="286.77,-478.28 293.27,-476 286.77,-473.73 286.77,-478.28"/>
<text text-anchor="middle" x="247.8" y="-481.6" font-family="Helvetica,sans-Serif" font-size="8.00">trace branch</text>
</g>
<!-- N3 -->
<g id="node4" class="node">
<title>N3</title>
<path fill="#f8fafc" stroke="#475569" stroke-width="1.2" d="M178.55,-254C178.55,-254 81.55,-254 81.55,-254 75.55,-254 69.55,-248 69.55,-242 69.55,-242 69.55,-230 69.55,-230 69.55,-224 75.55,-218 81.55,-218 81.55,-218 178.55,-218 178.55,-218 184.55,-218 190.55,-224 190.55,-230 190.55,-230 190.55,-242 190.55,-242 190.55,-248 184.55,-254 178.55,-254"/>
<text text-anchor="middle" x="130.05" y="-238.8" font-family="Helvetica,sans-Serif" font-size="9.00">N3_USER_CONTEXT</text>
<text text-anchor="middle" x="130.05" y="-228.8" font-family="Helvetica,sans-Serif" font-size="9.00">Confirm user context</text>
</g>
<!-- N2&#45;&gt;N3 -->
<g id="edge5" class="edge">
<title>N2&#45;&gt;N3</title>
<path fill="none" stroke="#f59e0b" stroke-width="3" d="M130.05,-330.66C130.05,-311.92 130.05,-281.94 130.05,-260.96"/>
<polygon fill="#f59e0b" stroke="#f59e0b" stroke-width="3" points="132.32,-260.72 130.05,-254.22 127.77,-260.72 132.32,-260.72"/>
<text text-anchor="middle" x="156.05" y="-283.6" font-family="Helvetica,sans-Serif" font-size="8.00" fill="#b45309">2 — medium</text>
</g>
<!-- C2 -->
<g id="node8" class="node">
<title>C2</title>
<polygon fill="#eef2ff" stroke="#4f46e5" stroke-width="1.2" points="531.05,-381 419.05,-381 419.05,-317 537.05,-317 537.05,-375 531.05,-381"/>
<polyline fill="none" stroke="#4f46e5" stroke-width="1.2" points="531.05,-381 531.05,-375 "/>
<polyline fill="none" stroke="#4f46e5" stroke-width="1.2" points="537.05,-375 531.05,-375 "/>
<text text-anchor="middle" x="478.05" y="-366.8" font-family="Helvetica,sans-Serif" font-size="9.00">Contract v2</text>
<text text-anchor="middle" x="478.05" y="-356.8" font-family="Helvetica,sans-Serif" font-size="9.00">input: choice</text>
<text text-anchor="middle" x="478.05" y="-346.8" font-family="Helvetica,sans-Serif" font-size="9.00">requires: severity</text>
<text text-anchor="middle" x="478.05" y="-336.8" font-family="Helvetica,sans-Serif" font-size="9.00">writes: state.severity</text>
<text text-anchor="middle" x="478.05" y="-326.8" font-family="Helvetica,sans-Serif" font-size="9.00">coverage: ✓ severity</text>
</g>
<!-- N2&#45;&gt;C2 -->
<g id="edge10" class="edge">
<title>N2&#45;&gt;C2</title>
<path fill="none" stroke="#4f46e5" stroke-dasharray="5,2" d="M163.01,-367.18C209.65,-390.57 297.54,-426.05 372.05,-407 390.42,-402.3 409.03,-393.69 425.43,-384.51"/>
<polygon fill="#4f46e5" stroke="#4f46e5" points="426.86,-386.32 431.36,-381.11 424.59,-382.37 426.86,-386.32"/>
<text text-anchor="middle" x="355.05" y="-410.6" font-family="Helvetica,sans-Serif" font-size="8.00">contract</text>
</g>
<!-- S2 -->
<g id="node10" class="node">
<title>S2</title>
<polygon fill="#e8f8ec" stroke="#16a34a" stroke-width="1.2" points="373.05,-371 257.05,-371 257.05,-327 379.05,-327 379.05,-365 373.05,-371"/>
<polyline fill="none" stroke="#16a34a" stroke-width="1.2" points="373.05,-371 373.05,-365 "/>
<polyline fill="none" stroke="#16a34a" stroke-width="1.2" points="379.05,-365 373.05,-365 "/>
<text text-anchor="middle" x="318.05" y="-356.8" font-family="Helvetica,sans-Serif" font-size="9.00">state.severity</text>
<text text-anchor="middle" x="318.05" y="-346.8" font-family="Helvetica,sans-Serif" font-size="9.00">required | written</text>
<text text-anchor="middle" x="318.05" y="-336.8" font-family="Helvetica,sans-Serif" font-size="9.00">writers: N2_SEVERITY</text>
</g>
<!-- N2&#45;&gt;S2 -->
<g id="edge12" class="edge">
<title>N2&#45;&gt;S2</title>
<path fill="none" stroke="#16a34a" stroke-dasharray="5,2" d="M177.97,-349C199.95,-349 226.39,-349 250.35,-349"/>
<polygon fill="#16a34a" stroke="#16a34a" points="250.54,-351.28 257.04,-349 250.54,-346.73 250.54,-351.28"/>
<text text-anchor="middle" x="217.3" y="-354.6" font-family="Helvetica,sans-Serif" font-size="8.00">writes</text>
</g>
<!-- N4 -->
<g id="node5" class="node">
<title>N4</title>
<path fill="#f8fafc" stroke="#475569" stroke-width="1.2" d="M183.05,-163C183.05,-163 77.05,-163 77.05,-163 71.05,-163 65.05,-157 65.05,-151 65.05,-151 65.05,-139 65.05,-139 65.05,-133 71.05,-127 77.05,-127 77.05,-127 183.05,-127 183.05,-127 189.05,-127 195.05,-133 195.05,-139 195.05,-139 195.05,-151 195.05,-151 195.05,-157 189.05,-163 183.05,-163"/>
<text text-anchor="middle" x="130.05" y="-147.8" font-family="Helvetica,sans-Serif" font-size="9.00">N4_RESOLUTION_PLAN</text>
<text text-anchor="middle" x="130.05" y="-137.8" font-family="Helvetica,sans-Serif" font-size="9.00">Confirm resolution plan</text>
</g>
<!-- N3&#45;&gt;N4 -->
<g id="edge6" class="edge">
<title>N3&#45;&gt;N4</title>
<path fill="none" stroke="#475569" d="M130.05,-217.84C130.05,-204.17 130.05,-184.89 130.05,-169.74"/>
<polygon fill="#475569" stroke="#475569" points="132.32,-169.61 130.05,-163.11 127.77,-169.61 132.32,-169.61"/>
</g>
<!-- N5 -->
<g id="node6" class="node">
<title>N5</title>
<path fill="#f8fafc" stroke="#475569" stroke-width="1.2" d="M204.55,-50C204.55,-50 55.55,-50 55.55,-50 49.55,-50 43.55,-44 43.55,-38 43.55,-38 43.55,-26 43.55,-26 43.55,-20 49.55,-14 55.55,-14 55.55,-14 204.55,-14 204.55,-14 210.55,-14 216.55,-20 216.55,-26 216.55,-26 216.55,-38 216.55,-38 216.55,-44 210.55,-50 204.55,-50"/>
<text text-anchor="middle" x="130.05" y="-34.8" font-family="Helvetica,sans-Serif" font-size="9.00">N5_APPROVAL</text>
<text text-anchor="middle" x="130.05" y="-24.8" font-family="Helvetica,sans-Serif" font-size="9.00">Approve final support summary?</text>
</g>
<!-- N4&#45;&gt;N5 -->
<g id="edge7" class="edge">
<title>N4&#45;&gt;N5</title>
<path fill="none" stroke="#475569" d="M130.05,-126.66C130.05,-107.92 130.05,-77.94 130.05,-56.96"/>
<polygon fill="#475569" stroke="#475569" points="132.32,-56.72 130.05,-50.22 127.77,-56.72 132.32,-56.72"/>
</g>
<!-- G1 -->
<g id="node11" class="node">
<title>G1</title>
<polygon fill="#fef3c7" stroke="#d97706" stroke-width="1.2" points="743.55,-64 538.55,-64 538.55,0 749.55,0 749.55,-58 743.55,-64"/>
<polyline fill="none" stroke="#d97706" stroke-width="1.2" points="743.55,-64 743.55,-58 "/>
<polyline fill="none" stroke="#d97706" stroke-width="1.2" points="749.55,-58 743.55,-58 "/>
<text text-anchor="middle" x="644.05" y="-49.8" font-family="Helvetica,sans-Serif" font-size="9.00">G_FINAL_APPROVED</text>
<text text-anchor="middle" x="644.05" y="-39.8" font-family="Helvetica,sans-Serif" font-size="9.00">method: mechanical</text>
<text text-anchor="middle" x="644.05" y="-29.8" font-family="Helvetica,sans-Serif" font-size="9.00">trust: deterministic</text>
<text text-anchor="middle" x="644.05" y="-19.8" font-family="Helvetica,sans-Serif" font-size="9.00">condition: state.approval_received is true</text>
<text text-anchor="middle" x="644.05" y="-9.8" font-family="Helvetica,sans-Serif" font-size="9.00">on_fail: BLOCK</text>
</g>
<!-- N5&#45;&gt;G1 -->
<g id="edge8" class="edge">
<title>N5&#45;&gt;G1</title>
<path fill="none" stroke="#475569" d="M174.01,-50.09C210.62,-64.13 264.51,-82.43 313.55,-90 392.33,-102.15 481.32,-84.74 547.09,-65.9"/>
<polygon fill="#475569" stroke="#475569" points="547.78,-68.07 553.38,-64.08 546.51,-63.7 547.78,-68.07"/>
<text text-anchor="middle" x="365.05" y="-93.6" font-family="Helvetica,sans-Serif" font-size="8.00">yes — generate package</text>
</g>
<!-- N5&#45;&gt;G1 -->
<g id="edge13" class="edge">
<title>N5&#45;&gt;G1</title>
<path fill="none" stroke="#d97706" stroke-dasharray="5,2" d="M174.01,-50.09C210.62,-64.13 264.51,-82.43 313.55,-90 392.33,-102.15 481.32,-84.74 547.09,-65.9"/>
<polygon fill="#d97706" stroke="#d97706" points="547.78,-68.07 553.38,-64.08 546.51,-63.7 547.78,-68.07"/>
<text text-anchor="middle" x="365.05" y="-93.6" font-family="Helvetica,sans-Serif" font-size="8.00">gate</text>
</g>
<!-- A1 -->
<g id="node12" class="node">
<title>A1</title>
<polygon fill="#f3e8ff" stroke="#7c3aed" stroke-width="1.2" points="492.05,-54 296.05,-54 296.05,-10 498.05,-10 498.05,-48 492.05,-54"/>
<polyline fill="none" stroke="#7c3aed" stroke-width="1.2" points="492.05,-54 492.05,-48 "/>
<polyline fill="none" stroke="#7c3aed" stroke-width="1.2" points="498.05,-48 492.05,-48 "/>
<text text-anchor="middle" x="397.05" y="-39.8" font-family="Helvetica,sans-Serif" font-size="9.00">A_NO_OUTPUT_WITHOUT_APPROVAL</text>
<text text-anchor="middle" x="397.05" y="-29.8" font-family="Helvetica,sans-Serif" font-size="9.00">final package created without approval</text>
<text text-anchor="middle" x="397.05" y="-19.8" font-family="Helvetica,sans-Serif" font-size="9.00">block/STOP</text>
</g>
<!-- N5&#45;&gt;A1 -->
<g id="edge14" class="edge">
<title>N5&#45;&gt;A1</title>
<path fill="none" stroke="#7c3aed" stroke-dasharray="5,2" d="M216.74,-32C239.84,-32 265.09,-32 289.18,-32"/>
<polygon fill="#7c3aed" stroke="#7c3aed" points="289.44,-34.28 295.94,-32 289.44,-29.73 289.44,-34.28"/>
<text text-anchor="middle" x="256.3" y="-37.6" font-family="Helvetica,sans-Serif" font-size="8.00">asserts</text>
</g>
<!-- OUT -->
<g id="node14" class="node">
<title>OUT</title>
<polygon fill="#e0f2fe" stroke="#0284c7" stroke-width="1.2" points="1017.05,-54 1014.05,-58 993.05,-58 990.05,-54 845.05,-54 845.05,-10 1017.05,-10 1017.05,-54"/>
<text text-anchor="middle" x="931.05" y="-39.8" font-family="Helvetica,sans-Serif" font-size="9.00">OUT_SUPPORT_TRIAGE_PACKAGE</text>
<text text-anchor="middle" x="931.05" y="-29.8" font-family="Helvetica,sans-Serif" font-size="9.00">archive</text>
<text text-anchor="middle" x="931.05" y="-19.8" font-family="Helvetica,sans-Serif" font-size="9.00">allowed_after: 5 gates</text>
</g>
<!-- G1&#45;&gt;OUT -->
<g id="edge16" class="edge">
<title>G1&#45;&gt;OUT</title>
<path fill="none" stroke="#0284c7" stroke-dasharray="1,5" d="M749.69,-32C778.7,-32 809.92,-32 838.15,-32"/>
<polygon fill="#0284c7" stroke="#0284c7" points="838.37,-34.28 844.87,-32 838.37,-29.73 838.37,-34.28"/>
<text text-anchor="middle" x="797.3" y="-37.6" font-family="Helvetica,sans-Serif" font-size="8.00">allowed_after</text>
</g>
</g>
</svg>
