<?xml version="1.0" encoding="UTF-8" standalone="no"?>
<!DOCTYPE svg PUBLIC "-//W3C//DTD SVG 1.1//EN"
 "http://www.w3.org/Graphics/SVG/1.1/DTD/svg11.dtd">
<!-- Generated by graphviz version 2.42.4 (0)
 -->
<!-- Title: AnnotationOverlayDemo Pages: 1 -->
<svg width="1207pt" height="702pt"
 viewBox="0.00 0.00 1207.20 702.20" xmlns="http://www.w3.org/2000/svg" xmlns:xlink="http://www.w3.org/1999/xlink">
<g id="graph0" class="graph" transform="scale(1 1) rotate(0) translate(21.6 680.6)">
<title>AnnotationOverlayDemo</title>
<polygon fill="white" stroke="transparent" points="-21.6,21.6 -21.6,-680.6 1185.6,-680.6 1185.6,21.6 -21.6,21.6"/>
<text text-anchor="middle" x="582" y="-637.4" font-family="Helvetica,sans-Serif" font-size="22.00">Demo Support Triage — annotation overlay</text>
<!-- ENTRY -->
<g id="node1" class="node">
<title>ENTRY</title>
<path fill="#dbeafe" stroke="#2563eb" stroke-width="1.2" d="M375.5,-627C375.5,-627 280.5,-627 280.5,-627 274.5,-627 268.5,-621 268.5,-615 268.5,-615 268.5,-603 268.5,-603 268.5,-597 274.5,-591 280.5,-591 280.5,-591 375.5,-591 375.5,-591 381.5,-591 387.5,-597 387.5,-603 387.5,-603 387.5,-615 387.5,-615 387.5,-621 381.5,-627 375.5,-627"/>
<text text-anchor="middle" x="328" y="-612" font-family="Helvetica,sans-Serif" font-size="10.00">ENTRY</text>
<text text-anchor="middle" x="328" y="-601" font-family="Helvetica,sans-Serif" font-size="10.00">Demo Support Triage</text>
</g>
<!-- N1_ISSUE_TYPE -->
<g id="node2" class="node">
<title>N1_ISSUE_TYPE</title>
<path fill="#f8fafc" stroke="#475569" stroke-width="1.2" d="M467,-536C467,-536 189,-536 189,-536 183,-536 177,-530 177,-524 177,-524 177,-512 177,-512 177,-506 183,-500 189,-500 189,-500 467,-500 467,-500 473,-500 479,-506 479,-512 479,-512 479,-524 479,-524 479,-530 473,-536 467,-536"/>
<text text-anchor="middle" x="328" y="-521" font-family="Helvetica,sans-Serif" font-size="10.00">N1_ISSUE_TYPE</text>
<text text-anchor="middle" x="328" y="-510" font-family="Helvetica,sans-Serif" font-size="10.00">Choose issue type: A — login problem B — billing question</text>
</g>
<!-- ENTRY&#45;&gt;N1_ISSUE_TYPE -->
<g id="edge10" class="edge">
<title>ENTRY&#45;&gt;N1_ISSUE_TYPE</title>
<path fill="none" stroke="#475569" d="M328,-590.84C328,-577.3 328,-558.24 328,-543.15"/>
<polygon fill="#475569" stroke="#475569" points="330.45,-543.11 328,-536.11 325.55,-543.11 330.45,-543.11"/>
</g>
<!-- contract_N1_ISSUE_TYPE -->
<g id="node3" class="node">
<title>contract_N1_ISSUE_TYPE</title>
<polygon fill="#eef2ff" stroke="#475569" stroke-width="1.2" points="177.5,-436 68.5,-436 68.5,-400 183.5,-400 183.5,-430 177.5,-436"/>
<polyline fill="none" stroke="#475569" stroke-width="1.2" points="177.5,-436 177.5,-430 "/>
<polyline fill="none" stroke="#475569" stroke-width="1.2" points="183.5,-430 177.5,-430 "/>
<text text-anchor="middle" x="126" y="-421" font-family="Helvetica,sans-Serif" font-size="10.00">Contract</text>
<text text-anchor="middle" x="126" y="-410" font-family="Helvetica,sans-Serif" font-size="10.00">requires: issue_type</text>
</g>
<!-- N1_ISSUE_TYPE&#45;&gt;contract_N1_ISSUE_TYPE -->
<g id="edge1" class="edge">
<title>N1_ISSUE_TYPE&#45;&gt;contract_N1_ISSUE_TYPE</title>
<path fill="none" stroke="#4f46e5" stroke-dasharray="5,2" d="M292.81,-499.93C258.02,-483.05 204.76,-457.21 167.82,-439.29"/>
<polygon fill="#4f46e5" stroke="#4f46e5" points="168.49,-436.89 161.12,-436.04 166.35,-441.3 168.49,-436.89"/>
<text text-anchor="middle" x="253.5" y="-465.8" font-family="Helvetica,sans-Serif" font-size="9.00">contract</text>
</g>
<!-- N2_SEVERITY -->
<g id="node4" class="node">
<title>N2_SEVERITY</title>
<path fill="#f8fafc" stroke="#475569" stroke-width="1.2" d="M419.5,-436C419.5,-436 238.5,-436 238.5,-436 232.5,-436 226.5,-430 226.5,-424 226.5,-424 226.5,-412 226.5,-412 226.5,-406 232.5,-400 238.5,-400 238.5,-400 419.5,-400 419.5,-400 425.5,-400 431.5,-406 431.5,-412 431.5,-412 431.5,-424 431.5,-424 431.5,-430 425.5,-436 419.5,-436"/>
<text text-anchor="middle" x="329" y="-421" font-family="Helvetica,sans-Serif" font-size="10.00">N2_SEVERITY</text>
<text text-anchor="middle" x="329" y="-410" font-family="Helvetica,sans-Serif" font-size="10.00">Choose severity: 1 — low 2 — medium</text>
</g>
<!-- N1_ISSUE_TYPE&#45;&gt;N2_SEVERITY -->
<g id="edge11" class="edge">
<title>N1_ISSUE_TYPE&#45;&gt;N2_SEVERITY</title>
<path fill="none" stroke="#f59e0b" stroke-width="3" d="M313.48,-499.52C306.65,-489.2 300.65,-475.7 304,-463 305.89,-455.86 309.23,-448.67 312.86,-442.23"/>
<polygon fill="#f59e0b" stroke="#f59e0b" stroke-width="3" points="315.06,-443.34 316.55,-436.07 310.85,-440.82 315.06,-443.34"/>
<text text-anchor="middle" x="307.5" y="-465.8" font-family="Helvetica,sans-Serif" font-size="9.00" fill="#f59e0b">A</text>
</g>
<!-- N1_ISSUE_TYPE&#45;&gt;N2_SEVERITY -->
<g id="edge12" class="edge">
<title>N1_ISSUE_TYPE&#45;&gt;N2_SEVERITY</title>
<path fill="none" stroke="#475569" d="M328.17,-499.93C328.33,-484.29 328.57,-460.95 328.75,-443.36"/>
<polygon fill="#475569" stroke="#475569" points="331.2,-443.23 328.82,-436.2 326.3,-443.18 331.2,-443.23"/>
<text text-anchor="middle" x="332.5" y="-465.8" font-family="Helvetica,sans-Serif" font-size="9.00">B</text>
</g>
<!-- state_issue_type -->
<g id="node10" class="node">
<title>state_issue_type</title>
<polygon fill="#e8f8ec" stroke="#475569" stroke-width="1.2" points="565.5,-436 474.5,-436 474.5,-400 571.5,-400 571.5,-430 565.5,-436"/>
<polyline fill="none" stroke="#475569" stroke-width="1.2" points="565.5,-436 565.5,-430 "/>
<polyline fill="none" stroke="#475569" stroke-width="1.2" points="571.5,-430 565.5,-430 "/>
<text text-anchor="middle" x="523" y="-415.5" font-family="Helvetica,sans-Serif" font-size="10.00">state.issue_type</text>
</g>
<!-- N1_ISSUE_TYPE&#45;&gt;state_issue_type -->
<g id="edge5" class="edge">
<title>N1_ISSUE_TYPE&#45;&gt;state_issue_type</title>
<path fill="none" stroke="#16a34a" stroke-dasharray="5,2" d="M361.97,-499.93C395.56,-483.05 446.97,-457.21 482.63,-439.29"/>
<polygon fill="#16a34a" stroke="#16a34a" points="483.94,-441.37 489.1,-436.04 481.74,-436.99 483.94,-441.37"/>
<text text-anchor="middle" x="446" y="-465.8" font-family="Helvetica,sans-Serif" font-size="9.00">writes</text>
</g>
<!-- annotation_note_2 -->
<g id="node18" class="node">
<title>annotation_note_2</title>
<polygon fill="#fef3c7" stroke="#f59e0b" stroke-width="1.2" points="799.5,-536 570.5,-536 570.5,-500 805.5,-500 805.5,-530 799.5,-536"/>
<polyline fill="none" stroke="#f59e0b" stroke-width="1.2" points="799.5,-536 799.5,-530 "/>
<polyline fill="none" stroke="#f59e0b" stroke-width="1.2" points="805.5,-530 799.5,-530 "/>
<text text-anchor="middle" x="688" y="-520.8" font-family="Helvetica,sans-Serif" font-size="9.00">changed annotation</text>
<text text-anchor="middle" x="688" y="-510.8" font-family="Helvetica,sans-Serif" font-size="9.00">Login branch now carries an explicit annotation.</text>
</g>
<!-- N1_ISSUE_TYPE&#45;&gt;annotation_note_2 -->
<g id="edge19" class="edge">
<title>N1_ISSUE_TYPE&#45;&gt;annotation_note_2</title>
<path fill="none" stroke="#f59e0b" stroke-dasharray="5,2" d="M479.11,-518C507.1,-518 536.06,-518 563.16,-518"/>
<polygon fill="#f59e0b" stroke="#f59e0b" points="563.38,-520.45 570.38,-518 563.38,-515.55 563.38,-520.45"/>
<text text-anchor="middle" x="524.75" y="-523.8" font-family="Helvetica,sans-Serif" font-size="9.00">annotation</text>
</g>
<!-- contract_N2_SEVERITY -->
<g id="node5" class="node">
<title>contract_N2_SEVERITY</title>
<polygon fill="#eef2ff" stroke="#475569" stroke-width="1.2" points="220,-336 124,-336 124,-300 226,-300 226,-330 220,-336"/>
<polyline fill="none" stroke="#475569" stroke-width="1.2" points="220,-336 220,-330 "/>
<polyline fill="none" stroke="#475569" stroke-width="1.2" points="226,-330 220,-330 "/>
<text text-anchor="middle" x="175" y="-321" font-family="Helvetica,sans-Serif" font-size="10.00">Contract</text>
<text text-anchor="middle" x="175" y="-310" font-family="Helvetica,sans-Serif" font-size="10.00">requires: severity</text>
</g>
<!-- N2_SEVERITY&#45;&gt;contract_N2_SEVERITY -->
<g id="edge2" class="edge">
<title>N2_SEVERITY&#45;&gt;contract_N2_SEVERITY</title>
<path fill="none" stroke="#4f46e5" stroke-dasharray="5,2" d="M300.04,-399.95C286.56,-391.92 270.37,-382.11 256,-373 239.39,-362.47 221.14,-350.35 206.18,-340.27"/>
<polygon fill="#4f46e5" stroke="#4f46e5" points="207.15,-337.97 199.98,-336.08 204.41,-342.03 207.15,-337.97"/>
<text text-anchor="middle" x="275.5" y="-365.8" font-family="Helvetica,sans-Serif" font-size="9.00">contract</text>
</g>
<!-- N3_USER_CONTEXT -->
<g id="node6" class="node">
<title>N3_USER_CONTEXT</title>
<path fill="#dcfce7" stroke="#16a34a" stroke-width="3" d="M379,-336C379,-336 281,-336 281,-336 275,-336 269,-330 269,-324 269,-324 269,-312 269,-312 269,-306 275,-300 281,-300 281,-300 379,-300 379,-300 385,-300 391,-306 391,-312 391,-312 391,-324 391,-324 391,-330 385,-336 379,-336"/>
<text text-anchor="middle" x="330" y="-321" font-family="Helvetica,sans-Serif" font-size="10.00">N3_USER_CONTEXT</text>
<text text-anchor="middle" x="330" y="-310" font-family="Helvetica,sans-Serif" font-size="10.00">Confirm user context.</text>
</g>
<!-- N2_SEVERITY&#45;&gt;N3_USER_CONTEXT -->
<g id="edge13" class="edge">
<title>N2_SEVERITY&#45;&gt;N3_USER_CONTEXT</title>
<path fill="none" stroke="#475569" d="M314.48,-399.52C307.65,-389.2 301.65,-375.7 305,-363 306.89,-355.86 310.23,-348.67 313.86,-342.23"/>
<polygon fill="#475569" stroke="#475569" points="316.06,-343.34 317.55,-336.07 311.85,-340.82 316.06,-343.34"/>
<text text-anchor="middle" x="308.5" y="-365.8" font-family="Helvetica,sans-Serif" font-size="9.00">1</text>
</g>
<!-- N2_SEVERITY&#45;&gt;N3_USER_CONTEXT -->
<g id="edge14" class="edge">
<title>N2_SEVERITY&#45;&gt;N3_USER_CONTEXT</title>
<path fill="none" stroke="#475569" d="M329.17,-399.93C329.33,-384.29 329.57,-360.95 329.75,-343.36"/>
<polygon fill="#475569" stroke="#475569" points="332.2,-343.23 329.82,-336.2 327.3,-343.18 332.2,-343.23"/>
<text text-anchor="middle" x="333.5" y="-365.8" font-family="Helvetica,sans-Serif" font-size="9.00">2</text>
</g>
<!-- state_severity -->
<g id="node11" class="node">
<title>state_severity</title>
<polygon fill="#f3e8ff" stroke="#7c3aed" stroke-width="3" points="876,-336 798,-336 798,-300 882,-300 882,-330 876,-336"/>
<polyline fill="none" stroke="#7c3aed" stroke-width="3" points="876,-336 876,-330 "/>
<polyline fill="none" stroke="#7c3aed" stroke-width="3" points="882,-330 876,-330 "/>
<text text-anchor="middle" x="840" y="-315.5" font-family="Helvetica,sans-Serif" font-size="10.00">state.severity</text>
</g>
<!-- N2_SEVERITY&#45;&gt;state_severity -->
<g id="edge6" class="edge">
<title>N2_SEVERITY&#45;&gt;state_severity</title>
<path fill="none" stroke="#16a34a" stroke-dasharray="5,2" d="M431.81,-400.95C522.93,-386.13 659.4,-362.45 777,-336 781.53,-334.98 786.22,-333.85 790.91,-332.68"/>
<polygon fill="#16a34a" stroke="#16a34a" points="791.59,-335.03 797.76,-330.92 790.37,-330.29 791.59,-335.03"/>
<text text-anchor="middle" x="656" y="-365.8" font-family="Helvetica,sans-Serif" font-size="9.00">writes</text>
</g>
<!-- contract_N3_USER_CONTEXT -->
<g id="node7" class="node">
<title>contract_N3_USER_CONTEXT</title>
<polygon fill="#eef2ff" stroke="#475569" stroke-width="1.2" points="157.5,-236 38.5,-236 38.5,-200 163.5,-200 163.5,-230 157.5,-236"/>
<polyline fill="none" stroke="#475569" stroke-width="1.2" points="157.5,-236 157.5,-230 "/>
<polyline fill="none" stroke="#475569" stroke-width="1.2" points="163.5,-230 157.5,-230 "/>
<text text-anchor="middle" x="101" y="-221" font-family="Helvetica,sans-Serif" font-size="10.00">Contract</text>
<text text-anchor="middle" x="101" y="-210" font-family="Helvetica,sans-Serif" font-size="10.00">requires: user_context</text>
</g>
<!-- N3_USER_CONTEXT&#45;&gt;contract_N3_USER_CONTEXT -->
<g id="edge3" class="edge">
<title>N3_USER_CONTEXT&#45;&gt;contract_N3_USER_CONTEXT</title>
<path fill="none" stroke="#4f46e5" stroke-dasharray="5,2" d="M290.11,-299.93C250.34,-282.91 189.28,-256.78 147.37,-238.84"/>
<polygon fill="#4f46e5" stroke="#4f46e5" points="148.21,-236.54 140.82,-236.04 146.29,-241.05 148.21,-236.54"/>
<text text-anchor="middle" x="242.5" y="-265.8" font-family="Helvetica,sans-Serif" font-size="9.00">contract</text>
</g>
<!-- N4_APPROVAL -->
<g id="node8" class="node">
<title>N4_APPROVAL</title>
<path fill="#f8fafc" stroke="#475569" stroke-width="1.2" d="M441,-236C441,-236 219,-236 219,-236 213,-236 207,-230 207,-224 207,-224 207,-212 207,-212 207,-206 213,-200 219,-200 219,-200 441,-200 441,-200 447,-200 453,-206 453,-212 453,-212 453,-224 453,-224 453,-230 447,-236 441,-236"/>
<text text-anchor="middle" x="330" y="-221" font-family="Helvetica,sans-Serif" font-size="10.00">N4_APPROVAL</text>
<text text-anchor="middle" x="330" y="-210" font-family="Helvetica,sans-Serif" font-size="10.00">Approve package? yes — generate no — revise</text>
</g>
<!-- N3_USER_CONTEXT&#45;&gt;N4_APPROVAL -->
<g id="edge15" class="edge">
<title>N3_USER_CONTEXT&#45;&gt;N4_APPROVAL</title>
<path fill="none" stroke="#475569" d="M330,-299.93C330,-284.29 330,-260.95 330,-243.36"/>
<polygon fill="#475569" stroke="#475569" points="332.45,-243.2 330,-236.2 327.55,-243.2 332.45,-243.2"/>
</g>
<!-- state_user_context -->
<g id="node12" class="node">
<title>state_user_context</title>
<polygon fill="#e8f8ec" stroke="#475569" stroke-width="1.2" points="597.5,-236 496.5,-236 496.5,-200 603.5,-200 603.5,-230 597.5,-236"/>
<polyline fill="none" stroke="#475569" stroke-width="1.2" points="597.5,-236 597.5,-230 "/>
<polyline fill="none" stroke="#475569" stroke-width="1.2" points="603.5,-230 597.5,-230 "/>
<text text-anchor="middle" x="550" y="-215.5" font-family="Helvetica,sans-Serif" font-size="10.00">state.user_context</text>
</g>
<!-- N3_USER_CONTEXT&#45;&gt;state_user_context -->
<g id="edge7" class="edge">
<title>N3_USER_CONTEXT&#45;&gt;state_user_context</title>
<path fill="none" stroke="#16a34a" stroke-dasharray="5,2" d="M368.32,-299.93C406.38,-282.98 464.7,-257 504.95,-239.07"/>
<polygon fill="#16a34a" stroke="#16a34a" points="506.35,-241.13 511.75,-236.04 504.36,-236.65 506.35,-241.13"/>
<text text-anchor="middle" x="461" y="-265.8" font-family="Helvetica,sans-Serif" font-size="9.00">writes</text>
</g>
<!-- annotation_note_1 -->
<g id="node17" class="node">
<title>annotation_note_1</title>
<polygon fill="#dcfce7" stroke="#16a34a" stroke-width="1.2" points="749,-336 483,-336 483,-300 755,-300 755,-330 749,-336"/>
<polyline fill="none" stroke="#16a34a" stroke-width="1.2" points="749,-336 749,-330 "/>
<polyline fill="none" stroke="#16a34a" stroke-width="1.2" points="755,-330 749,-330 "/>
<text text-anchor="middle" x="619" y="-320.8" font-family="Helvetica,sans-Serif" font-size="9.00">new annotation</text>
<text text-anchor="middle" x="619" y="-310.8" font-family="Helvetica,sans-Serif" font-size="9.00">New context node added for clearer evidence collection.</text>
</g>
<!-- N3_USER_CONTEXT&#45;&gt;annotation_note_1 -->
<g id="edge18" class="edge">
<title>N3_USER_CONTEXT&#45;&gt;annotation_note_1</title>
<path fill="none" stroke="#16a34a" stroke-dasharray="5,2" d="M391.29,-318C416.14,-318 445.97,-318 475.73,-318"/>
<polygon fill="#16a34a" stroke="#16a34a" points="475.88,-320.45 482.88,-318 475.88,-315.55 475.88,-320.45"/>
<text text-anchor="middle" x="437" y="-323.8" font-family="Helvetica,sans-Serif" font-size="9.00">annotation</text>
</g>
<!-- contract_N4_APPROVAL -->
<g id="node9" class="node">
<title>contract_N4_APPROVAL</title>
<polygon fill="#eef2ff" stroke="#475569" stroke-width="1.2" points="146,-136 0,-136 0,-100 152,-100 152,-130 146,-136"/>
<polyline fill="none" stroke="#475569" stroke-width="1.2" points="146,-136 146,-130 "/>
<polyline fill="none" stroke="#475569" stroke-width="1.2" points="152,-130 146,-130 "/>
<text text-anchor="middle" x="76" y="-121" font-family="Helvetica,sans-Serif" font-size="10.00">Contract</text>
<text text-anchor="middle" x="76" y="-110" font-family="Helvetica,sans-Serif" font-size="10.00">requires: approval_received</text>
</g>
<!-- N4_APPROVAL&#45;&gt;contract_N4_APPROVAL -->
<g id="edge4" class="edge">
<title>N4_APPROVAL&#45;&gt;contract_N4_APPROVAL</title>
<path fill="none" stroke="#4f46e5" stroke-dasharray="5,2" d="M285.76,-199.93C241.46,-182.84 173.36,-156.57 126.86,-138.62"/>
<polygon fill="#4f46e5" stroke="#4f46e5" points="127.57,-136.27 120.16,-136.04 125.81,-140.84 127.57,-136.27"/>
<text text-anchor="middle" x="230.5" y="-165.8" font-family="Helvetica,sans-Serif" font-size="9.00">contract</text>
</g>
<!-- state_approval_received -->
<g id="node13" class="node">
<title>state_approval_received</title>
<polygon fill="#e8f8ec" stroke="#475569" stroke-width="1.2" points="323,-136 195,-136 195,-100 329,-100 329,-130 323,-136"/>
<polyline fill="none" stroke="#475569" stroke-width="1.2" points="323,-136 323,-130 "/>
<polyline fill="none" stroke="#475569" stroke-width="1.2" points="329,-130 323,-130 "/>
<text text-anchor="middle" x="262" y="-115.5" font-family="Helvetica,sans-Serif" font-size="10.00">state.approval_received</text>
</g>
<!-- N4_APPROVAL&#45;&gt;state_approval_received -->
<g id="edge8" class="edge">
<title>N4_APPROVAL&#45;&gt;state_approval_received</title>
<path fill="none" stroke="#16a34a" stroke-dasharray="5,2" d="M318.16,-199.93C307.11,-184.01 290.53,-160.12 278.25,-142.42"/>
<polygon fill="#16a34a" stroke="#16a34a" points="279.94,-140.56 273.94,-136.2 275.91,-143.35 279.94,-140.56"/>
<text text-anchor="middle" x="313" y="-165.8" font-family="Helvetica,sans-Serif" font-size="9.00">writes</text>
</g>
<!-- G_FINAL_APPROVED -->
<g id="node14" class="node">
<title>G_FINAL_APPROVED</title>
<polygon fill="#fee2e2" stroke="#dc2626" stroke-width="3" points="534,-136 372,-136 372,-100 540,-100 540,-130 534,-136"/>
<polyline fill="none" stroke="#dc2626" stroke-width="3" points="534,-136 534,-130 "/>
<polyline fill="none" stroke="#dc2626" stroke-width="3" points="540,-130 534,-130 "/>
<text text-anchor="middle" x="456" y="-121" font-family="Helvetica,sans-Serif" font-size="10.00">G_FINAL_APPROVED</text>
<text text-anchor="middle" x="456" y="-110" font-family="Helvetica,sans-Serif" font-size="10.00">state.approval_received is true</text>
</g>
<!-- N4_APPROVAL&#45;&gt;G_FINAL_APPROVED -->
<g id="edge16" class="edge">
<title>N4_APPROVAL&#45;&gt;G_FINAL_APPROVED</title>
<path fill="none" stroke="#475569" d="M351.95,-199.93C373.14,-183.45 405.3,-158.43 428.26,-140.58"/>
<polygon fill="#475569" stroke="#475569" points="429.86,-142.44 433.88,-136.2 426.85,-138.57 429.86,-142.44"/>
<text text-anchor="middle" x="407" y="-165.8" font-family="Helvetica,sans-Serif" font-size="9.00">True</text>
</g>
<!-- STOP_REVISION_REQUIRED -->
<g id="node16" class="node">
<title>STOP_REVISION_REQUIRED</title>
<path fill="#475569" stroke="#475569" stroke-width="1.2" d="M1061,-136C1061,-136 935,-136 935,-136 929,-136 923,-130 923,-124 923,-124 923,-112 923,-112 923,-106 929,-100 935,-100 935,-100 1061,-100 1061,-100 1067,-100 1073,-106 1073,-112 1073,-112 1073,-124 1073,-124 1073,-130 1067,-136 1061,-136"/>
<text text-anchor="middle" x="998" y="-115.5" font-family="Helvetica,sans-Serif" font-size="10.00">STOP_REVISION_REQUIRED</text>
</g>
<!-- N4_APPROVAL&#45;&gt;STOP_REVISION_REQUIRED -->
<g id="edge17" class="edge">
<title>N4_APPROVAL&#45;&gt;STOP_REVISION_REQUIRED</title>
<path fill="none" stroke="#475569" d="M453.2,-200.81C569.17,-185.27 747.61,-160.59 902,-136 906.55,-135.28 911.21,-134.51 915.92,-133.73"/>
<polygon fill="#475569" stroke="#475569" points="916.34,-136.14 922.84,-132.57 915.53,-131.31 916.34,-136.14"/>
<text text-anchor="middle" x="724" y="-165.8" font-family="Helvetica,sans-Serif" font-size="9.00">False</text>
</g>
<!-- annotation_note_4 -->
<g id="node20" class="node">
<title>annotation_note_4</title>
<polygon fill="#f3e8ff" stroke="#7c3aed" stroke-width="1.2" points="1158,-336 974,-336 974,-300 1164,-300 1164,-330 1158,-336"/>
<polyline fill="none" stroke="#7c3aed" stroke-width="1.2" points="1158,-336 1158,-330 "/>
<polyline fill="none" stroke="#7c3aed" stroke-width="1.2" points="1164,-330 1158,-330 "/>
<text text-anchor="middle" x="1069" y="-320.8" font-family="Helvetica,sans-Serif" font-size="9.00">review annotation</text>
<text text-anchor="middle" x="1069" y="-310.8" font-family="Helvetica,sans-Serif" font-size="9.00">Tests should cover all severity choices.</text>
</g>
<!-- state_severity&#45;&gt;annotation_note_4 -->
<g id="edge21" class="edge">
<title>state_severity&#45;&gt;annotation_note_4</title>
<path fill="none" stroke="#7c3aed" stroke-dasharray="5,2" d="M882,-318C905.79,-318 936.67,-318 966.46,-318"/>
<polygon fill="#7c3aed" stroke="#7c3aed" points="966.6,-320.45 973.6,-318 966.6,-315.55 966.6,-320.45"/>
<text text-anchor="middle" x="928" y="-323.8" font-family="Helvetica,sans-Serif" font-size="9.00">annotation</text>
</g>
<!-- output_OUT_SUPPORT_TRIAGE_PACKAGE -->
<g id="node15" class="node">
<title>output_OUT_SUPPORT_TRIAGE_PACKAGE</title>
<polygon fill="#fee2e2" stroke="#dc2626" stroke-width="3" points="546,-36 543,-40 522,-40 519,-36 366,-36 366,0 546,0 546,-36"/>
<text text-anchor="middle" x="456" y="-21" font-family="Helvetica,sans-Serif" font-size="10.00">OUT_SUPPORT_TRIAGE_PACKAGE</text>
<text text-anchor="middle" x="456" y="-10" font-family="Helvetica,sans-Serif" font-size="10.00">archive</text>
</g>
<!-- G_FINAL_APPROVED&#45;&gt;output_OUT_SUPPORT_TRIAGE_PACKAGE -->
<g id="edge9" class="edge">
<title>G_FINAL_APPROVED&#45;&gt;output_OUT_SUPPORT_TRIAGE_PACKAGE</title>
<path fill="none" stroke="#0284c7" stroke-dasharray="1,5" d="M456,-99.93C456,-84.29 456,-60.95 456,-43.36"/>
<polygon fill="#0284c7" stroke="#0284c7" points="458.45,-43.2 456,-36.2 453.55,-43.2 458.45,-43.2"/>
<text text-anchor="middle" x="486" y="-65.8" font-family="Helvetica,sans-Serif" font-size="9.00">allowed_after</text>
</g>
<!-- annotation_note_3 -->
<g id="node19" class="node">
<title>annotation_note_3</title>
<polygon fill="#fee2e2" stroke="#dc2626" stroke-width="1.2" points="874,-136 632,-136 632,-100 880,-100 880,-130 874,-136"/>
<polyline fill="none" stroke="#dc2626" stroke-width="1.2" points="874,-136 874,-130 "/>
<polyline fill="none" stroke="#dc2626" stroke-width="1.2" points="880,-130 874,-130 "/>
<text text-anchor="middle" x="756" y="-120.8" font-family="Helvetica,sans-Serif" font-size="9.00">important annotation</text>
<text text-anchor="middle" x="756" y="-110.8" font-family="Helvetica,sans-Serif" font-size="9.00">Output must remain blocked until approval is true.</text>
</g>
<!-- G_FINAL_APPROVED&#45;&gt;annotation_note_3 -->
<g id="edge20" class="edge">
<title>G_FINAL_APPROVED&#45;&gt;annotation_note_3</title>
<path fill="none" stroke="#dc2626" stroke-dasharray="5,2" d="M540.37,-118C566.57,-118 596.1,-118 624.7,-118"/>
<polygon fill="#dc2626" stroke="#dc2626" points="624.96,-120.45 631.96,-118 624.96,-115.55 624.96,-120.45"/>
<text text-anchor="middle" x="586" y="-123.8" font-family="Helvetica,sans-Serif" font-size="9.00">annotation</text>
</g>
<!-- annotation_note_5 -->
<g id="node21" class="node">
<title>annotation_note_5</title>
<polygon fill="#fee2e2" stroke="#dc2626" stroke-width="1.2" points="756.5,-36 637.5,-36 637.5,0 762.5,0 762.5,-30 756.5,-36"/>
<polyline fill="none" stroke="#dc2626" stroke-width="1.2" points="756.5,-36 756.5,-30 "/>
<polyline fill="none" stroke="#dc2626" stroke-width="1.2" points="762.5,-30 756.5,-30 "/>
<text text-anchor="middle" x="700" y="-20.8" font-family="Helvetica,sans-Serif" font-size="9.00">important annotation</text>
<text text-anchor="middle" x="700" y="-10.8" font-family="Helvetica,sans-Serif" font-size="9.00">Final generated archive.</text>
</g>
<!-- output_OUT_SUPPORT_TRIAGE_PACKAGE&#45;&gt;annotation_note_5 -->
<g id="edge22" class="edge">
<title>output_OUT_SUPPORT_TRIAGE_PACKAGE&#45;&gt;annotation_note_5</title>
<path fill="none" stroke="#dc2626" stroke-dasharray="5,2" d="M546.16,-18C573.84,-18 603.86,-18 629.97,-18"/>
<polygon fill="#dc2626" stroke="#dc2626" points="630.23,-20.45 637.23,-18 630.23,-15.55 630.23,-20.45"/>
<text text-anchor="middle" x="591.75" y="-23.8" font-family="Helvetica,sans-Serif" font-size="9.00">annotation</text>
</g>
</g>
</svg>
