<?xml version="1.0" encoding="UTF-8" standalone="no"?>
<!DOCTYPE svg PUBLIC "-//W3C//DTD SVG 1.1//EN"
 "http://www.w3.org/Graphics/SVG/1.1/DTD/svg11.dtd">
<!-- Generated by graphviz version 2.42.4 (0)
 -->
<!-- Title: G Pages: 1 -->
<svg width="1153pt" height="1257pt"
 viewBox="0.00 0.00 1153.20 1257.20" xmlns="http://www.w3.org/2000/svg" xmlns:xlink="http://www.w3.org/1999/xlink">
<g id="graph0" class="graph" transform="scale(1 1) rotate(0) translate(21.6 1235.6)">
<title>G</title>
<polygon fill="white" stroke="transparent" points="-21.6,21.6 -21.6,-1235.6 1131.6,-1235.6 1131.6,21.6 -21.6,21.6"/>
<!-- profile -->
<g id="node1" class="node">
<title>profile</title>
<path fill="#e8f7ed" stroke="#4d8b61" d="M603,-635.5C603,-635.5 463,-635.5 463,-635.5 457,-635.5 451,-629.5 451,-623.5 451,-623.5 451,-611.5 451,-611.5 451,-605.5 457,-599.5 463,-599.5 463,-599.5 603,-599.5 603,-599.5 609,-599.5 615,-605.5 615,-611.5 615,-611.5 615,-623.5 615,-623.5 615,-629.5 609,-635.5 603,-635.5"/>
<text text-anchor="middle" x="533" y="-620.5" font-family="Arial" font-size="10.00">Activation profile</text>
<text text-anchor="middle" x="533" y="-609.5" font-family="Arial" font-size="10.00">APF_ANTIPATTERN_CORE_V1</text>
</g>
<!-- runtime -->
<g id="node2" class="node">
<title>runtime</title>
<path fill="#fff4df" stroke="#b48635" d="M819,-635.5C819,-635.5 686,-635.5 686,-635.5 680,-635.5 674,-629.5 674,-623.5 674,-623.5 674,-611.5 674,-611.5 674,-605.5 680,-599.5 686,-599.5 686,-599.5 819,-599.5 819,-599.5 825,-599.5 831,-605.5 831,-611.5 831,-611.5 831,-623.5 831,-623.5 831,-629.5 825,-635.5 819,-635.5"/>
<text text-anchor="middle" x="752.5" y="-620.5" font-family="Arial" font-size="10.00">Detector runtime + gate adapter</text>
<text text-anchor="middle" x="752.5" y="-609.5" font-family="Arial" font-size="10.00">allow / advisory / block</text>
</g>
<!-- profile&#45;&gt;runtime -->
<g id="edge1" class="edge">
<title>profile&#45;&gt;runtime</title>
<path fill="none" stroke="#667788" d="M615.3,-617.5C631.04,-617.5 647.59,-617.5 663.53,-617.5"/>
<polygon fill="#667788" stroke="#667788" points="663.9,-621 673.9,-617.5 663.9,-614 663.9,-621"/>
</g>
<!-- evidence -->
<g id="node3" class="node">
<title>evidence</title>
<path fill="#f4edff" stroke="#7c5daa" d="M1098,-669.5C1098,-669.5 925,-669.5 925,-669.5 919,-669.5 913,-663.5 913,-657.5 913,-657.5 913,-645.5 913,-645.5 913,-639.5 919,-633.5 925,-633.5 925,-633.5 1098,-633.5 1098,-633.5 1104,-633.5 1110,-639.5 1110,-645.5 1110,-645.5 1110,-657.5 1110,-657.5 1110,-663.5 1104,-669.5 1098,-669.5"/>
<text text-anchor="middle" x="1011.5" y="-649" font-family="Arial" font-size="10.00">State + findings + gate report + evidence</text>
</g>
<!-- runtime&#45;&gt;evidence -->
<g id="edge2" class="edge">
<title>runtime&#45;&gt;evidence</title>
<path fill="none" stroke="#667788" d="M831.31,-627.79C853.8,-630.77 878.76,-634.07 902.73,-637.24"/>
<polygon fill="#667788" stroke="#667788" points="902.56,-640.75 912.94,-638.59 903.48,-633.81 902.56,-640.75"/>
<text text-anchor="middle" x="872" y="-637.1" font-family="Arial" font-size="8.00">persist</text>
</g>
<!-- repair -->
<g id="node4" class="node">
<title>repair</title>
<path fill="#ffecec" stroke="#b45b5b" d="M1063,-601.5C1063,-601.5 960,-601.5 960,-601.5 954,-601.5 948,-595.5 948,-589.5 948,-589.5 948,-577.5 948,-577.5 948,-571.5 954,-565.5 960,-565.5 960,-565.5 1063,-565.5 1063,-565.5 1069,-565.5 1075,-571.5 1075,-577.5 1075,-577.5 1075,-589.5 1075,-589.5 1075,-595.5 1069,-601.5 1063,-601.5"/>
<text text-anchor="middle" x="1011.5" y="-586.5" font-family="Arial" font-size="10.00">Repair target</text>
<text text-anchor="middle" x="1011.5" y="-575.5" font-family="Arial" font-size="10.00">normal transition blocked</text>
</g>
<!-- runtime&#45;&gt;repair -->
<g id="edge3" class="edge">
<title>runtime&#45;&gt;repair</title>
<path fill="none" stroke="#b45b5b" d="M831.31,-607.21C865.05,-602.74 904.34,-597.54 937.52,-593.16"/>
<polygon fill="#b45b5b" stroke="#b45b5b" points="938.15,-596.6 947.61,-591.82 937.23,-589.66 938.15,-596.6"/>
<text text-anchor="middle" x="872" y="-605.1" font-family="Arial" font-size="8.00">block</text>
</g>
<!-- h0 -->
<g id="node5" class="node">
<title>h0</title>
<path fill="#eef5ff" stroke="#5577aa" d="M323,-1214C323,-1214 12,-1214 12,-1214 6,-1214 0,-1208 0,-1202 0,-1202 0,-1159 0,-1159 0,-1153 6,-1147 12,-1147 12,-1147 323,-1147 323,-1147 329,-1147 335,-1153 335,-1159 335,-1159 335,-1202 335,-1202 335,-1208 329,-1214 323,-1214"/>
<text text-anchor="middle" x="167.5" y="-1200" font-family="Arial" font-size="10.00">N_FACTORY_MODE_SELECTION</text>
<text text-anchor="middle" x="167.5" y="-1189" font-family="Arial" font-size="10.00">APH&#45;FACTORY&#45;MODE&#45;SELECTION</text>
<text text-anchor="middle" x="167.5" y="-1178" font-family="Arial" font-size="10.00">[after_state_update_before_transition]</text>
<text text-anchor="middle" x="167.5" y="-1167" font-family="Arial" font-size="10.00">SCOPE_CONFIRMATION_AS_IMPLEMENTATION_AUTHORIZATION</text>
<text text-anchor="middle" x="167.5" y="-1156" font-family="Arial" font-size="10.00">COMPLEXITY_ROUTING_AND_EXECUTION_IN_ONE_NODE</text>
</g>
<!-- h0&#45;&gt;profile -->
<g id="edge4" class="edge">
<title>h0&#45;&gt;profile</title>
<path fill="none" stroke="#667788" d="M302.99,-1146.94C314.15,-1142.13 324.98,-1136.68 335,-1130.5 382.9,-1100.96 394.7,-1087.71 422,-1038.5 496.79,-903.69 522.24,-716.26 529.49,-645.79"/>
<polygon fill="#667788" stroke="#667788" points="533.01,-645.8 530.5,-635.51 526.04,-645.12 533.01,-645.8"/>
<text text-anchor="middle" x="393" y="-1112.1" font-family="Arial" font-size="8.00">conversation</text>
</g>
<!-- h1 -->
<g id="node6" class="node">
<title>h1</title>
<path fill="#eef5ff" stroke="#5577aa" d="M323,-1114.5C323,-1114.5 12,-1114.5 12,-1114.5 6,-1114.5 0,-1108.5 0,-1102.5 0,-1102.5 0,-1070.5 0,-1070.5 0,-1064.5 6,-1058.5 12,-1058.5 12,-1058.5 323,-1058.5 323,-1058.5 329,-1058.5 335,-1064.5 335,-1070.5 335,-1070.5 335,-1102.5 335,-1102.5 335,-1108.5 329,-1114.5 323,-1114.5"/>
<text text-anchor="middle" x="167.5" y="-1100.5" font-family="Arial" font-size="10.00">N_INCREMENTAL_YAML_PATCH_VALIDATION_POLICY</text>
<text text-anchor="middle" x="167.5" y="-1089.5" font-family="Arial" font-size="10.00">APH&#45;INCREMENTAL&#45;YAML&#45;PATCH&#45;AUTHORIZATION</text>
<text text-anchor="middle" x="167.5" y="-1078.5" font-family="Arial" font-size="10.00">[before_repository_mutation]</text>
<text text-anchor="middle" x="167.5" y="-1067.5" font-family="Arial" font-size="10.00">SCOPE_CONFIRMATION_AS_IMPLEMENTATION_AUTHORIZATION</text>
</g>
<!-- h1&#45;&gt;profile -->
<g id="edge5" class="edge">
<title>h1&#45;&gt;profile</title>
<path fill="none" stroke="#667788" d="M303.14,-1058.37C314.27,-1053.84 325.05,-1048.59 335,-1042.5 384.4,-1012.28 392.86,-995.54 422,-945.5 481.47,-843.38 514.5,-704.48 526.61,-645.66"/>
<polygon fill="#667788" stroke="#667788" points="530.08,-646.13 528.63,-635.64 523.22,-644.75 530.08,-646.13"/>
<text text-anchor="middle" x="393" y="-1024.1" font-family="Arial" font-size="8.00">repository_state</text>
</g>
<!-- h2 -->
<g id="node7" class="node">
<title>h2</title>
<path fill="#eef5ff" stroke="#5577aa" d="M318.5,-1026.5C318.5,-1026.5 16.5,-1026.5 16.5,-1026.5 10.5,-1026.5 4.5,-1020.5 4.5,-1014.5 4.5,-1014.5 4.5,-982.5 4.5,-982.5 4.5,-976.5 10.5,-970.5 16.5,-970.5 16.5,-970.5 318.5,-970.5 318.5,-970.5 324.5,-970.5 330.5,-976.5 330.5,-982.5 330.5,-982.5 330.5,-1014.5 330.5,-1014.5 330.5,-1020.5 324.5,-1026.5 318.5,-1026.5"/>
<text text-anchor="middle" x="167.5" y="-1012.5" font-family="Arial" font-size="10.00">N_INCREMENTAL_YAML_PATCH_VALIDATION_POLICY</text>
<text text-anchor="middle" x="167.5" y="-1001.5" font-family="Arial" font-size="10.00">APH&#45;INCREMENTAL&#45;YAML&#45;PATCH&#45;IMPLEMENTATION&#45;EVIDENCE</text>
<text text-anchor="middle" x="167.5" y="-990.5" font-family="Arial" font-size="10.00">[before_repository_mutation]</text>
<text text-anchor="middle" x="167.5" y="-979.5" font-family="Arial" font-size="10.00">PROMPT_AS_IMPLEMENTATION</text>
</g>
<!-- h2&#45;&gt;profile -->
<g id="edge6" class="edge">
<title>h2&#45;&gt;profile</title>
<path fill="none" stroke="#667788" d="M304.74,-970.35C315.35,-965.82 325.58,-960.58 335,-954.5 450.39,-880.01 506.54,-712.27 524.93,-645.59"/>
<polygon fill="#667788" stroke="#667788" points="528.35,-646.36 527.57,-635.79 521.59,-644.54 528.35,-646.36"/>
<text text-anchor="middle" x="393" y="-931.1" font-family="Arial" font-size="8.00">process_trace</text>
</g>
<!-- h3 -->
<g id="node8" class="node">
<title>h3</title>
<path fill="#eef5ff" stroke="#5577aa" d="M307.5,-938C307.5,-938 27.5,-938 27.5,-938 21.5,-938 15.5,-932 15.5,-926 15.5,-926 15.5,-883 15.5,-883 15.5,-877 21.5,-871 27.5,-871 27.5,-871 307.5,-871 307.5,-871 313.5,-871 319.5,-877 319.5,-883 319.5,-883 319.5,-926 319.5,-926 319.5,-932 313.5,-938 307.5,-938"/>
<text text-anchor="middle" x="167.5" y="-924" font-family="Arial" font-size="10.00">N_CURRENT_NODE_REVIEW_DECISION_GATE</text>
<text text-anchor="middle" x="167.5" y="-913" font-family="Arial" font-size="10.00">APH&#45;CURRENT&#45;NODE&#45;REVIEW&#45;DECISION</text>
<text text-anchor="middle" x="167.5" y="-902" font-family="Arial" font-size="10.00">[after_state_update_before_transition]</text>
<text text-anchor="middle" x="167.5" y="-891" font-family="Arial" font-size="10.00">MANDATORY_BRANCH_SHORT_CIRCUIT</text>
<text text-anchor="middle" x="167.5" y="-880" font-family="Arial" font-size="10.00">COMPLEXITY_ROUTING_AND_EXECUTION_IN_ONE_NODE</text>
</g>
<!-- h3&#45;&gt;profile -->
<g id="edge7" class="edge">
<title>h3&#45;&gt;profile</title>
<path fill="none" stroke="#667788" d="M306.73,-870.83C316.61,-866.32 326.15,-861.24 335,-855.5 421.24,-799.56 488.77,-693.99 517.26,-644.45"/>
<polygon fill="#667788" stroke="#667788" points="520.39,-646.03 522.28,-635.6 514.3,-642.57 520.39,-646.03"/>
<text text-anchor="middle" x="393" y="-833.1" font-family="Arial" font-size="8.00">runtime_state</text>
</g>
<!-- h4 -->
<g id="node9" class="node">
<title>h4</title>
<path fill="#eef5ff" stroke="#5577aa" d="M322.5,-839C322.5,-839 12.5,-839 12.5,-839 6.5,-839 0.5,-833 0.5,-827 0.5,-827 0.5,-784 0.5,-784 0.5,-778 6.5,-772 12.5,-772 12.5,-772 322.5,-772 322.5,-772 328.5,-772 334.5,-778 334.5,-784 334.5,-784 334.5,-827 334.5,-827 334.5,-833 328.5,-839 322.5,-839"/>
<text text-anchor="middle" x="167.5" y="-825" font-family="Arial" font-size="10.00">N_TERMINAL_BRANCH_FULL_VALIDATION_GATE</text>
<text text-anchor="middle" x="167.5" y="-814" font-family="Arial" font-size="10.00">APH&#45;TERMINAL&#45;FULL&#45;VALIDATION&#45;PACKAGE</text>
<text text-anchor="middle" x="167.5" y="-803" font-family="Arial" font-size="10.00">[before_package_finalization]</text>
<text text-anchor="middle" x="167.5" y="-792" font-family="Arial" font-size="10.00">PACKAGE_VALIDATION_WITHOUT_COMPLETENESS_VALIDATION</text>
<text text-anchor="middle" x="167.5" y="-781" font-family="Arial" font-size="10.00">FINAL_LABEL_OVERCLAIM</text>
</g>
<!-- h4&#45;&gt;profile -->
<g id="edge8" class="edge">
<title>h4&#45;&gt;profile</title>
<path fill="none" stroke="#667788" d="M295.58,-771.99C309.13,-767.05 322.51,-761.56 335,-755.5 399.63,-724.17 466.34,-672.65 503.16,-642.21"/>
<polygon fill="#667788" stroke="#667788" points="505.55,-644.77 510.99,-635.68 501.07,-639.4 505.55,-644.77"/>
<text text-anchor="middle" x="393" y="-739.1" font-family="Arial" font-size="8.00">package_state</text>
</g>
<!-- h5 -->
<g id="node10" class="node">
<title>h5</title>
<path fill="#eef5ff" stroke="#5577aa" d="M283.5,-739.5C283.5,-739.5 51.5,-739.5 51.5,-739.5 45.5,-739.5 39.5,-733.5 39.5,-727.5 39.5,-727.5 39.5,-695.5 39.5,-695.5 39.5,-689.5 45.5,-683.5 51.5,-683.5 51.5,-683.5 283.5,-683.5 283.5,-683.5 289.5,-683.5 295.5,-689.5 295.5,-695.5 295.5,-695.5 295.5,-727.5 295.5,-727.5 295.5,-733.5 289.5,-739.5 283.5,-739.5"/>
<text text-anchor="middle" x="167.5" y="-725.5" font-family="Arial" font-size="10.00">N_TERMINAL_BRANCH_FULL_VALIDATION_GATE</text>
<text text-anchor="middle" x="167.5" y="-714.5" font-family="Arial" font-size="10.00">APH&#45;TERMINAL&#45;FULL&#45;VALIDATION&#45;PROCESS</text>
<text text-anchor="middle" x="167.5" y="-703.5" font-family="Arial" font-size="10.00">[before_package_finalization]</text>
<text text-anchor="middle" x="167.5" y="-692.5" font-family="Arial" font-size="10.00">MANDATORY_BRANCH_SHORT_CIRCUIT</text>
</g>
<!-- h5&#45;&gt;profile -->
<g id="edge9" class="edge">
<title>h5&#45;&gt;profile</title>
<path fill="none" stroke="#667788" d="M277.07,-683.42C333.48,-668.84 401.17,-651.33 452.62,-638.03"/>
<polygon fill="#667788" stroke="#667788" points="453.55,-641.4 462.36,-635.51 451.8,-634.62 453.55,-641.4"/>
<text text-anchor="middle" x="393" y="-661.1" font-family="Arial" font-size="8.00">process_trace</text>
</g>
<!-- h6 -->
<g id="node11" class="node">
<title>h6</title>
<path fill="#eef5ff" stroke="#5577aa" d="M322.5,-651C322.5,-651 12.5,-651 12.5,-651 6.5,-651 0.5,-645 0.5,-639 0.5,-639 0.5,-596 0.5,-596 0.5,-590 6.5,-584 12.5,-584 12.5,-584 322.5,-584 322.5,-584 328.5,-584 334.5,-590 334.5,-596 334.5,-596 334.5,-639 334.5,-639 334.5,-645 328.5,-651 322.5,-651"/>
<text text-anchor="middle" x="167.5" y="-637" font-family="Arial" font-size="10.00">N_MINIMAL_VALIDATION_AFTER_SCOPED_PATCH</text>
<text text-anchor="middle" x="167.5" y="-626" font-family="Arial" font-size="10.00">APH&#45;MINIMAL&#45;PATCH&#45;VALIDATION</text>
<text text-anchor="middle" x="167.5" y="-615" font-family="Arial" font-size="10.00">[after_state_update_before_transition]</text>
<text text-anchor="middle" x="167.5" y="-604" font-family="Arial" font-size="10.00">PROMPT_AS_IMPLEMENTATION</text>
<text text-anchor="middle" x="167.5" y="-593" font-family="Arial" font-size="10.00">PACKAGE_VALIDATION_WITHOUT_COMPLETENESS_VALIDATION</text>
</g>
<!-- h6&#45;&gt;profile -->
<g id="edge10" class="edge">
<title>h6&#45;&gt;profile</title>
<path fill="none" stroke="#667788" d="M334.56,-617.5C371.03,-617.5 408.34,-617.5 440.57,-617.5"/>
<polygon fill="#667788" stroke="#667788" points="440.85,-621 450.85,-617.5 440.85,-614 440.85,-621"/>
<text text-anchor="middle" x="393" y="-620.1" font-family="Arial" font-size="8.00">evidence_state</text>
</g>
<!-- h7 -->
<g id="node12" class="node">
<title>h7</title>
<path fill="#eef5ff" stroke="#5577aa" d="M322.5,-552C322.5,-552 12.5,-552 12.5,-552 6.5,-552 0.5,-546 0.5,-540 0.5,-540 0.5,-497 0.5,-497 0.5,-491 6.5,-485 12.5,-485 12.5,-485 322.5,-485 322.5,-485 328.5,-485 334.5,-491 334.5,-497 334.5,-497 334.5,-540 334.5,-540 334.5,-546 328.5,-552 322.5,-552"/>
<text text-anchor="middle" x="167.5" y="-538" font-family="Arial" font-size="10.00">N_SHARED_TAIL_MINIMAL_VALIDATION</text>
<text text-anchor="middle" x="167.5" y="-527" font-family="Arial" font-size="10.00">APH&#45;SHARED&#45;TAIL&#45;MINIMAL&#45;VALIDATION</text>
<text text-anchor="middle" x="167.5" y="-516" font-family="Arial" font-size="10.00">[after_state_update_before_transition]</text>
<text text-anchor="middle" x="167.5" y="-505" font-family="Arial" font-size="10.00">PROMPT_AS_IMPLEMENTATION</text>
<text text-anchor="middle" x="167.5" y="-494" font-family="Arial" font-size="10.00">PACKAGE_VALIDATION_WITHOUT_COMPLETENESS_VALIDATION</text>
</g>
<!-- h7&#45;&gt;profile -->
<g id="edge11" class="edge">
<title>h7&#45;&gt;profile</title>
<path fill="none" stroke="#667788" d="M291.56,-552.02C345.98,-566.84 408.26,-583.8 455.8,-596.75"/>
<polygon fill="#667788" stroke="#667788" points="455.14,-600.2 465.71,-599.45 456.98,-593.44 455.14,-600.2"/>
<text text-anchor="middle" x="393" y="-587.1" font-family="Arial" font-size="8.00">evidence_state</text>
</g>
<!-- h8 -->
<g id="node13" class="node">
<title>h8</title>
<path fill="#eef5ff" stroke="#5577aa" d="M322.5,-453C322.5,-453 12.5,-453 12.5,-453 6.5,-453 0.5,-447 0.5,-441 0.5,-441 0.5,-398 0.5,-398 0.5,-392 6.5,-386 12.5,-386 12.5,-386 322.5,-386 322.5,-386 328.5,-386 334.5,-392 334.5,-398 334.5,-398 334.5,-441 334.5,-441 334.5,-447 328.5,-453 322.5,-453"/>
<text text-anchor="middle" x="167.5" y="-439" font-family="Arial" font-size="10.00">N_SHARED_TAIL_VALIDATION_RESULT_REVIEW</text>
<text text-anchor="middle" x="167.5" y="-428" font-family="Arial" font-size="10.00">APH&#45;SHARED&#45;TAIL&#45;RESULT&#45;REVIEW</text>
<text text-anchor="middle" x="167.5" y="-417" font-family="Arial" font-size="10.00">[after_state_update_before_transition]</text>
<text text-anchor="middle" x="167.5" y="-406" font-family="Arial" font-size="10.00">PACKAGE_VALIDATION_WITHOUT_COMPLETENESS_VALIDATION</text>
<text text-anchor="middle" x="167.5" y="-395" font-family="Arial" font-size="10.00">FINAL_LABEL_OVERCLAIM</text>
</g>
<!-- h8&#45;&gt;profile -->
<g id="edge12" class="edge">
<title>h8&#45;&gt;profile</title>
<path fill="none" stroke="#667788" d="M297.11,-453.09C310.16,-457.98 323.01,-463.44 335,-469.5 401.73,-503.23 469.17,-559.89 505.24,-592.45"/>
<polygon fill="#667788" stroke="#667788" points="503.13,-595.25 512.88,-599.4 507.84,-590.08 503.13,-595.25"/>
<text text-anchor="middle" x="393" y="-525.1" font-family="Arial" font-size="8.00">evidence_state</text>
</g>
<!-- h9 -->
<g id="node14" class="node">
<title>h9</title>
<path fill="#eef5ff" stroke="#5577aa" d="M290,-353.5C290,-353.5 45,-353.5 45,-353.5 39,-353.5 33,-347.5 33,-341.5 33,-341.5 33,-309.5 33,-309.5 33,-303.5 39,-297.5 45,-297.5 45,-297.5 290,-297.5 290,-297.5 296,-297.5 302,-303.5 302,-309.5 302,-309.5 302,-341.5 302,-341.5 302,-347.5 296,-353.5 290,-353.5"/>
<text text-anchor="middle" x="167.5" y="-339.5" font-family="Arial" font-size="10.00">N_SHARED_TAIL_FINAL_UNFINISHED_ITEMS_GATE</text>
<text text-anchor="middle" x="167.5" y="-328.5" font-family="Arial" font-size="10.00">APH&#45;SHARED&#45;TAIL&#45;UNFINISHED&#45;BRANCHES</text>
<text text-anchor="middle" x="167.5" y="-317.5" font-family="Arial" font-size="10.00">[after_state_update_before_transition]</text>
<text text-anchor="middle" x="167.5" y="-306.5" font-family="Arial" font-size="10.00">MANDATORY_BRANCH_SHORT_CIRCUIT</text>
</g>
<!-- h9&#45;&gt;profile -->
<g id="edge13" class="edge">
<title>h9&#45;&gt;profile</title>
<path fill="none" stroke="#667788" d="M301.04,-353.56C312.92,-358.36 324.43,-363.96 335,-370.5 425.22,-426.36 491.59,-538.85 518.63,-590.48"/>
<polygon fill="#667788" stroke="#667788" points="515.52,-592.1 523.21,-599.38 521.75,-588.89 515.52,-592.1"/>
<text text-anchor="middle" x="393" y="-445.1" font-family="Arial" font-size="8.00">runtime_state</text>
</g>
<!-- h10 -->
<g id="node15" class="node">
<title>h10</title>
<path fill="#eef5ff" stroke="#5577aa" d="M322.5,-265.5C322.5,-265.5 12.5,-265.5 12.5,-265.5 6.5,-265.5 0.5,-259.5 0.5,-253.5 0.5,-253.5 0.5,-221.5 0.5,-221.5 0.5,-215.5 6.5,-209.5 12.5,-209.5 12.5,-209.5 322.5,-209.5 322.5,-209.5 328.5,-209.5 334.5,-215.5 334.5,-221.5 334.5,-221.5 334.5,-253.5 334.5,-253.5 334.5,-259.5 328.5,-265.5 322.5,-265.5"/>
<text text-anchor="middle" x="167.5" y="-251.5" font-family="Arial" font-size="10.00">N_SHARED_TAIL_FINAL_UNFINISHED_ITEMS_GATE</text>
<text text-anchor="middle" x="167.5" y="-240.5" font-family="Arial" font-size="10.00">APH&#45;SHARED&#45;TAIL&#45;UNFINISHED&#45;COMPLETENESS</text>
<text text-anchor="middle" x="167.5" y="-229.5" font-family="Arial" font-size="10.00">[after_state_update_before_transition]</text>
<text text-anchor="middle" x="167.5" y="-218.5" font-family="Arial" font-size="10.00">PACKAGE_VALIDATION_WITHOUT_COMPLETENESS_VALIDATION</text>
</g>
<!-- h10&#45;&gt;profile -->
<g id="edge14" class="edge">
<title>h10&#45;&gt;profile</title>
<path fill="none" stroke="#667788" d="M302.68,-265.51C313.97,-270.07 324.91,-275.36 335,-281.5 452.36,-352.88 507.51,-522.53 525.28,-589.56"/>
<polygon fill="#667788" stroke="#667788" points="521.93,-590.6 527.82,-599.41 528.71,-588.85 521.93,-590.6"/>
<text text-anchor="middle" x="393" y="-361.1" font-family="Arial" font-size="8.00">evidence_state</text>
</g>
<!-- h11 -->
<g id="node16" class="node">
<title>h11</title>
<path fill="#eef5ff" stroke="#5577aa" d="M322.5,-177.5C322.5,-177.5 12.5,-177.5 12.5,-177.5 6.5,-177.5 0.5,-171.5 0.5,-165.5 0.5,-165.5 0.5,-111.5 0.5,-111.5 0.5,-105.5 6.5,-99.5 12.5,-99.5 12.5,-99.5 322.5,-99.5 322.5,-99.5 328.5,-99.5 334.5,-105.5 334.5,-111.5 334.5,-111.5 334.5,-165.5 334.5,-165.5 334.5,-171.5 328.5,-177.5 322.5,-177.5"/>
<text text-anchor="middle" x="167.5" y="-163.5" font-family="Arial" font-size="10.00">N_SHARED_TAIL_HANDOFF_PACKAGE_GENERATION</text>
<text text-anchor="middle" x="167.5" y="-152.5" font-family="Arial" font-size="10.00">APH&#45;HANDOFF&#45;PACKAGE&#45;GENERATION</text>
<text text-anchor="middle" x="167.5" y="-141.5" font-family="Arial" font-size="10.00">[before_package_finalization]</text>
<text text-anchor="middle" x="167.5" y="-130.5" font-family="Arial" font-size="10.00">PROMPT_AS_IMPLEMENTATION</text>
<text text-anchor="middle" x="167.5" y="-119.5" font-family="Arial" font-size="10.00">PACKAGE_VALIDATION_WITHOUT_COMPLETENESS_VALIDATION</text>
<text text-anchor="middle" x="167.5" y="-108.5" font-family="Arial" font-size="10.00">FINAL_LABEL_OVERCLAIM</text>
</g>
<!-- h11&#45;&gt;profile -->
<g id="edge15" class="edge">
<title>h11&#45;&gt;profile</title>
<path fill="none" stroke="#667788" d="M306.09,-177.56C316.17,-182.33 325.93,-187.63 335,-193.5 383.07,-224.6 392.96,-239.16 422,-288.5 482.12,-390.62 514.8,-530.11 526.71,-589.2"/>
<polygon fill="#667788" stroke="#667788" points="523.33,-590.14 528.7,-599.27 530.2,-588.78 523.33,-590.14"/>
<text text-anchor="middle" x="393" y="-291.1" font-family="Arial" font-size="8.00">package_state</text>
</g>
<!-- h12 -->
<g id="node17" class="node">
<title>h12</title>
<path fill="#eef5ff" stroke="#5577aa" d="M322.5,-67C322.5,-67 12.5,-67 12.5,-67 6.5,-67 0.5,-61 0.5,-55 0.5,-55 0.5,-12 0.5,-12 0.5,-6 6.5,0 12.5,0 12.5,0 322.5,0 322.5,0 328.5,0 334.5,-6 334.5,-12 334.5,-12 334.5,-55 334.5,-55 334.5,-61 328.5,-67 322.5,-67"/>
<text text-anchor="middle" x="167.5" y="-53" font-family="Arial" font-size="10.00">N_SHARED_TAIL_FINAL_HANDOFF</text>
<text text-anchor="middle" x="167.5" y="-42" font-family="Arial" font-size="10.00">APH&#45;FINAL&#45;HANDOFF</text>
<text text-anchor="middle" x="167.5" y="-31" font-family="Arial" font-size="10.00">[before_final_status_claim]</text>
<text text-anchor="middle" x="167.5" y="-20" font-family="Arial" font-size="10.00">PACKAGE_VALIDATION_WITHOUT_COMPLETENESS_VALIDATION</text>
<text text-anchor="middle" x="167.5" y="-9" font-family="Arial" font-size="10.00">FINAL_LABEL_OVERCLAIM</text>
</g>
<!-- h12&#45;&gt;profile -->
<g id="edge16" class="edge">
<title>h12&#45;&gt;profile</title>
<path fill="none" stroke="#667788" d="M306.25,-67.11C316.35,-71.88 326.07,-77.32 335,-83.5 387.41,-119.77 394.05,-140.22 422,-197.5 489.31,-335.42 519.13,-519.63 528.52,-589.26"/>
<polygon fill="#667788" stroke="#667788" points="525.08,-589.96 529.86,-599.42 532.02,-589.05 525.08,-589.96"/>
<text text-anchor="middle" x="393" y="-200.1" font-family="Arial" font-size="8.00">evidence_state</text>
</g>
</g>
</svg>
