<?xml version="1.0" encoding="UTF-8" standalone="no"?>
<!DOCTYPE svg PUBLIC "-//W3C//DTD SVG 1.1//EN"
 "http://www.w3.org/Graphics/SVG/1.1/DTD/svg11.dtd">
<!-- Generated by graphviz version 2.42.4 (0)
 -->
<!-- Title: OrdoWorkflow Pages: 1 -->
<svg width="1525pt" height="1268pt"
 viewBox="0.00 0.00 1524.70 1268.20" xmlns="http://www.w3.org/2000/svg" xmlns:xlink="http://www.w3.org/1999/xlink">
<g id="graph0" class="graph" transform="scale(1 1) rotate(0) translate(21.6 1246.6)">
<title>OrdoWorkflow</title>
<polygon fill="white" stroke="transparent" points="-21.6,21.6 -21.6,-1246.6 1503.1,-1246.6 1503.1,21.6 -21.6,21.6"/>
<text text-anchor="middle" x="740.75" y="-1203.4" font-family="Helvetica,sans-Serif" font-size="22.00">INTENT_DECISION_NOTE_ASSISTANT</text>
<!-- ENTRY -->
<g id="node1" class="node">
<title>ENTRY</title>
<path fill="#dcebff" stroke="#475569" stroke-width="1.2" d="M1107,-1193C1107,-1193 925,-1193 925,-1193 919,-1193 913,-1187 913,-1181 913,-1181 913,-1165 913,-1165 913,-1159 919,-1153 925,-1153 925,-1153 1107,-1153 1107,-1153 1113,-1153 1119,-1159 1119,-1165 1119,-1165 1119,-1181 1119,-1181 1119,-1187 1113,-1193 1107,-1193"/>
<text text-anchor="middle" x="1016" y="-1176" font-family="Helvetica,sans-Serif" font-size="10.00">ENTRY</text>
<text text-anchor="middle" x="1016" y="-1165" font-family="Helvetica,sans-Serif" font-size="10.00">INTENT_DECISION_NOTE_ASSISTANT</text>
</g>
<!-- N_DISCUSSION_CONTEXT -->
<g id="node2" class="node">
<title>N_DISCUSSION_CONTEXT</title>
<path fill="#f8fafc" stroke="#475569" stroke-width="1.2" d="M1238,-1098C1238,-1098 794,-1098 794,-1098 788,-1098 782,-1092 782,-1086 782,-1086 782,-1070 782,-1070 782,-1064 788,-1058 794,-1058 794,-1058 1238,-1058 1238,-1058 1244,-1058 1250,-1064 1250,-1070 1250,-1070 1250,-1086 1250,-1086 1250,-1092 1244,-1098 1238,-1098"/>
<text text-anchor="middle" x="1016" y="-1081" font-family="Helvetica,sans-Serif" font-size="10.00">N_DISCUSSION_CONTEXT</text>
<text text-anchor="middle" x="1016" y="-1070" font-family="Helvetica,sans-Serif" font-size="10.00">Опишіть обговорення або вставте короткий фрагмент нотаток, з яких треба зроб…</text>
</g>
<!-- ENTRY&#45;&gt;N_DISCUSSION_CONTEXT -->
<g id="edge1" class="edge">
<title>ENTRY&#45;&gt;N_DISCUSSION_CONTEXT</title>
<path fill="none" stroke="#475569" d="M1016,-1152.73C1016,-1139.01 1016,-1120.42 1016,-1105.33"/>
<polygon fill="#475569" stroke="#475569" points="1018.45,-1105.24 1016,-1098.24 1013.55,-1105.25 1018.45,-1105.24"/>
</g>
<!-- N_DECISION_TYPE -->
<g id="node3" class="node">
<title>N_DECISION_TYPE</title>
<path fill="#f8fafc" stroke="#475569" stroke-width="1.2" d="M933,-994C933,-994 713,-994 713,-994 707,-994 701,-988 701,-982 701,-982 701,-966 701,-966 701,-960 707,-954 713,-954 713,-954 933,-954 933,-954 939,-954 945,-960 945,-966 945,-966 945,-982 945,-982 945,-988 939,-994 933,-994"/>
<text text-anchor="middle" x="823" y="-977" font-family="Helvetica,sans-Serif" font-size="10.00">N_DECISION_TYPE</text>
<text text-anchor="middle" x="823" y="-966" font-family="Helvetica,sans-Serif" font-size="10.00">Який тип рішення потрібно зафіксувати?</text>
</g>
<!-- N_DISCUSSION_CONTEXT&#45;&gt;N_DECISION_TYPE -->
<g id="edge2" class="edge">
<title>N_DISCUSSION_CONTEXT&#45;&gt;N_DECISION_TYPE</title>
<path fill="none" stroke="#475569" d="M979.7,-1057.81C947.21,-1040.65 899.58,-1015.47 865.36,-997.39"/>
<polygon fill="#475569" stroke="#475569" points="866.47,-995.2 859.14,-994.1 864.18,-999.54 866.47,-995.2"/>
</g>
<!-- G_DISCUSSION_CONTEXT_PRESENT -->
<g id="node16" class="node">
<title>G_DISCUSSION_CONTEXT_PRESENT</title>
<path fill="#ffe3e3" stroke="#475569" stroke-width="1.2" d="M1296.5,-927C1296.5,-927 1119.5,-927 1119.5,-927 1113.5,-927 1107.5,-921 1107.5,-915 1107.5,-915 1107.5,-899 1107.5,-899 1107.5,-893 1113.5,-887 1119.5,-887 1119.5,-887 1296.5,-887 1296.5,-887 1302.5,-887 1308.5,-893 1308.5,-899 1308.5,-899 1308.5,-915 1308.5,-915 1308.5,-921 1302.5,-927 1296.5,-927"/>
<text text-anchor="middle" x="1208" y="-910" font-family="Helvetica,sans-Serif" font-size="10.00">G_DISCUSSION_CONTEXT_PRESENT</text>
<text text-anchor="middle" x="1208" y="-899" font-family="Helvetica,sans-Serif" font-size="10.00">state.discussion_context is not null</text>
</g>
<!-- N_DISCUSSION_CONTEXT&#45;&gt;G_DISCUSSION_CONTEXT_PRESENT -->
<g id="edge16" class="edge">
<title>N_DISCUSSION_CONTEXT&#45;&gt;G_DISCUSSION_CONTEXT_PRESENT</title>
<path fill="none" stroke="#475569" stroke-dasharray="5,2" d="M1037.65,-1057.94C1072.8,-1027.01 1142.2,-965.92 1180.69,-932.04"/>
<polygon fill="#475569" stroke="#475569" points="1182.5,-933.71 1186.13,-927.25 1179.26,-930.03 1182.5,-933.71"/>
<text text-anchor="middle" x="1093.5" y="-1023.8" font-family="Helvetica,sans-Serif" font-size="9.00">satisfies</text>
</g>
<!-- N_DECISION_SUMMARY -->
<g id="node4" class="node">
<title>N_DECISION_SUMMARY</title>
<path fill="#f8fafc" stroke="#475569" stroke-width="1.2" d="M906,-860C906,-860 556,-860 556,-860 550,-860 544,-854 544,-848 544,-848 544,-832 544,-832 544,-826 550,-820 556,-820 556,-820 906,-820 906,-820 912,-820 918,-826 918,-832 918,-832 918,-848 918,-848 918,-854 912,-860 906,-860"/>
<text text-anchor="middle" x="731" y="-843" font-family="Helvetica,sans-Serif" font-size="10.00">N_DECISION_SUMMARY</text>
<text text-anchor="middle" x="731" y="-832" font-family="Helvetica,sans-Serif" font-size="10.00">Яке рішення пропонується зафіксувати одним&#45;двома реченнями?</text>
</g>
<!-- N_DECISION_TYPE&#45;&gt;N_DECISION_SUMMARY -->
<g id="edge3" class="edge">
<title>N_DECISION_TYPE&#45;&gt;N_DECISION_SUMMARY</title>
<path fill="none" stroke="#475569" d="M700.96,-968.39C579.07,-962.49 406.85,-950.16 386,-927 374.11,-913.79 374.29,-900.38 386,-887 397.13,-874.28 464.44,-863.89 536.69,-856.23"/>
<polygon fill="#475569" stroke="#475569" points="536.99,-858.66 543.7,-855.5 536.48,-853.79 536.99,-858.66"/>
<text text-anchor="middle" x="449.5" y="-904.8" font-family="Helvetica,sans-Serif" font-size="9.00">product — Product decision</text>
</g>
<!-- N_DECISION_TYPE&#45;&gt;N_DECISION_SUMMARY -->
<g id="edge4" class="edge">
<title>N_DECISION_TYPE&#45;&gt;N_DECISION_SUMMARY</title>
<path fill="none" stroke="#475569" d="M700.96,-966.77C640.67,-960.87 576.83,-949.38 558,-927 546.55,-913.4 547.16,-901.09 558,-887 565.75,-876.92 586.21,-868.59 610.47,-861.91"/>
<polygon fill="#475569" stroke="#475569" points="611.27,-864.23 617.41,-860.07 610.01,-859.5 611.27,-864.23"/>
<text text-anchor="middle" x="620" y="-904.8" font-family="Helvetica,sans-Serif" font-size="9.00">process — Process decision</text>
</g>
<!-- N_DECISION_TYPE&#45;&gt;N_DECISION_SUMMARY -->
<g id="edge5" class="edge">
<title>N_DECISION_TYPE&#45;&gt;N_DECISION_SUMMARY</title>
<path fill="none" stroke="#475569" d="M757.48,-953.86C745.38,-947.3 734.29,-938.57 727,-927 715.82,-909.25 718.1,-885.11 722.45,-866.92"/>
<polygon fill="#475569" stroke="#475569" points="724.85,-867.42 724.26,-860.02 720.11,-866.17 724.85,-867.42"/>
<text text-anchor="middle" x="796" y="-904.8" font-family="Helvetica,sans-Serif" font-size="9.00">technical — Technical decision</text>
</g>
<!-- N_DECISION_TYPE&#45;&gt;N_DECISION_SUMMARY -->
<g id="edge6" class="edge">
<title>N_DECISION_TYPE&#45;&gt;N_DECISION_SUMMARY</title>
<path fill="none" stroke="#475569" d="M850.21,-953.95C858.49,-946.58 866.56,-937.4 871,-927 877.98,-910.65 881.43,-901.4 871,-887 863.98,-877.3 854.84,-869.61 844.6,-863.52"/>
<polygon fill="#475569" stroke="#475569" points="845.76,-861.36 838.45,-860.11 843.39,-865.64 845.76,-861.36"/>
<text text-anchor="middle" x="930.5" y="-904.8" font-family="Helvetica,sans-Serif" font-size="9.00">other — Other decision</text>
</g>
<!-- G_DECISION_TYPE_PRESENT -->
<g id="node15" class="node">
<title>G_DECISION_TYPE_PRESENT</title>
<path fill="#ffe3e3" stroke="#475569" stroke-width="1.2" d="M1139.5,-793C1139.5,-793 990.5,-793 990.5,-793 984.5,-793 978.5,-787 978.5,-781 978.5,-781 978.5,-765 978.5,-765 978.5,-759 984.5,-753 990.5,-753 990.5,-753 1139.5,-753 1139.5,-753 1145.5,-753 1151.5,-759 1151.5,-765 1151.5,-765 1151.5,-781 1151.5,-781 1151.5,-787 1145.5,-793 1139.5,-793"/>
<text text-anchor="middle" x="1065" y="-776" font-family="Helvetica,sans-Serif" font-size="10.00">G_DECISION_TYPE_PRESENT</text>
<text text-anchor="middle" x="1065" y="-765" font-family="Helvetica,sans-Serif" font-size="10.00">state.decision_type is not null</text>
</g>
<!-- N_DECISION_TYPE&#45;&gt;G_DECISION_TYPE_PRESENT -->
<g id="edge17" class="edge">
<title>N_DECISION_TYPE&#45;&gt;G_DECISION_TYPE_PRESENT</title>
<path fill="none" stroke="#475569" stroke-dasharray="5,2" d="M945.08,-953.96C962.41,-947.43 979.06,-938.69 993,-927 1032.49,-893.9 1051.67,-834.27 1059.83,-800.04"/>
<polygon fill="#475569" stroke="#475569" points="1062.24,-800.52 1061.41,-793.15 1057.46,-799.42 1062.24,-800.52"/>
<text text-anchor="middle" x="1042.5" y="-904.8" font-family="Helvetica,sans-Serif" font-size="9.00">satisfies</text>
</g>
<!-- N_ALTERNATIVES_CONSIDERED -->
<g id="node5" class="node">
<title>N_ALTERNATIVES_CONSIDERED</title>
<path fill="#f8fafc" stroke="#475569" stroke-width="1.2" d="M778,-726C778,-726 498,-726 498,-726 492,-726 486,-720 486,-714 486,-714 486,-698 486,-698 486,-692 492,-686 498,-686 498,-686 778,-686 778,-686 784,-686 790,-692 790,-698 790,-698 790,-714 790,-714 790,-720 784,-726 778,-726"/>
<text text-anchor="middle" x="638" y="-709" font-family="Helvetica,sans-Serif" font-size="10.00">N_ALTERNATIVES_CONSIDERED</text>
<text text-anchor="middle" x="638" y="-698" font-family="Helvetica,sans-Serif" font-size="10.00">Які альтернативи розглядалися і чому їх не обрали?</text>
</g>
<!-- N_DECISION_SUMMARY&#45;&gt;N_ALTERNATIVES_CONSIDERED -->
<g id="edge7" class="edge">
<title>N_DECISION_SUMMARY&#45;&gt;N_ALTERNATIVES_CONSIDERED</title>
<path fill="none" stroke="#475569" d="M717.48,-819.81C701.15,-796.64 673.66,-757.61 655.67,-732.08"/>
<polygon fill="#475569" stroke="#475569" points="657.57,-730.53 651.54,-726.22 653.57,-733.35 657.57,-730.53"/>
</g>
<!-- G_DECISION_SUMMARY_PRESENT -->
<g id="node14" class="node">
<title>G_DECISION_SUMMARY_PRESENT</title>
<path fill="#ffe3e3" stroke="#475569" stroke-width="1.2" d="M1010,-659C1010,-659 836,-659 836,-659 830,-659 824,-653 824,-647 824,-647 824,-631 824,-631 824,-625 830,-619 836,-619 836,-619 1010,-619 1010,-619 1016,-619 1022,-625 1022,-631 1022,-631 1022,-647 1022,-647 1022,-653 1016,-659 1010,-659"/>
<text text-anchor="middle" x="923" y="-642" font-family="Helvetica,sans-Serif" font-size="10.00">G_DECISION_SUMMARY_PRESENT</text>
<text text-anchor="middle" x="923" y="-631" font-family="Helvetica,sans-Serif" font-size="10.00">state.decision_summary is not null</text>
</g>
<!-- N_DECISION_SUMMARY&#45;&gt;G_DECISION_SUMMARY_PRESENT -->
<g id="edge18" class="edge">
<title>N_DECISION_SUMMARY&#45;&gt;G_DECISION_SUMMARY_PRESENT</title>
<path fill="none" stroke="#475569" stroke-dasharray="5,2" d="M749.41,-819.92C784.53,-783.52 861.04,-704.22 899.68,-664.17"/>
<polygon fill="#475569" stroke="#475569" points="901.55,-665.76 904.65,-659.02 898.02,-662.36 901.55,-665.76"/>
<text text-anchor="middle" x="829.5" y="-770.8" font-family="Helvetica,sans-Serif" font-size="9.00">satisfies</text>
</g>
<!-- N_DECISION_STATUS -->
<g id="node6" class="node">
<title>N_DECISION_STATUS</title>
<path fill="#f8fafc" stroke="#475569" stroke-width="1.2" d="M777,-592C777,-592 451,-592 451,-592 445,-592 439,-586 439,-580 439,-580 439,-564 439,-564 439,-558 445,-552 451,-552 451,-552 777,-552 777,-552 783,-552 789,-558 789,-564 789,-564 789,-580 789,-580 789,-586 783,-592 777,-592"/>
<text text-anchor="middle" x="614" y="-575" font-family="Helvetica,sans-Serif" font-size="10.00">N_DECISION_STATUS</text>
<text text-anchor="middle" x="614" y="-564" font-family="Helvetica,sans-Serif" font-size="10.00">Статус рішення — вже прийнято чи ще потребує уточнення?</text>
</g>
<!-- N_ALTERNATIVES_CONSIDERED&#45;&gt;N_DECISION_STATUS -->
<g id="edge8" class="edge">
<title>N_ALTERNATIVES_CONSIDERED&#45;&gt;N_DECISION_STATUS</title>
<path fill="none" stroke="#475569" d="M634.51,-685.81C630.37,-663.03 623.44,-624.93 618.8,-599.39"/>
<polygon fill="#475569" stroke="#475569" points="621.16,-598.67 617.49,-592.22 616.34,-599.54 621.16,-598.67"/>
</g>
<!-- N_RATIONALE -->
<g id="node7" class="node">
<title>N_RATIONALE</title>
<path fill="#f8fafc" stroke="#475569" stroke-width="1.2" d="M402,-488C402,-488 12,-488 12,-488 6,-488 0,-482 0,-476 0,-476 0,-460 0,-460 0,-454 6,-448 12,-448 12,-448 402,-448 402,-448 408,-448 414,-454 414,-460 414,-460 414,-476 414,-476 414,-482 408,-488 402,-488"/>
<text text-anchor="middle" x="207" y="-471" font-family="Helvetica,sans-Serif" font-size="10.00">N_RATIONALE</text>
<text text-anchor="middle" x="207" y="-460" font-family="Helvetica,sans-Serif" font-size="10.00">Чому саме це рішення прийнято? Вкажіть основні причини або trade&#45;offs.</text>
</g>
<!-- N_DECISION_STATUS&#45;&gt;N_RATIONALE -->
<g id="edge9" class="edge">
<title>N_DECISION_STATUS&#45;&gt;N_RATIONALE</title>
<path fill="none" stroke="#475569" d="M537.92,-551.93C467.38,-534.25 362.65,-508.01 289.98,-489.8"/>
<polygon fill="#475569" stroke="#475569" points="290.43,-487.38 283.05,-488.06 289.24,-492.14 290.43,-487.38"/>
<text text-anchor="middle" x="490" y="-517.8" font-family="Helvetica,sans-Serif" font-size="9.00">decided — Decision accepted</text>
</g>
<!-- N_OPEN_QUESTIONS -->
<g id="node8" class="node">
<title>N_OPEN_QUESTIONS</title>
<path fill="#f8fafc" stroke="#475569" stroke-width="1.2" d="M766,-488C766,-488 466,-488 466,-488 460,-488 454,-482 454,-476 454,-476 454,-460 454,-460 454,-454 460,-448 466,-448 466,-448 766,-448 766,-448 772,-448 778,-454 778,-460 778,-460 778,-476 778,-476 778,-482 772,-488 766,-488"/>
<text text-anchor="middle" x="616" y="-471" font-family="Helvetica,sans-Serif" font-size="10.00">N_OPEN_QUESTIONS</text>
<text text-anchor="middle" x="616" y="-460" font-family="Helvetica,sans-Serif" font-size="10.00">Які питання треба закрити перед фінальним рішенням?</text>
</g>
<!-- N_DECISION_STATUS&#45;&gt;N_OPEN_QUESTIONS -->
<g id="edge10" class="edge">
<title>N_DECISION_STATUS&#45;&gt;N_OPEN_QUESTIONS</title>
<path fill="none" stroke="#475569" d="M610.11,-551.84C608.38,-541.03 606.94,-527.27 608,-515 608.55,-508.61 609.52,-501.79 610.61,-495.4"/>
<polygon fill="#475569" stroke="#475569" points="613.08,-495.47 611.91,-488.15 608.26,-494.61 613.08,-495.47"/>
<text text-anchor="middle" x="699.5" y="-517.8" font-family="Helvetica,sans-Serif" font-size="9.00">needs_clarification — Needs clarification</text>
</g>
<!-- G_DECISION_STATUS_PRESENT -->
<g id="node13" class="node">
<title>G_DECISION_STATUS_PRESENT</title>
<path fill="#ffe3e3" stroke="#475569" stroke-width="1.2" d="M916.5,-421C916.5,-421 759.5,-421 759.5,-421 753.5,-421 747.5,-415 747.5,-409 747.5,-409 747.5,-393 747.5,-393 747.5,-387 753.5,-381 759.5,-381 759.5,-381 916.5,-381 916.5,-381 922.5,-381 928.5,-387 928.5,-393 928.5,-393 928.5,-409 928.5,-409 928.5,-415 922.5,-421 916.5,-421"/>
<text text-anchor="middle" x="838" y="-404" font-family="Helvetica,sans-Serif" font-size="10.00">G_DECISION_STATUS_PRESENT</text>
<text text-anchor="middle" x="838" y="-393" font-family="Helvetica,sans-Serif" font-size="10.00">state.decision_status is not null</text>
</g>
<!-- N_DECISION_STATUS&#45;&gt;G_DECISION_STATUS_PRESENT -->
<g id="edge19" class="edge">
<title>N_DECISION_STATUS&#45;&gt;G_DECISION_STATUS_PRESENT</title>
<path fill="none" stroke="#475569" stroke-dasharray="5,2" d="M753.62,-551.99C769.54,-545.36 784.51,-536.58 797,-525 824.12,-499.85 833.32,-456.31 836.43,-428.35"/>
<polygon fill="#475569" stroke="#475569" points="838.88,-428.46 837.12,-421.25 834,-427.98 838.88,-428.46"/>
<text text-anchor="middle" x="824.5" y="-517.8" font-family="Helvetica,sans-Serif" font-size="9.00">satisfies</text>
</g>
<!-- N_FOLLOW_UP_ACTIONS -->
<g id="node9" class="node">
<title>N_FOLLOW_UP_ACTIONS</title>
<path fill="#f8fafc" stroke="#475569" stroke-width="1.2" d="M610,-354C610,-354 288,-354 288,-354 282,-354 276,-348 276,-342 276,-342 276,-326 276,-326 276,-320 282,-314 288,-314 288,-314 610,-314 610,-314 616,-314 622,-320 622,-326 622,-326 622,-342 622,-342 622,-348 616,-354 610,-354"/>
<text text-anchor="middle" x="449" y="-337" font-family="Helvetica,sans-Serif" font-size="10.00">N_FOLLOW_UP_ACTIONS</text>
<text text-anchor="middle" x="449" y="-326" font-family="Helvetica,sans-Serif" font-size="10.00">Які наступні дії, власники або дедлайни треба зафіксувати?</text>
</g>
<!-- N_RATIONALE&#45;&gt;N_FOLLOW_UP_ACTIONS -->
<g id="edge11" class="edge">
<title>N_RATIONALE&#45;&gt;N_FOLLOW_UP_ACTIONS</title>
<path fill="none" stroke="#475569" d="M241.93,-447.95C285.81,-424.01 361,-383 407.69,-357.53"/>
<polygon fill="#475569" stroke="#475569" points="409.11,-359.55 414.08,-354.05 406.76,-355.25 409.11,-359.55"/>
</g>
<!-- N_OPEN_QUESTIONS&#45;&gt;N_FOLLOW_UP_ACTIONS -->
<g id="edge12" class="edge">
<title>N_OPEN_QUESTIONS&#45;&gt;N_FOLLOW_UP_ACTIONS</title>
<path fill="none" stroke="#475569" d="M591.72,-447.81C561.82,-424.18 511.07,-384.06 478.84,-358.58"/>
<polygon fill="#475569" stroke="#475569" points="480.05,-356.42 473.04,-354 477.01,-360.27 480.05,-356.42"/>
</g>
<!-- N_APPROVAL_TO_RENDER_NOTE -->
<g id="node10" class="node">
<title>N_APPROVAL_TO_RENDER_NOTE</title>
<path fill="#f8fafc" stroke="#475569" stroke-width="1.2" d="M663,-259C663,-259 235,-259 235,-259 229,-259 223,-253 223,-247 223,-247 223,-231 223,-231 223,-225 229,-219 235,-219 235,-219 663,-219 663,-219 669,-219 675,-225 675,-231 675,-231 675,-247 675,-247 675,-253 669,-259 663,-259"/>
<text text-anchor="middle" x="449" y="-242" font-family="Helvetica,sans-Serif" font-size="10.00">N_APPROVAL_TO_RENDER_NOTE</text>
<text text-anchor="middle" x="449" y="-231" font-family="Helvetica,sans-Serif" font-size="10.00">Підтверджуєте, що AI може сформувати decision note за зібраними відповідями?</text>
</g>
<!-- N_FOLLOW_UP_ACTIONS&#45;&gt;N_APPROVAL_TO_RENDER_NOTE -->
<g id="edge13" class="edge">
<title>N_FOLLOW_UP_ACTIONS&#45;&gt;N_APPROVAL_TO_RENDER_NOTE</title>
<path fill="none" stroke="#475569" d="M449,-313.73C449,-300.01 449,-281.42 449,-266.33"/>
<polygon fill="#475569" stroke="#475569" points="451.45,-266.24 449,-259.24 446.55,-266.25 451.45,-266.24"/>
</g>
<!-- G_APPROVAL_TO_RENDER_NOTE -->
<g id="node11" class="node">
<title>G_APPROVAL_TO_RENDER_NOTE</title>
<path fill="#ffe3e3" stroke="#475569" stroke-width="1.2" d="M213,-155C213,-155 27,-155 27,-155 21,-155 15,-149 15,-143 15,-143 15,-127 15,-127 15,-121 21,-115 27,-115 27,-115 213,-115 213,-115 219,-115 225,-121 225,-127 225,-127 225,-143 225,-143 225,-149 219,-155 213,-155"/>
<text text-anchor="middle" x="120" y="-138" font-family="Helvetica,sans-Serif" font-size="10.00">G_APPROVAL_TO_RENDER_NOTE</text>
<text text-anchor="middle" x="120" y="-127" font-family="Helvetica,sans-Serif" font-size="10.00">state.approval_to_render_note is true</text>
</g>
<!-- N_APPROVAL_TO_RENDER_NOTE&#45;&gt;G_APPROVAL_TO_RENDER_NOTE -->
<g id="edge20" class="edge">
<title>N_APPROVAL_TO_RENDER_NOTE&#45;&gt;G_APPROVAL_TO_RENDER_NOTE</title>
<path fill="none" stroke="#475569" stroke-dasharray="5,2" d="M387.5,-218.93C330.94,-201.4 247.18,-175.43 188.5,-157.24"/>
<polygon fill="#475569" stroke="#475569" points="188.89,-154.79 181.47,-155.06 187.43,-159.47 188.89,-154.79"/>
<text text-anchor="middle" x="313.5" y="-184.8" font-family="Helvetica,sans-Serif" font-size="9.00">satisfies</text>
</g>
<!-- G_DECISION_NOTE_READY_TO_RENDER -->
<g id="node12" class="node">
<title>G_DECISION_NOTE_READY_TO_RENDER</title>
<path fill="#ffe3e3" stroke="#475569" stroke-width="1.2" d="M620.5,-155C620.5,-155 277.5,-155 277.5,-155 271.5,-155 265.5,-149 265.5,-143 265.5,-143 265.5,-127 265.5,-127 265.5,-121 271.5,-115 277.5,-115 277.5,-115 620.5,-115 620.5,-115 626.5,-115 632.5,-121 632.5,-127 632.5,-127 632.5,-143 632.5,-143 632.5,-149 626.5,-155 620.5,-155"/>
<text text-anchor="middle" x="449" y="-138" font-family="Helvetica,sans-Serif" font-size="10.00">G_DECISION_NOTE_READY_TO_RENDER</text>
<text text-anchor="middle" x="449" y="-127" font-family="Helvetica,sans-Serif" font-size="10.00">all required decision&#45;note fields are present and user approved render</text>
</g>
<!-- N_APPROVAL_TO_RENDER_NOTE&#45;&gt;G_DECISION_NOTE_READY_TO_RENDER -->
<g id="edge14" class="edge">
<title>N_APPROVAL_TO_RENDER_NOTE&#45;&gt;G_DECISION_NOTE_READY_TO_RENDER</title>
<path fill="none" stroke="#475569" d="M449,-218.81C449,-202.86 449,-179.98 449,-162.32"/>
<polygon fill="#475569" stroke="#475569" points="451.45,-162.1 449,-155.1 446.55,-162.1 451.45,-162.1"/>
<text text-anchor="middle" x="512" y="-184.8" font-family="Helvetica,sans-Serif" font-size="9.00">yes — Render decision note</text>
</g>
<!-- terminal_STOP_NEEDS_APPROVAL -->
<g id="node18" class="node">
<title>terminal_STOP_NEEDS_APPROVAL</title>
<path fill="#ffe2e2" stroke="#475569" stroke-width="1.2" d="M765,-155C765,-155 685,-155 685,-155 679,-155 673,-149 673,-143 673,-143 673,-127 673,-127 673,-121 679,-115 685,-115 685,-115 765,-115 765,-115 771,-115 777,-121 777,-127 777,-127 777,-143 777,-143 777,-149 771,-155 765,-155"/>
<text text-anchor="middle" x="725" y="-138" font-family="Helvetica,sans-Serif" font-size="10.00">Terminal</text>
<text text-anchor="middle" x="725" y="-127" font-family="Helvetica,sans-Serif" font-size="10.00">Needs Approval</text>
</g>
<!-- N_APPROVAL_TO_RENDER_NOTE&#45;&gt;terminal_STOP_NEEDS_APPROVAL -->
<g id="edge15" class="edge">
<title>N_APPROVAL_TO_RENDER_NOTE&#45;&gt;terminal_STOP_NEEDS_APPROVAL</title>
<path fill="none" stroke="#475569" d="M507.48,-218.99C531.59,-210.96 559.74,-201.31 585,-192 614.21,-181.23 646.49,-168.38 672.69,-157.71"/>
<polygon fill="#475569" stroke="#475569" points="673.66,-159.96 679.21,-155.04 671.81,-155.42 673.66,-159.96"/>
<text text-anchor="middle" x="662.5" y="-184.8" font-family="Helvetica,sans-Serif" font-size="9.00">no — Do not render yet</text>
</g>
<!-- output_OUT_DECISION_NOTE_MD -->
<g id="node19" class="node">
<title>output_OUT_DECISION_NOTE_MD</title>
<polygon fill="#e0f2fe" stroke="#475569" stroke-width="1.2" points="1036,-51 1033,-55 1012,-55 1009,-51 882,-51 882,0 1036,0 1036,-51"/>
<text text-anchor="middle" x="959" y="-34" font-family="Helvetica,sans-Serif" font-size="10.00">Package / Output</text>
<text text-anchor="middle" x="959" y="-23" font-family="Helvetica,sans-Serif" font-size="10.00">OUT_DECISION_NOTE_MD</text>
<text text-anchor="middle" x="959" y="-12" font-family="Helvetica,sans-Serif" font-size="10.00">markdown_artifact</text>
</g>
<!-- G_APPROVAL_TO_RENDER_NOTE&#45;&gt;output_OUT_DECISION_NOTE_MD -->
<g id="edge26" class="edge">
<title>G_APPROVAL_TO_RENDER_NOTE&#45;&gt;output_OUT_DECISION_NOTE_MD</title>
<path fill="none" stroke="#475569" stroke-dasharray="5,2" d="M225,-117.83C231.77,-116.85 238.48,-115.9 245,-115 472.32,-83.64 741.08,-51.71 874.74,-36.18"/>
<polygon fill="#475569" stroke="#475569" points="875.11,-38.61 881.78,-35.37 874.54,-33.74 875.11,-38.61"/>
<text text-anchor="middle" x="550" y="-80.8" font-family="Helvetica,sans-Serif" font-size="9.00">allowed_after</text>
</g>
<!-- G_DECISION_NOTE_READY_TO_RENDER&#45;&gt;output_OUT_DECISION_NOTE_MD -->
<g id="edge27" class="edge">
<title>G_DECISION_NOTE_READY_TO_RENDER&#45;&gt;output_OUT_DECISION_NOTE_MD</title>
<path fill="none" stroke="#475569" stroke-dasharray="5,2" d="M539.3,-114.97C634.1,-94.98 781.99,-63.81 874.54,-44.3"/>
<polygon fill="#475569" stroke="#475569" points="875.32,-46.64 881.66,-42.8 874.31,-41.85 875.32,-46.64"/>
<text text-anchor="middle" x="734" y="-80.8" font-family="Helvetica,sans-Serif" font-size="9.00">allowed_after</text>
</g>
<!-- G_DECISION_STATUS_PRESENT&#45;&gt;output_OUT_DECISION_NOTE_MD -->
<g id="edge24" class="edge">
<title>G_DECISION_STATUS_PRESENT&#45;&gt;output_OUT_DECISION_NOTE_MD</title>
<path fill="none" stroke="#475569" stroke-dasharray="5,2" d="M838,-380.81C838,-358.32 838,-319.96 838,-287 838,-287 838,-287 838,-134 838,-98.98 866.68,-72.58 896.11,-54.7"/>
<polygon fill="#475569" stroke="#475569" points="897.6,-56.67 902.4,-51.02 895.12,-52.45 897.6,-56.67"/>
<text text-anchor="middle" x="868" y="-236.8" font-family="Helvetica,sans-Serif" font-size="9.00">allowed_after</text>
</g>
<!-- G_DECISION_SUMMARY_PRESENT&#45;&gt;output_OUT_DECISION_NOTE_MD -->
<g id="edge23" class="edge">
<title>G_DECISION_SUMMARY_PRESENT&#45;&gt;output_OUT_DECISION_NOTE_MD</title>
<path fill="none" stroke="#475569" stroke-dasharray="5,2" d="M932.29,-618.63C942.36,-595.82 957,-556.54 957,-521 957,-521 957,-521 957,-333 957,-232.67 958.08,-113.88 958.66,-58.24"/>
<polygon fill="#475569" stroke="#475569" points="961.11,-58.16 958.73,-51.13 956.21,-58.11 961.11,-58.16"/>
<text text-anchor="middle" x="987" y="-331.8" font-family="Helvetica,sans-Serif" font-size="9.00">allowed_after</text>
</g>
<!-- G_DECISION_TYPE_PRESENT&#45;&gt;output_OUT_DECISION_NOTE_MD -->
<g id="edge22" class="edge">
<title>G_DECISION_TYPE_PRESENT&#45;&gt;output_OUT_DECISION_NOTE_MD</title>
<path fill="none" stroke="#475569" stroke-dasharray="5,2" d="M1068.08,-752.82C1071.93,-727.18 1078,-680.3 1078,-640 1078,-640 1078,-640 1078,-134 1078,-99.17 1049.58,-72.71 1020.52,-54.76"/>
<polygon fill="#475569" stroke="#475569" points="1021.59,-52.54 1014.32,-51.05 1019.07,-56.75 1021.59,-52.54"/>
<text text-anchor="middle" x="1108" y="-398.8" font-family="Helvetica,sans-Serif" font-size="9.00">allowed_after</text>
</g>
<!-- G_DISCUSSION_CONTEXT_PRESENT&#45;&gt;output_OUT_DECISION_NOTE_MD -->
<g id="edge21" class="edge">
<title>G_DISCUSSION_CONTEXT_PRESENT&#45;&gt;output_OUT_DECISION_NOTE_MD</title>
<path fill="none" stroke="#475569" stroke-dasharray="5,2" d="M1200.98,-886.61C1192.4,-861.13 1179,-814.83 1179,-774 1179,-774 1179,-774 1179,-134 1179,-71.07 1105.43,-44.97 1043.37,-34.15"/>
<polygon fill="#475569" stroke="#475569" points="1043.56,-31.7 1036.25,-32.97 1042.76,-36.53 1043.56,-31.7"/>
<text text-anchor="middle" x="1209" y="-465.8" font-family="Helvetica,sans-Serif" font-size="9.00">allowed_after</text>
</g>
<!-- G_TEMPLATE_CONTRACT_PRESENT -->
<g id="node17" class="node">
<title>G_TEMPLATE_CONTRACT_PRESENT</title>
<path fill="#ffe3e3" stroke="#475569" stroke-width="1.2" d="M1469.5,-155C1469.5,-155 1252.5,-155 1252.5,-155 1246.5,-155 1240.5,-149 1240.5,-143 1240.5,-143 1240.5,-127 1240.5,-127 1240.5,-121 1246.5,-115 1252.5,-115 1252.5,-115 1469.5,-115 1469.5,-115 1475.5,-115 1481.5,-121 1481.5,-127 1481.5,-127 1481.5,-143 1481.5,-143 1481.5,-149 1475.5,-155 1469.5,-155"/>
<text text-anchor="middle" x="1361" y="-138" font-family="Helvetica,sans-Serif" font-size="10.00">G_TEMPLATE_CONTRACT_PRESENT</text>
<text text-anchor="middle" x="1361" y="-127" font-family="Helvetica,sans-Serif" font-size="10.00">state.output_template_catalog is not empty</text>
</g>
<!-- G_TEMPLATE_CONTRACT_PRESENT&#45;&gt;output_OUT_DECISION_NOTE_MD -->
<g id="edge25" class="edge">
<title>G_TEMPLATE_CONTRACT_PRESENT&#45;&gt;output_OUT_DECISION_NOTE_MD</title>
<path fill="none" stroke="#475569" stroke-dasharray="5,2" d="M1315.35,-114.99C1285.7,-103.17 1246.02,-88.31 1210,-78 1155.17,-62.31 1092.32,-49.42 1043.22,-40.46"/>
<polygon fill="#475569" stroke="#475569" points="1043.4,-38 1036.08,-39.17 1042.53,-42.82 1043.4,-38"/>
<text text-anchor="middle" x="1269" y="-80.8" font-family="Helvetica,sans-Serif" font-size="9.00">allowed_after</text>
</g>
</g>
</svg>
