<?xml version="1.0" encoding="UTF-8" standalone="no"?>
<!DOCTYPE svg PUBLIC "-//W3C//DTD SVG 1.1//EN"
 "http://www.w3.org/Graphics/SVG/1.1/DTD/svg11.dtd">
<!-- Generated by graphviz version 2.42.4 (0)
 -->
<!-- Title: OrdoWorkflow Pages: 1 -->
<svg width="642pt" height="997pt"
 viewBox="0.00 0.00 642.20 997.20" xmlns="http://www.w3.org/2000/svg" xmlns:xlink="http://www.w3.org/1999/xlink">
<g id="graph0" class="graph" transform="scale(1 1) rotate(0) translate(21.6 975.6)">
<title>OrdoWorkflow</title>
<polygon fill="white" stroke="transparent" points="-21.6,21.6 -21.6,-975.6 620.6,-975.6 620.6,21.6 -21.6,21.6"/>
<text text-anchor="middle" x="299.5" y="-932.4" font-family="Helvetica,sans-Serif" font-size="22.00">INTENT_DECISION_NOTE_ASSISTANT — context view</text>
<!-- ENTRY -->
<g id="node1" class="node">
<title>ENTRY</title>
<path fill="#dcebff" stroke="#475569" stroke-width="1.2" d="M413.79,-922C413.79,-922 152.79,-922 152.79,-922 146.79,-922 140.79,-916 140.79,-910 140.79,-910 140.79,-894 140.79,-894 140.79,-888 146.79,-882 152.79,-882 152.79,-882 413.79,-882 413.79,-882 419.79,-882 425.79,-888 425.79,-894 425.79,-894 425.79,-910 425.79,-910 425.79,-916 419.79,-922 413.79,-922"/>
<text text-anchor="middle" x="283.29" y="-905" font-family="Helvetica,sans-Serif" font-size="10.00">ENTRY</text>
<text text-anchor="middle" x="283.29" y="-894" font-family="Helvetica,sans-Serif" font-size="10.00">INTENT_DECISION_NOTE_ASSISTANT — context view</text>
</g>
<!-- N_DISCUSSION_CONTEXT -->
<g id="node2" class="node">
<title>N_DISCUSSION_CONTEXT</title>
<path fill="#f8fafc" stroke="#475569" stroke-width="1.2" d="M505.29,-827C505.29,-827 61.29,-827 61.29,-827 55.29,-827 49.29,-821 49.29,-815 49.29,-815 49.29,-799 49.29,-799 49.29,-793 55.29,-787 61.29,-787 61.29,-787 505.29,-787 505.29,-787 511.29,-787 517.29,-793 517.29,-799 517.29,-799 517.29,-815 517.29,-815 517.29,-821 511.29,-827 505.29,-827"/>
<text text-anchor="middle" x="283.29" y="-810" font-family="Helvetica,sans-Serif" font-size="10.00">N_DISCUSSION_CONTEXT</text>
<text text-anchor="middle" x="283.29" y="-799" font-family="Helvetica,sans-Serif" font-size="10.00">Опишіть обговорення або вставте короткий фрагмент нотаток, з яких треба зроб…</text>
</g>
<!-- ENTRY&#45;&gt;N_DISCUSSION_CONTEXT -->
<g id="edge1" class="edge">
<title>ENTRY&#45;&gt;N_DISCUSSION_CONTEXT</title>
<path fill="none" stroke="#475569" d="M283.29,-881.73C283.29,-868.01 283.29,-849.42 283.29,-834.33"/>
<polygon fill="#475569" stroke="#475569" points="285.74,-834.24 283.29,-827.24 280.84,-834.25 285.74,-834.24"/>
</g>
<!-- N_DECISION_TYPE -->
<g id="node3" class="node">
<title>N_DECISION_TYPE</title>
<path fill="#f8fafc" stroke="#475569" stroke-width="1.2" d="M393.29,-732C393.29,-732 173.29,-732 173.29,-732 167.29,-732 161.29,-726 161.29,-720 161.29,-720 161.29,-704 161.29,-704 161.29,-698 167.29,-692 173.29,-692 173.29,-692 393.29,-692 393.29,-692 399.29,-692 405.29,-698 405.29,-704 405.29,-704 405.29,-720 405.29,-720 405.29,-726 399.29,-732 393.29,-732"/>
<text text-anchor="middle" x="283.29" y="-715" font-family="Helvetica,sans-Serif" font-size="10.00">N_DECISION_TYPE</text>
<text text-anchor="middle" x="283.29" y="-704" font-family="Helvetica,sans-Serif" font-size="10.00">Який тип рішення потрібно зафіксувати?</text>
</g>
<!-- N_DISCUSSION_CONTEXT&#45;&gt;N_DECISION_TYPE -->
<g id="edge2" class="edge">
<title>N_DISCUSSION_CONTEXT&#45;&gt;N_DECISION_TYPE</title>
<path fill="none" stroke="#475569" d="M283.29,-786.73C283.29,-773.01 283.29,-754.42 283.29,-739.33"/>
<polygon fill="#475569" stroke="#475569" points="285.74,-739.24 283.29,-732.24 280.84,-739.25 285.74,-739.24"/>
</g>
<!-- N_DECISION_SUMMARY -->
<g id="node4" class="node">
<title>N_DECISION_SUMMARY</title>
<path fill="#f8fafc" stroke="#475569" stroke-width="1.2" d="M458.29,-628C458.29,-628 108.29,-628 108.29,-628 102.29,-628 96.29,-622 96.29,-616 96.29,-616 96.29,-600 96.29,-600 96.29,-594 102.29,-588 108.29,-588 108.29,-588 458.29,-588 458.29,-588 464.29,-588 470.29,-594 470.29,-600 470.29,-600 470.29,-616 470.29,-616 470.29,-622 464.29,-628 458.29,-628"/>
<text text-anchor="middle" x="283.29" y="-611" font-family="Helvetica,sans-Serif" font-size="10.00">N_DECISION_SUMMARY</text>
<text text-anchor="middle" x="283.29" y="-600" font-family="Helvetica,sans-Serif" font-size="10.00">Яке рішення пропонується зафіксувати одним&#45;двома реченнями?</text>
</g>
<!-- N_DECISION_TYPE&#45;&gt;N_DECISION_SUMMARY -->
<g id="edge3" class="edge">
<title>N_DECISION_TYPE&#45;&gt;N_DECISION_SUMMARY</title>
<path fill="none" stroke="#475569" d="M160.94,-704.32C102.19,-698.28 40.59,-686.81 22.29,-665 7.91,-647.87 41.47,-635.7 88.85,-627.18"/>
<polygon fill="#475569" stroke="#475569" points="89.46,-629.56 95.94,-625.95 88.63,-624.73 89.46,-629.56"/>
<text text-anchor="middle" x="85.79" y="-657.8" font-family="Helvetica,sans-Serif" font-size="9.00">product — Product decision</text>
</g>
<!-- N_DECISION_TYPE&#45;&gt;N_DECISION_SUMMARY -->
<g id="edge4" class="edge">
<title>N_DECISION_TYPE&#45;&gt;N_DECISION_SUMMARY</title>
<path fill="none" stroke="#475569" d="M223.81,-691.76C212.08,-685.16 201.25,-676.44 194.29,-665 185.77,-651.01 194.15,-639.96 208.62,-631.49"/>
<polygon fill="#475569" stroke="#475569" points="210.13,-633.46 215.17,-628.02 207.84,-629.13 210.13,-633.46"/>
<text text-anchor="middle" x="256.29" y="-657.8" font-family="Helvetica,sans-Serif" font-size="9.00">process — Process decision</text>
</g>
<!-- N_DECISION_TYPE&#45;&gt;N_DECISION_SUMMARY -->
<g id="edge5" class="edge">
<title>N_DECISION_TYPE&#45;&gt;N_DECISION_SUMMARY</title>
<path fill="none" stroke="#475569" d="M306.16,-691.71C313.39,-684.2 320.48,-675 324.29,-665 328.59,-653.7 323.23,-642.66 315.11,-633.41"/>
<polygon fill="#475569" stroke="#475569" points="316.69,-631.52 310.07,-628.18 313.16,-634.92 316.69,-631.52"/>
<text text-anchor="middle" x="394.29" y="-657.8" font-family="Helvetica,sans-Serif" font-size="9.00">technical — Technical decision</text>
</g>
<!-- N_DECISION_TYPE&#45;&gt;N_DECISION_SUMMARY -->
<g id="edge6" class="edge">
<title>N_DECISION_TYPE&#45;&gt;N_DECISION_SUMMARY</title>
<path fill="none" stroke="#475569" d="M405.42,-693.66C436.38,-686.66 463.63,-677.27 473.29,-665 484.47,-650.79 454.4,-638.8 415.08,-629.61"/>
<polygon fill="#475569" stroke="#475569" points="415.54,-627.2 408.17,-628.05 414.46,-631.98 415.54,-627.2"/>
<text text-anchor="middle" x="527.79" y="-657.8" font-family="Helvetica,sans-Serif" font-size="9.00">other — Other decision</text>
</g>
<!-- N_ALTERNATIVES_CONSIDERED -->
<g id="node5" class="node">
<title>N_ALTERNATIVES_CONSIDERED</title>
<path fill="#f8fafc" stroke="#475569" stroke-width="1.2" d="M423.29,-533C423.29,-533 143.29,-533 143.29,-533 137.29,-533 131.29,-527 131.29,-521 131.29,-521 131.29,-505 131.29,-505 131.29,-499 137.29,-493 143.29,-493 143.29,-493 423.29,-493 423.29,-493 429.29,-493 435.29,-499 435.29,-505 435.29,-505 435.29,-521 435.29,-521 435.29,-527 429.29,-533 423.29,-533"/>
<text text-anchor="middle" x="283.29" y="-516" font-family="Helvetica,sans-Serif" font-size="10.00">N_ALTERNATIVES_CONSIDERED</text>
<text text-anchor="middle" x="283.29" y="-505" font-family="Helvetica,sans-Serif" font-size="10.00">Які альтернативи розглядалися і чому їх не обрали?</text>
</g>
<!-- N_DECISION_SUMMARY&#45;&gt;N_ALTERNATIVES_CONSIDERED -->
<g id="edge7" class="edge">
<title>N_DECISION_SUMMARY&#45;&gt;N_ALTERNATIVES_CONSIDERED</title>
<path fill="none" stroke="#475569" d="M283.29,-587.73C283.29,-574.01 283.29,-555.42 283.29,-540.33"/>
<polygon fill="#475569" stroke="#475569" points="285.74,-540.24 283.29,-533.24 280.84,-540.25 285.74,-540.24"/>
</g>
<!-- N_DECISION_STATUS -->
<g id="node6" class="node">
<title>N_DECISION_STATUS</title>
<path fill="#f8fafc" stroke="#475569" stroke-width="1.2" d="M446.29,-438C446.29,-438 120.29,-438 120.29,-438 114.29,-438 108.29,-432 108.29,-426 108.29,-426 108.29,-410 108.29,-410 108.29,-404 114.29,-398 120.29,-398 120.29,-398 446.29,-398 446.29,-398 452.29,-398 458.29,-404 458.29,-410 458.29,-410 458.29,-426 458.29,-426 458.29,-432 452.29,-438 446.29,-438"/>
<text text-anchor="middle" x="283.29" y="-421" font-family="Helvetica,sans-Serif" font-size="10.00">N_DECISION_STATUS</text>
<text text-anchor="middle" x="283.29" y="-410" font-family="Helvetica,sans-Serif" font-size="10.00">Статус рішення — вже прийнято чи ще потребує уточнення?</text>
</g>
<!-- N_ALTERNATIVES_CONSIDERED&#45;&gt;N_DECISION_STATUS -->
<g id="edge8" class="edge">
<title>N_ALTERNATIVES_CONSIDERED&#45;&gt;N_DECISION_STATUS</title>
<path fill="none" stroke="#475569" d="M283.29,-492.73C283.29,-479.01 283.29,-460.42 283.29,-445.33"/>
<polygon fill="#475569" stroke="#475569" points="285.74,-445.24 283.29,-438.24 280.84,-445.25 285.74,-445.24"/>
</g>
<!-- N_OPEN_QUESTIONS -->
<g id="node7" class="node">
<title>N_OPEN_QUESTIONS</title>
<path fill="#fff4d6" stroke="#b45309" stroke-width="1.2" d="M433.29,-334C433.29,-334 133.29,-334 133.29,-334 127.29,-334 121.29,-328 121.29,-322 121.29,-322 121.29,-306 121.29,-306 121.29,-300 127.29,-294 133.29,-294 133.29,-294 433.29,-294 433.29,-294 439.29,-294 445.29,-300 445.29,-306 445.29,-306 445.29,-322 445.29,-322 445.29,-328 439.29,-334 433.29,-334"/>
<text text-anchor="middle" x="283.29" y="-317" font-family="Helvetica,sans-Serif" font-size="10.00">N_OPEN_QUESTIONS</text>
<text text-anchor="middle" x="283.29" y="-306" font-family="Helvetica,sans-Serif" font-size="10.00">Які питання треба закрити перед фінальним рішенням?</text>
</g>
<!-- N_DECISION_STATUS&#45;&gt;N_OPEN_QUESTIONS -->
<g id="edge9" class="edge">
<title>N_DECISION_STATUS&#45;&gt;N_OPEN_QUESTIONS</title>
<path fill="none" stroke="#475569" d="M283.29,-397.81C283.29,-381.86 283.29,-358.98 283.29,-341.32"/>
<polygon fill="#475569" stroke="#475569" points="285.74,-341.1 283.29,-334.1 280.84,-341.1 285.74,-341.1"/>
<text text-anchor="middle" x="374.79" y="-363.8" font-family="Helvetica,sans-Serif" font-size="9.00">needs_clarification — Needs clarification</text>
</g>
<!-- N_FOLLOW_UP_ACTIONS -->
<g id="node8" class="node">
<title>N_FOLLOW_UP_ACTIONS</title>
<path fill="#f8fafc" stroke="#475569" stroke-width="1.2" d="M444.29,-239C444.29,-239 122.29,-239 122.29,-239 116.29,-239 110.29,-233 110.29,-227 110.29,-227 110.29,-211 110.29,-211 110.29,-205 116.29,-199 122.29,-199 122.29,-199 444.29,-199 444.29,-199 450.29,-199 456.29,-205 456.29,-211 456.29,-211 456.29,-227 456.29,-227 456.29,-233 450.29,-239 444.29,-239"/>
<text text-anchor="middle" x="283.29" y="-222" font-family="Helvetica,sans-Serif" font-size="10.00">N_FOLLOW_UP_ACTIONS</text>
<text text-anchor="middle" x="283.29" y="-211" font-family="Helvetica,sans-Serif" font-size="10.00">Які наступні дії, власники або дедлайни треба зафіксувати?</text>
</g>
<!-- N_OPEN_QUESTIONS&#45;&gt;N_FOLLOW_UP_ACTIONS -->
<g id="edge10" class="edge">
<title>N_OPEN_QUESTIONS&#45;&gt;N_FOLLOW_UP_ACTIONS</title>
<path fill="none" stroke="#475569" d="M283.29,-293.73C283.29,-280.01 283.29,-261.42 283.29,-246.33"/>
<polygon fill="#475569" stroke="#475569" points="285.74,-246.24 283.29,-239.24 280.84,-246.25 285.74,-246.24"/>
</g>
<!-- N_APPROVAL_TO_RENDER_NOTE -->
<g id="node9" class="node">
<title>N_APPROVAL_TO_RENDER_NOTE</title>
<path fill="#f8fafc" stroke="#475569" stroke-width="1.2" d="M497.29,-144C497.29,-144 69.29,-144 69.29,-144 63.29,-144 57.29,-138 57.29,-132 57.29,-132 57.29,-116 57.29,-116 57.29,-110 63.29,-104 69.29,-104 69.29,-104 497.29,-104 497.29,-104 503.29,-104 509.29,-110 509.29,-116 509.29,-116 509.29,-132 509.29,-132 509.29,-138 503.29,-144 497.29,-144"/>
<text text-anchor="middle" x="283.29" y="-127" font-family="Helvetica,sans-Serif" font-size="10.00">N_APPROVAL_TO_RENDER_NOTE</text>
<text text-anchor="middle" x="283.29" y="-116" font-family="Helvetica,sans-Serif" font-size="10.00">Підтверджуєте, що AI може сформувати decision note за зібраними відповідями?</text>
</g>
<!-- N_FOLLOW_UP_ACTIONS&#45;&gt;N_APPROVAL_TO_RENDER_NOTE -->
<g id="edge11" class="edge">
<title>N_FOLLOW_UP_ACTIONS&#45;&gt;N_APPROVAL_TO_RENDER_NOTE</title>
<path fill="none" stroke="#475569" d="M283.29,-198.73C283.29,-185.01 283.29,-166.42 283.29,-151.33"/>
<polygon fill="#475569" stroke="#475569" points="285.74,-151.24 283.29,-144.24 280.84,-151.25 285.74,-151.24"/>
</g>
<!-- G_DECISION_NOTE_READY_TO_RENDER -->
<g id="node10" class="node">
<title>G_DECISION_NOTE_READY_TO_RENDER</title>
<path fill="#ffe3e3" stroke="#475569" stroke-width="1.2" d="M281.29,-40C281.29,-40 83.29,-40 83.29,-40 77.29,-40 71.29,-34 71.29,-28 71.29,-28 71.29,-12 71.29,-12 71.29,-6 77.29,0 83.29,0 83.29,0 281.29,0 281.29,0 287.29,0 293.29,-6 293.29,-12 293.29,-12 293.29,-28 293.29,-28 293.29,-34 287.29,-40 281.29,-40"/>
<text text-anchor="middle" x="182.29" y="-23" font-family="Helvetica,sans-Serif" font-size="10.00">G_DECISION_NOTE_READY_TO_RENDER</text>
<text text-anchor="middle" x="182.29" y="-12" font-family="Helvetica,sans-Serif" font-size="10.00">Gate</text>
</g>
<!-- N_APPROVAL_TO_RENDER_NOTE&#45;&gt;G_DECISION_NOTE_READY_TO_RENDER -->
<g id="edge12" class="edge">
<title>N_APPROVAL_TO_RENDER_NOTE&#45;&gt;G_DECISION_NOTE_READY_TO_RENDER</title>
<path fill="none" stroke="#475569" d="M243.69,-103.99C231.56,-96.78 218.89,-87.69 209.29,-77 201.48,-68.31 195.44,-56.95 191.08,-46.74"/>
<polygon fill="#475569" stroke="#475569" points="193.35,-45.8 188.45,-40.23 188.8,-47.64 193.35,-45.8"/>
<text text-anchor="middle" x="272.29" y="-69.8" font-family="Helvetica,sans-Serif" font-size="9.00">yes — Render decision note</text>
</g>
<!-- terminal_STOP_NEEDS_APPROVAL -->
<g id="node11" class="node">
<title>terminal_STOP_NEEDS_APPROVAL</title>
<path fill="#ffe2e2" stroke="#475569" stroke-width="1.2" d="M425.29,-40C425.29,-40 345.29,-40 345.29,-40 339.29,-40 333.29,-34 333.29,-28 333.29,-28 333.29,-12 333.29,-12 333.29,-6 339.29,0 345.29,0 345.29,0 425.29,0 425.29,0 431.29,0 437.29,-6 437.29,-12 437.29,-12 437.29,-28 437.29,-28 437.29,-34 431.29,-40 425.29,-40"/>
<text text-anchor="middle" x="385.29" y="-23" font-family="Helvetica,sans-Serif" font-size="10.00">Terminal</text>
<text text-anchor="middle" x="385.29" y="-12" font-family="Helvetica,sans-Serif" font-size="10.00">Needs Approval</text>
</g>
<!-- N_APPROVAL_TO_RENDER_NOTE&#45;&gt;terminal_STOP_NEEDS_APPROVAL -->
<g id="edge13" class="edge">
<title>N_APPROVAL_TO_RENDER_NOTE&#45;&gt;terminal_STOP_NEEDS_APPROVAL</title>
<path fill="none" stroke="#475569" d="M310.08,-103.85C320.3,-96.02 331.77,-86.56 341.29,-77 350.77,-67.48 360.13,-55.95 367.76,-45.83"/>
<polygon fill="#475569" stroke="#475569" points="369.84,-47.15 372.04,-40.07 365.9,-44.22 369.84,-47.15"/>
<text text-anchor="middle" x="403.79" y="-69.8" font-family="Helvetica,sans-Serif" font-size="9.00">no — Do not render yet</text>
</g>
</g>
</svg>
