<?xml version="1.0" encoding="UTF-8" standalone="no"?>
<!DOCTYPE svg PUBLIC "-//W3C//DTD SVG 1.1//EN"
 "http://www.w3.org/Graphics/SVG/1.1/DTD/svg11.dtd">
<!-- Generated by graphviz version 2.42.4 (0)
 -->
<!-- Title: OrdoWorkflow Pages: 1 -->
<svg width="2302pt" height="1028pt"
 viewBox="0.00 0.00 2302.20 1028.20" xmlns="http://www.w3.org/2000/svg" xmlns:xlink="http://www.w3.org/1999/xlink">
<g id="graph0" class="graph" transform="scale(1 1) rotate(0) translate(21.6 1006.6)">
<title>OrdoWorkflow</title>
<polygon fill="white" stroke="transparent" points="-21.6,21.6 -21.6,-1006.6 2280.6,-1006.6 2280.6,21.6 -21.6,21.6"/>
<text text-anchor="middle" x="1129.5" y="-963.4" font-family="Helvetica,sans-Serif" font-size="22.00">INTENT_DECISION_NOTE_ASSISTANT</text>
<!-- ENTRY -->
<g id="node1" class="node">
<title>ENTRY</title>
<path fill="#dcebff" stroke="#475569" stroke-width="1.2" d="M502,-947.5C502,-947.5 320,-947.5 320,-947.5 314,-947.5 308,-941.5 308,-935.5 308,-935.5 308,-919.5 308,-919.5 308,-913.5 314,-907.5 320,-907.5 320,-907.5 502,-907.5 502,-907.5 508,-907.5 514,-913.5 514,-919.5 514,-919.5 514,-935.5 514,-935.5 514,-941.5 508,-947.5 502,-947.5"/>
<text text-anchor="middle" x="411" y="-930.5" font-family="Helvetica,sans-Serif" font-size="10.00">ENTRY</text>
<text text-anchor="middle" x="411" y="-919.5" font-family="Helvetica,sans-Serif" font-size="10.00">INTENT_DECISION_NOTE_ASSISTANT</text>
</g>
<!-- N_DISCUSSION_CONTEXT -->
<g id="node2" class="node">
<title>N_DISCUSSION_CONTEXT</title>
<path fill="#f8fafc" stroke="#475569" stroke-width="1.2" d="M633,-832.5C633,-832.5 189,-832.5 189,-832.5 183,-832.5 177,-826.5 177,-820.5 177,-820.5 177,-804.5 177,-804.5 177,-798.5 183,-792.5 189,-792.5 189,-792.5 633,-792.5 633,-792.5 639,-792.5 645,-798.5 645,-804.5 645,-804.5 645,-820.5 645,-820.5 645,-826.5 639,-832.5 633,-832.5"/>
<text text-anchor="middle" x="411" y="-815.5" font-family="Helvetica,sans-Serif" font-size="10.00">N_DISCUSSION_CONTEXT</text>
<text text-anchor="middle" x="411" y="-804.5" font-family="Helvetica,sans-Serif" font-size="10.00">Опишіть обговорення або вставте короткий фрагмент нотаток, з яких треба зроб…</text>
</g>
<!-- ENTRY&#45;&gt;N_DISCUSSION_CONTEXT -->
<g id="edge1" class="edge">
<title>ENTRY&#45;&gt;N_DISCUSSION_CONTEXT</title>
<path fill="none" stroke="#475569" d="M411,-907.33C411,-888.82 411,-860.65 411,-840"/>
<polygon fill="#475569" stroke="#475569" points="413.45,-839.76 411,-832.76 408.55,-839.76 413.45,-839.76"/>
</g>
<!-- N_DECISION_TYPE -->
<g id="node3" class="node">
<title>N_DECISION_TYPE</title>
<path fill="#f8fafc" stroke="#475569" stroke-width="1.2" d="M521,-732C521,-732 301,-732 301,-732 295,-732 289,-726 289,-720 289,-720 289,-704 289,-704 289,-698 295,-692 301,-692 301,-692 521,-692 521,-692 527,-692 533,-698 533,-704 533,-704 533,-720 533,-720 533,-726 527,-732 521,-732"/>
<text text-anchor="middle" x="411" y="-715" font-family="Helvetica,sans-Serif" font-size="10.00">N_DECISION_TYPE</text>
<text text-anchor="middle" x="411" y="-704" font-family="Helvetica,sans-Serif" font-size="10.00">Який тип рішення потрібно зафіксувати?</text>
</g>
<!-- N_DISCUSSION_CONTEXT&#45;&gt;N_DECISION_TYPE -->
<g id="edge2" class="edge">
<title>N_DISCUSSION_CONTEXT&#45;&gt;N_DECISION_TYPE</title>
<path fill="none" stroke="#475569" d="M411,-792.04C411,-776.97 411,-755.93 411,-739.35"/>
<polygon fill="#475569" stroke="#475569" points="413.45,-739.08 411,-732.08 408.55,-739.08 413.45,-739.08"/>
</g>
<!-- N_DECISION_SUMMARY -->
<g id="node4" class="node">
<title>N_DECISION_SUMMARY</title>
<path fill="#f8fafc" stroke="#475569" stroke-width="1.2" d="M586,-628C586,-628 236,-628 236,-628 230,-628 224,-622 224,-616 224,-616 224,-600 224,-600 224,-594 230,-588 236,-588 236,-588 586,-588 586,-588 592,-588 598,-594 598,-600 598,-600 598,-616 598,-616 598,-622 592,-628 586,-628"/>
<text text-anchor="middle" x="411" y="-611" font-family="Helvetica,sans-Serif" font-size="10.00">N_DECISION_SUMMARY</text>
<text text-anchor="middle" x="411" y="-600" font-family="Helvetica,sans-Serif" font-size="10.00">Яке рішення пропонується зафіксувати одним&#45;двома реченнями?</text>
</g>
<!-- N_DECISION_TYPE&#45;&gt;N_DECISION_SUMMARY -->
<g id="edge3" class="edge">
<title>N_DECISION_TYPE&#45;&gt;N_DECISION_SUMMARY</title>
<path fill="none" stroke="#475569" d="M288.65,-704.32C229.9,-698.28 168.3,-686.81 150,-665 135.63,-647.87 169.18,-635.7 216.57,-627.18"/>
<polygon fill="#475569" stroke="#475569" points="217.18,-629.56 223.65,-625.95 216.34,-624.73 217.18,-629.56"/>
<text text-anchor="middle" x="213.5" y="-657.8" font-family="Helvetica,sans-Serif" font-size="9.00">product — Product decision</text>
</g>
<!-- N_DECISION_TYPE&#45;&gt;N_DECISION_SUMMARY -->
<g id="edge4" class="edge">
<title>N_DECISION_TYPE&#45;&gt;N_DECISION_SUMMARY</title>
<path fill="none" stroke="#475569" d="M351.53,-691.76C339.79,-685.16 328.96,-676.44 322,-665 313.49,-651.01 321.86,-639.96 336.34,-631.49"/>
<polygon fill="#475569" stroke="#475569" points="337.85,-633.46 342.88,-628.02 335.55,-629.13 337.85,-633.46"/>
<text text-anchor="middle" x="384" y="-657.8" font-family="Helvetica,sans-Serif" font-size="9.00">process — Process decision</text>
</g>
<!-- N_DECISION_TYPE&#45;&gt;N_DECISION_SUMMARY -->
<g id="edge5" class="edge">
<title>N_DECISION_TYPE&#45;&gt;N_DECISION_SUMMARY</title>
<path fill="none" stroke="#475569" d="M433.88,-691.71C441.1,-684.2 448.19,-675 452,-665 456.3,-653.7 450.94,-642.66 442.82,-633.41"/>
<polygon fill="#475569" stroke="#475569" points="444.4,-631.52 437.78,-628.18 440.87,-634.92 444.4,-631.52"/>
<text text-anchor="middle" x="523" y="-657.8" font-family="Helvetica,sans-Serif" font-size="9.00">technical — Technical decision</text>
</g>
<!-- N_DECISION_TYPE&#45;&gt;N_DECISION_SUMMARY -->
<g id="edge6" class="edge">
<title>N_DECISION_TYPE&#45;&gt;N_DECISION_SUMMARY</title>
<path fill="none" stroke="#475569" d="M533.01,-693.9C564.44,-686.89 592.21,-677.43 602,-665 613.22,-650.76 583.15,-638.78 543.76,-629.61"/>
<polygon fill="#475569" stroke="#475569" points="544.2,-627.2 536.84,-628.05 543.12,-631.98 544.2,-627.2"/>
<text text-anchor="middle" x="657.5" y="-657.8" font-family="Helvetica,sans-Serif" font-size="9.00">other — Other decision</text>
</g>
<!-- N_ALTERNATIVES_CONSIDERED -->
<g id="node5" class="node">
<title>N_ALTERNATIVES_CONSIDERED</title>
<path fill="#f8fafc" stroke="#475569" stroke-width="1.2" d="M551,-533C551,-533 271,-533 271,-533 265,-533 259,-527 259,-521 259,-521 259,-505 259,-505 259,-499 265,-493 271,-493 271,-493 551,-493 551,-493 557,-493 563,-499 563,-505 563,-505 563,-521 563,-521 563,-527 557,-533 551,-533"/>
<text text-anchor="middle" x="411" y="-516" font-family="Helvetica,sans-Serif" font-size="10.00">N_ALTERNATIVES_CONSIDERED</text>
<text text-anchor="middle" x="411" y="-505" font-family="Helvetica,sans-Serif" font-size="10.00">Які альтернативи розглядалися і чому їх не обрали?</text>
</g>
<!-- N_DECISION_SUMMARY&#45;&gt;N_ALTERNATIVES_CONSIDERED -->
<g id="edge7" class="edge">
<title>N_DECISION_SUMMARY&#45;&gt;N_ALTERNATIVES_CONSIDERED</title>
<path fill="none" stroke="#475569" d="M411,-587.73C411,-574.01 411,-555.42 411,-540.33"/>
<polygon fill="#475569" stroke="#475569" points="413.45,-540.24 411,-533.24 408.55,-540.25 413.45,-540.24"/>
</g>
<!-- N_DECISION_STATUS -->
<g id="node6" class="node">
<title>N_DECISION_STATUS</title>
<path fill="#f8fafc" stroke="#475569" stroke-width="1.2" d="M574,-438C574,-438 248,-438 248,-438 242,-438 236,-432 236,-426 236,-426 236,-410 236,-410 236,-404 242,-398 248,-398 248,-398 574,-398 574,-398 580,-398 586,-404 586,-410 586,-410 586,-426 586,-426 586,-432 580,-438 574,-438"/>
<text text-anchor="middle" x="411" y="-421" font-family="Helvetica,sans-Serif" font-size="10.00">N_DECISION_STATUS</text>
<text text-anchor="middle" x="411" y="-410" font-family="Helvetica,sans-Serif" font-size="10.00">Статус рішення — вже прийнято чи ще потребує уточнення?</text>
</g>
<!-- N_ALTERNATIVES_CONSIDERED&#45;&gt;N_DECISION_STATUS -->
<g id="edge8" class="edge">
<title>N_ALTERNATIVES_CONSIDERED&#45;&gt;N_DECISION_STATUS</title>
<path fill="none" stroke="#475569" d="M411,-492.73C411,-479.01 411,-460.42 411,-445.33"/>
<polygon fill="#475569" stroke="#475569" points="413.45,-445.24 411,-438.24 408.55,-445.25 413.45,-445.24"/>
</g>
<!-- N_RATIONALE -->
<g id="node7" class="node">
<title>N_RATIONALE</title>
<path fill="#f8fafc" stroke="#475569" stroke-width="1.2" d="M402,-334C402,-334 12,-334 12,-334 6,-334 0,-328 0,-322 0,-322 0,-306 0,-306 0,-300 6,-294 12,-294 12,-294 402,-294 402,-294 408,-294 414,-300 414,-306 414,-306 414,-322 414,-322 414,-328 408,-334 402,-334"/>
<text text-anchor="middle" x="207" y="-317" font-family="Helvetica,sans-Serif" font-size="10.00">N_RATIONALE</text>
<text text-anchor="middle" x="207" y="-306" font-family="Helvetica,sans-Serif" font-size="10.00">Чому саме це рішення прийнято? Вкажіть основні причини або trade&#45;offs.</text>
</g>
<!-- N_DECISION_STATUS&#45;&gt;N_RATIONALE -->
<g id="edge9" class="edge">
<title>N_DECISION_STATUS&#45;&gt;N_RATIONALE</title>
<path fill="none" stroke="#475569" d="M372.63,-397.81C338.29,-380.65 287.94,-355.47 251.78,-337.39"/>
<polygon fill="#475569" stroke="#475569" points="252.56,-335.04 245.2,-334.1 250.36,-339.42 252.56,-335.04"/>
<text text-anchor="middle" x="383" y="-363.8" font-family="Helvetica,sans-Serif" font-size="9.00">decided — Decision accepted</text>
</g>
<!-- N_OPEN_QUESTIONS -->
<g id="node8" class="node">
<title>N_OPEN_QUESTIONS</title>
<path fill="#f8fafc" stroke="#475569" stroke-width="1.2" d="M766,-334C766,-334 466,-334 466,-334 460,-334 454,-328 454,-322 454,-322 454,-306 454,-306 454,-300 460,-294 466,-294 466,-294 766,-294 766,-294 772,-294 778,-300 778,-306 778,-306 778,-322 778,-322 778,-328 772,-334 766,-334"/>
<text text-anchor="middle" x="616" y="-317" font-family="Helvetica,sans-Serif" font-size="10.00">N_OPEN_QUESTIONS</text>
<text text-anchor="middle" x="616" y="-306" font-family="Helvetica,sans-Serif" font-size="10.00">Які питання треба закрити перед фінальним рішенням?</text>
</g>
<!-- N_DECISION_STATUS&#45;&gt;N_OPEN_QUESTIONS -->
<g id="edge10" class="edge">
<title>N_DECISION_STATUS&#45;&gt;N_OPEN_QUESTIONS</title>
<path fill="none" stroke="#475569" d="M449.56,-397.81C484.06,-380.65 534.66,-355.47 571,-337.39"/>
<polygon fill="#475569" stroke="#475569" points="572.44,-339.41 577.61,-334.1 570.26,-335.02 572.44,-339.41"/>
<text text-anchor="middle" x="611.5" y="-363.8" font-family="Helvetica,sans-Serif" font-size="9.00">needs_clarification — Needs clarification</text>
</g>
<!-- N_FOLLOW_UP_ACTIONS -->
<g id="node9" class="node">
<title>N_FOLLOW_UP_ACTIONS</title>
<path fill="#f8fafc" stroke="#475569" stroke-width="1.2" d="M572,-239C572,-239 250,-239 250,-239 244,-239 238,-233 238,-227 238,-227 238,-211 238,-211 238,-205 244,-199 250,-199 250,-199 572,-199 572,-199 578,-199 584,-205 584,-211 584,-211 584,-227 584,-227 584,-233 578,-239 572,-239"/>
<text text-anchor="middle" x="411" y="-222" font-family="Helvetica,sans-Serif" font-size="10.00">N_FOLLOW_UP_ACTIONS</text>
<text text-anchor="middle" x="411" y="-211" font-family="Helvetica,sans-Serif" font-size="10.00">Які наступні дії, власники або дедлайни треба зафіксувати?</text>
</g>
<!-- N_RATIONALE&#45;&gt;N_FOLLOW_UP_ACTIONS -->
<g id="edge11" class="edge">
<title>N_RATIONALE&#45;&gt;N_FOLLOW_UP_ACTIONS</title>
<path fill="none" stroke="#475569" d="M248.77,-293.96C281.78,-278.91 327.89,-257.89 362.52,-242.1"/>
<polygon fill="#475569" stroke="#475569" points="363.93,-244.15 369.28,-239.02 361.9,-239.69 363.93,-244.15"/>
</g>
<!-- N_OPEN_QUESTIONS&#45;&gt;N_FOLLOW_UP_ACTIONS -->
<g id="edge12" class="edge">
<title>N_OPEN_QUESTIONS&#45;&gt;N_FOLLOW_UP_ACTIONS</title>
<path fill="none" stroke="#475569" d="M574.02,-293.96C540.86,-278.91 494.52,-257.89 459.72,-242.1"/>
<polygon fill="#475569" stroke="#475569" points="460.31,-239.68 452.92,-239.02 458.29,-244.14 460.31,-239.68"/>
</g>
<!-- N_APPROVAL_TO_RENDER_NOTE -->
<g id="node10" class="node">
<title>N_APPROVAL_TO_RENDER_NOTE</title>
<path fill="#f8fafc" stroke="#475569" stroke-width="1.2" d="M625,-144C625,-144 197,-144 197,-144 191,-144 185,-138 185,-132 185,-132 185,-116 185,-116 185,-110 191,-104 197,-104 197,-104 625,-104 625,-104 631,-104 637,-110 637,-116 637,-116 637,-132 637,-132 637,-138 631,-144 625,-144"/>
<text text-anchor="middle" x="411" y="-127" font-family="Helvetica,sans-Serif" font-size="10.00">N_APPROVAL_TO_RENDER_NOTE</text>
<text text-anchor="middle" x="411" y="-116" font-family="Helvetica,sans-Serif" font-size="10.00">Підтверджуєте, що AI може сформувати decision note за зібраними відповідями?</text>
</g>
<!-- N_FOLLOW_UP_ACTIONS&#45;&gt;N_APPROVAL_TO_RENDER_NOTE -->
<g id="edge13" class="edge">
<title>N_FOLLOW_UP_ACTIONS&#45;&gt;N_APPROVAL_TO_RENDER_NOTE</title>
<path fill="none" stroke="#475569" d="M411,-198.73C411,-185.01 411,-166.42 411,-151.33"/>
<polygon fill="#475569" stroke="#475569" points="413.45,-151.24 411,-144.24 408.55,-151.25 413.45,-151.24"/>
</g>
<!-- G_DECISION_NOTE_READY_TO_RENDER -->
<g id="node12" class="node">
<title>G_DECISION_NOTE_READY_TO_RENDER</title>
<path fill="#ffe3e3" stroke="#475569" stroke-width="1.2" d="M409,-40C409,-40 211,-40 211,-40 205,-40 199,-34 199,-28 199,-28 199,-12 199,-12 199,-6 205,0 211,0 211,0 409,0 409,0 415,0 421,-6 421,-12 421,-12 421,-28 421,-28 421,-34 415,-40 409,-40"/>
<text text-anchor="middle" x="310" y="-23" font-family="Helvetica,sans-Serif" font-size="10.00">G_DECISION_NOTE_READY_TO_RENDER</text>
<text text-anchor="middle" x="310" y="-12" font-family="Helvetica,sans-Serif" font-size="10.00">Gate</text>
</g>
<!-- N_APPROVAL_TO_RENDER_NOTE&#45;&gt;G_DECISION_NOTE_READY_TO_RENDER -->
<g id="edge14" class="edge">
<title>N_APPROVAL_TO_RENDER_NOTE&#45;&gt;G_DECISION_NOTE_READY_TO_RENDER</title>
<path fill="none" stroke="#475569" d="M371.4,-103.99C359.27,-96.78 346.6,-87.69 337,-77 329.19,-68.31 323.16,-56.95 318.79,-46.74"/>
<polygon fill="#475569" stroke="#475569" points="321.06,-45.8 316.17,-40.23 316.51,-47.64 321.06,-45.8"/>
<text text-anchor="middle" x="400" y="-69.8" font-family="Helvetica,sans-Serif" font-size="9.00">yes — Render decision note</text>
</g>
<!-- terminal_STOP_NEEDS_APPROVAL -->
<g id="node18" class="node">
<title>terminal_STOP_NEEDS_APPROVAL</title>
<path fill="#ffe2e2" stroke="#475569" stroke-width="1.2" d="M553,-40C553,-40 473,-40 473,-40 467,-40 461,-34 461,-28 461,-28 461,-12 461,-12 461,-6 467,0 473,0 473,0 553,0 553,0 559,0 565,-6 565,-12 565,-12 565,-28 565,-28 565,-34 559,-40 553,-40"/>
<text text-anchor="middle" x="513" y="-23" font-family="Helvetica,sans-Serif" font-size="10.00">Terminal</text>
<text text-anchor="middle" x="513" y="-12" font-family="Helvetica,sans-Serif" font-size="10.00">Needs Approval</text>
</g>
<!-- N_APPROVAL_TO_RENDER_NOTE&#45;&gt;terminal_STOP_NEEDS_APPROVAL -->
<g id="edge15" class="edge">
<title>N_APPROVAL_TO_RENDER_NOTE&#45;&gt;terminal_STOP_NEEDS_APPROVAL</title>
<path fill="none" stroke="#475569" d="M437.8,-103.85C448.01,-96.02 459.48,-86.56 469,-77 478.48,-67.48 487.84,-55.95 495.47,-45.83"/>
<polygon fill="#475569" stroke="#475569" points="497.55,-47.15 499.76,-40.07 493.62,-44.22 497.55,-47.15"/>
<text text-anchor="middle" x="532.5" y="-69.8" font-family="Helvetica,sans-Serif" font-size="9.00">no — Do not render yet</text>
</g>
<!-- G_APPROVAL_TO_RENDER_NOTE -->
<g id="node11" class="node">
<title>G_APPROVAL_TO_RENDER_NOTE</title>
<path fill="#ffe3e3" stroke="#475569" stroke-width="1.2" d="M729.5,-947.5C729.5,-947.5 566.5,-947.5 566.5,-947.5 560.5,-947.5 554.5,-941.5 554.5,-935.5 554.5,-935.5 554.5,-919.5 554.5,-919.5 554.5,-913.5 560.5,-907.5 566.5,-907.5 566.5,-907.5 729.5,-907.5 729.5,-907.5 735.5,-907.5 741.5,-913.5 741.5,-919.5 741.5,-919.5 741.5,-935.5 741.5,-935.5 741.5,-941.5 735.5,-947.5 729.5,-947.5"/>
<text text-anchor="middle" x="648" y="-930.5" font-family="Helvetica,sans-Serif" font-size="10.00">G_APPROVAL_TO_RENDER_NOTE</text>
<text text-anchor="middle" x="648" y="-919.5" font-family="Helvetica,sans-Serif" font-size="10.00">Gate</text>
</g>
<!-- G_DECISION_STATUS_PRESENT -->
<g id="node13" class="node">
<title>G_DECISION_STATUS_PRESENT</title>
<path fill="#ffe3e3" stroke="#475569" stroke-width="1.2" d="M948,-947.5C948,-947.5 794,-947.5 794,-947.5 788,-947.5 782,-941.5 782,-935.5 782,-935.5 782,-919.5 782,-919.5 782,-913.5 788,-907.5 794,-907.5 794,-907.5 948,-907.5 948,-907.5 954,-907.5 960,-913.5 960,-919.5 960,-919.5 960,-935.5 960,-935.5 960,-941.5 954,-947.5 948,-947.5"/>
<text text-anchor="middle" x="871" y="-930.5" font-family="Helvetica,sans-Serif" font-size="10.00">G_DECISION_STATUS_PRESENT</text>
<text text-anchor="middle" x="871" y="-919.5" font-family="Helvetica,sans-Serif" font-size="10.00">Gate</text>
</g>
<!-- G_DECISION_SUMMARY_PRESENT -->
<g id="node14" class="node">
<title>G_DECISION_SUMMARY_PRESENT</title>
<path fill="#ffe3e3" stroke="#475569" stroke-width="1.2" d="M1180,-947.5C1180,-947.5 1012,-947.5 1012,-947.5 1006,-947.5 1000,-941.5 1000,-935.5 1000,-935.5 1000,-919.5 1000,-919.5 1000,-913.5 1006,-907.5 1012,-907.5 1012,-907.5 1180,-907.5 1180,-907.5 1186,-907.5 1192,-913.5 1192,-919.5 1192,-919.5 1192,-935.5 1192,-935.5 1192,-941.5 1186,-947.5 1180,-947.5"/>
<text text-anchor="middle" x="1096" y="-930.5" font-family="Helvetica,sans-Serif" font-size="10.00">G_DECISION_SUMMARY_PRESENT</text>
<text text-anchor="middle" x="1096" y="-919.5" font-family="Helvetica,sans-Serif" font-size="10.00">Gate</text>
</g>
<!-- G_DECISION_TYPE_PRESENT -->
<g id="node15" class="node">
<title>G_DECISION_TYPE_PRESENT</title>
<path fill="#ffe3e3" stroke="#475569" stroke-width="1.2" d="M1385.5,-947.5C1385.5,-947.5 1244.5,-947.5 1244.5,-947.5 1238.5,-947.5 1232.5,-941.5 1232.5,-935.5 1232.5,-935.5 1232.5,-919.5 1232.5,-919.5 1232.5,-913.5 1238.5,-907.5 1244.5,-907.5 1244.5,-907.5 1385.5,-907.5 1385.5,-907.5 1391.5,-907.5 1397.5,-913.5 1397.5,-919.5 1397.5,-919.5 1397.5,-935.5 1397.5,-935.5 1397.5,-941.5 1391.5,-947.5 1385.5,-947.5"/>
<text text-anchor="middle" x="1315" y="-930.5" font-family="Helvetica,sans-Serif" font-size="10.00">G_DECISION_TYPE_PRESENT</text>
<text text-anchor="middle" x="1315" y="-919.5" font-family="Helvetica,sans-Serif" font-size="10.00">Gate</text>
</g>
<!-- G_DISCUSSION_CONTEXT_PRESENT -->
<g id="node16" class="node">
<title>G_DISCUSSION_CONTEXT_PRESENT</title>
<path fill="#ffe3e3" stroke="#475569" stroke-width="1.2" d="M1626.5,-947.5C1626.5,-947.5 1449.5,-947.5 1449.5,-947.5 1443.5,-947.5 1437.5,-941.5 1437.5,-935.5 1437.5,-935.5 1437.5,-919.5 1437.5,-919.5 1437.5,-913.5 1443.5,-907.5 1449.5,-907.5 1449.5,-907.5 1626.5,-907.5 1626.5,-907.5 1632.5,-907.5 1638.5,-913.5 1638.5,-919.5 1638.5,-919.5 1638.5,-935.5 1638.5,-935.5 1638.5,-941.5 1632.5,-947.5 1626.5,-947.5"/>
<text text-anchor="middle" x="1538" y="-930.5" font-family="Helvetica,sans-Serif" font-size="10.00">G_DISCUSSION_CONTEXT_PRESENT</text>
<text text-anchor="middle" x="1538" y="-919.5" font-family="Helvetica,sans-Serif" font-size="10.00">Gate</text>
</g>
<!-- G_TEMPLATE_CONTRACT_PRESENT -->
<g id="node17" class="node">
<title>G_TEMPLATE_CONTRACT_PRESENT</title>
<path fill="#ffe3e3" stroke="#475569" stroke-width="1.2" d="M1865.5,-947.5C1865.5,-947.5 1690.5,-947.5 1690.5,-947.5 1684.5,-947.5 1678.5,-941.5 1678.5,-935.5 1678.5,-935.5 1678.5,-919.5 1678.5,-919.5 1678.5,-913.5 1684.5,-907.5 1690.5,-907.5 1690.5,-907.5 1865.5,-907.5 1865.5,-907.5 1871.5,-907.5 1877.5,-913.5 1877.5,-919.5 1877.5,-919.5 1877.5,-935.5 1877.5,-935.5 1877.5,-941.5 1871.5,-947.5 1865.5,-947.5"/>
<text text-anchor="middle" x="1778" y="-930.5" font-family="Helvetica,sans-Serif" font-size="10.00">G_TEMPLATE_CONTRACT_PRESENT</text>
<text text-anchor="middle" x="1778" y="-919.5" font-family="Helvetica,sans-Serif" font-size="10.00">Gate</text>
</g>
<!-- artifact_DECISION_NOTE_MD -->
<g id="node19" class="node">
<title>artifact_DECISION_NOTE_MD</title>
<polygon fill="#e8f8ec" stroke="#475569" stroke-width="1.2" points="1948.5,-838 1945.5,-842 1924.5,-842 1921.5,-838 1783.5,-838 1783.5,-787 1948.5,-787 1948.5,-838"/>
<text text-anchor="middle" x="1866" y="-821" font-family="Helvetica,sans-Serif" font-size="10.00">Artifact</text>
<text text-anchor="middle" x="1866" y="-810" font-family="Helvetica,sans-Serif" font-size="10.00">outputs/DECISION_NOTE.md</text>
<text text-anchor="middle" x="1866" y="-799" font-family="Helvetica,sans-Serif" font-size="10.00">markdown</text>
</g>
<!-- artifact_DECISION_NOTE_TEMPLATE_CONTRACT -->
<g id="node20" class="node">
<title>artifact_DECISION_NOTE_TEMPLATE_CONTRACT</title>
<polygon fill="#e8f8ec" stroke="#475569" stroke-width="1.2" points="2259,-838 2256,-842 2235,-842 2232,-838 1989,-838 1989,-787 2259,-787 2259,-838"/>
<text text-anchor="middle" x="2124" y="-821" font-family="Helvetica,sans-Serif" font-size="10.00">Artifact</text>
<text text-anchor="middle" x="2124" y="-810" font-family="Helvetica,sans-Serif" font-size="10.00">output_templates/DECISION_NOTE_TEMPLATE.md</text>
<text text-anchor="middle" x="2124" y="-799" font-family="Helvetica,sans-Serif" font-size="10.00">markdown</text>
</g>
<!-- output_OUT_DECISION_NOTE_MD -->
<g id="node21" class="node">
<title>output_OUT_DECISION_NOTE_MD</title>
<polygon fill="#e0f2fe" stroke="#475569" stroke-width="1.2" points="2072,-953 2069,-957 2048,-957 2045,-953 1918,-953 1918,-902 2072,-902 2072,-953"/>
<text text-anchor="middle" x="1995" y="-936" font-family="Helvetica,sans-Serif" font-size="10.00">Package / Output</text>
<text text-anchor="middle" x="1995" y="-925" font-family="Helvetica,sans-Serif" font-size="10.00">OUT_DECISION_NOTE_MD</text>
<text text-anchor="middle" x="1995" y="-914" font-family="Helvetica,sans-Serif" font-size="10.00">markdown_artifact</text>
</g>
<!-- output_OUT_DECISION_NOTE_MD&#45;&gt;artifact_DECISION_NOTE_MD -->
<g id="edge16" class="edge">
<title>output_OUT_DECISION_NOTE_MD&#45;&gt;artifact_DECISION_NOTE_MD</title>
<path fill="none" stroke="#475569" stroke-dasharray="5,2" d="M1967.01,-901.98C1947.28,-884.7 1920.76,-861.47 1899.85,-843.15"/>
<polygon fill="#475569" stroke="#475569" points="1901.26,-841.13 1894.38,-838.36 1898.03,-844.82 1901.26,-841.13"/>
<text text-anchor="middle" x="1954.5" y="-867.8" font-family="Helvetica,sans-Serif" font-size="9.00">contains</text>
</g>
<!-- output_OUT_DECISION_NOTE_MD&#45;&gt;artifact_DECISION_NOTE_TEMPLATE_CONTRACT -->
<g id="edge17" class="edge">
<title>output_OUT_DECISION_NOTE_MD&#45;&gt;artifact_DECISION_NOTE_TEMPLATE_CONTRACT</title>
<path fill="none" stroke="#475569" stroke-dasharray="5,2" d="M2022.99,-901.98C2042.72,-884.7 2069.24,-861.47 2090.15,-843.15"/>
<polygon fill="#475569" stroke="#475569" points="2091.97,-844.82 2095.62,-838.36 2088.74,-841.13 2091.97,-844.82"/>
<text text-anchor="middle" x="2083.5" y="-867.8" font-family="Helvetica,sans-Serif" font-size="9.00">contains</text>
</g>
</g>
</svg>
