<?xml version="1.0" encoding="UTF-8" standalone="no"?>
<!DOCTYPE svg PUBLIC "-//W3C//DTD SVG 1.1//EN"
 "http://www.w3.org/Graphics/SVG/1.1/DTD/svg11.dtd">
<!-- Generated by graphviz version 2.42.4 (0)
 -->
<!-- Title: OrdoWorkflow Pages: 1 -->
<svg width="20894pt" height="209pt"
 viewBox="0.00 0.00 20894.20 209.20" xmlns="http://www.w3.org/2000/svg" xmlns:xlink="http://www.w3.org/1999/xlink">
<g id="graph0" class="graph" transform="scale(1 1) rotate(0) translate(21.6 187.6)">
<title>OrdoWorkflow</title>
<polygon fill="white" stroke="transparent" points="-21.6,21.6 -21.6,-187.6 20872.6,-187.6 20872.6,21.6 -21.6,21.6"/>
<text text-anchor="middle" x="10425.5" y="-144.4" font-family="Helvetica,sans-Serif" font-size="22.00">INTENT_AUTHOR_BENCHMARK_PLAYBOOK</text>
<!-- ENTRY -->
<g id="node1" class="node">
<title>ENTRY</title>
<path fill="#dcebff" stroke="#475569" stroke-width="1.2" d="M237,-134C237,-134 24,-134 24,-134 18,-134 12,-128 12,-122 12,-122 12,-106 12,-106 12,-100 18,-94 24,-94 24,-94 237,-94 237,-94 243,-94 249,-100 249,-106 249,-106 249,-122 249,-122 249,-128 243,-134 237,-134"/>
<text text-anchor="middle" x="130.5" y="-117" font-family="Helvetica,sans-Serif" font-size="10.00">ENTRY</text>
<text text-anchor="middle" x="130.5" y="-106" font-family="Helvetica,sans-Serif" font-size="10.00">INTENT_AUTHOR_BENCHMARK_PLAYBOOK</text>
</g>
<!-- N001_FOCUSED_SCOPE -->
<g id="node2" class="node">
<title>N001_FOCUSED_SCOPE</title>
<path fill="#f8fafc" stroke="#475569" stroke-width="1.2" d="M249,-40C249,-40 12,-40 12,-40 6,-40 0,-34 0,-28 0,-28 0,-12 0,-12 0,-6 6,0 12,0 12,0 249,0 249,0 255,0 261,-6 261,-12 261,-12 261,-28 261,-28 261,-34 255,-40 249,-40"/>
<text text-anchor="middle" x="130.5" y="-23" font-family="Helvetica,sans-Serif" font-size="10.00">N001_FOCUSED_SCOPE</text>
<text text-anchor="middle" x="130.5" y="-12" font-family="Helvetica,sans-Serif" font-size="10.00">Confirm current authoring scope and exact epic.</text>
</g>
<!-- ENTRY&#45;&gt;N001_FOCUSED_SCOPE -->
<g id="edge1" class="edge">
<title>ENTRY&#45;&gt;N001_FOCUSED_SCOPE</title>
<path fill="none" stroke="#475569" d="M130.5,-93.94C130.5,-80.37 130.5,-61.97 130.5,-47.05"/>
<polygon fill="#475569" stroke="#475569" points="132.95,-47.04 130.5,-40.04 128.05,-47.04 132.95,-47.04"/>
</g>
<!-- N002_VERIFY_LANGUAGE_BASELINE -->
<g id="node3" class="node">
<title>N002_VERIFY_LANGUAGE_BASELINE</title>
<path fill="#f8fafc" stroke="#475569" stroke-width="1.2" d="M482,-134C482,-134 301,-134 301,-134 295,-134 289,-128 289,-122 289,-122 289,-106 289,-106 289,-100 295,-94 301,-94 301,-94 482,-94 482,-94 488,-94 494,-100 494,-106 494,-106 494,-122 494,-122 494,-128 488,-134 482,-134"/>
<text text-anchor="middle" x="391.5" y="-117" font-family="Helvetica,sans-Serif" font-size="10.00">N002_VERIFY_LANGUAGE_BASELINE</text>
<text text-anchor="middle" x="391.5" y="-106" font-family="Helvetica,sans-Serif" font-size="10.00">N002_VERIFY_LANGUAGE_BASELINE</text>
</g>
<!-- N003_CREATE_CHARTER -->
<g id="node4" class="node">
<title>N003_CREATE_CHARTER</title>
<path fill="#f8fafc" stroke="#475569" stroke-width="1.2" d="M668.5,-134C668.5,-134 546.5,-134 546.5,-134 540.5,-134 534.5,-128 534.5,-122 534.5,-122 534.5,-106 534.5,-106 534.5,-100 540.5,-94 546.5,-94 546.5,-94 668.5,-94 668.5,-94 674.5,-94 680.5,-100 680.5,-106 680.5,-106 680.5,-122 680.5,-122 680.5,-128 674.5,-134 668.5,-134"/>
<text text-anchor="middle" x="607.5" y="-117" font-family="Helvetica,sans-Serif" font-size="10.00">N003_CREATE_CHARTER</text>
<text text-anchor="middle" x="607.5" y="-106" font-family="Helvetica,sans-Serif" font-size="10.00">N003_CREATE_CHARTER</text>
</g>
<!-- N004_CREATE_DOMAIN_MODEL -->
<g id="node5" class="node">
<title>N004_CREATE_DOMAIN_MODEL</title>
<path fill="#f8fafc" stroke="#475569" stroke-width="1.2" d="M890.5,-134C890.5,-134 732.5,-134 732.5,-134 726.5,-134 720.5,-128 720.5,-122 720.5,-122 720.5,-106 720.5,-106 720.5,-100 726.5,-94 732.5,-94 732.5,-94 890.5,-94 890.5,-94 896.5,-94 902.5,-100 902.5,-106 902.5,-106 902.5,-122 902.5,-122 902.5,-128 896.5,-134 890.5,-134"/>
<text text-anchor="middle" x="811.5" y="-117" font-family="Helvetica,sans-Serif" font-size="10.00">N004_CREATE_DOMAIN_MODEL</text>
<text text-anchor="middle" x="811.5" y="-106" font-family="Helvetica,sans-Serif" font-size="10.00">N004_CREATE_DOMAIN_MODEL</text>
</g>
<!-- N005_CREATE_BACKLOG -->
<g id="node6" class="node">
<title>N005_CREATE_BACKLOG</title>
<path fill="#f8fafc" stroke="#475569" stroke-width="1.2" d="M1078,-134C1078,-134 955,-134 955,-134 949,-134 943,-128 943,-122 943,-122 943,-106 943,-106 943,-100 949,-94 955,-94 955,-94 1078,-94 1078,-94 1084,-94 1090,-100 1090,-106 1090,-106 1090,-122 1090,-122 1090,-128 1084,-134 1078,-134"/>
<text text-anchor="middle" x="1016.5" y="-117" font-family="Helvetica,sans-Serif" font-size="10.00">N005_CREATE_BACKLOG</text>
<text text-anchor="middle" x="1016.5" y="-106" font-family="Helvetica,sans-Serif" font-size="10.00">N005_CREATE_BACKLOG</text>
</g>
<!-- N006_VALIDATE_EPIC_01 -->
<g id="node7" class="node">
<title>N006_VALIDATE_EPIC_01</title>
<path fill="#f8fafc" stroke="#475569" stroke-width="1.2" d="M1266.5,-134C1266.5,-134 1142.5,-134 1142.5,-134 1136.5,-134 1130.5,-128 1130.5,-122 1130.5,-122 1130.5,-106 1130.5,-106 1130.5,-100 1136.5,-94 1142.5,-94 1142.5,-94 1266.5,-94 1266.5,-94 1272.5,-94 1278.5,-100 1278.5,-106 1278.5,-106 1278.5,-122 1278.5,-122 1278.5,-128 1272.5,-134 1266.5,-134"/>
<text text-anchor="middle" x="1204.5" y="-117" font-family="Helvetica,sans-Serif" font-size="10.00">N006_VALIDATE_EPIC_01</text>
<text text-anchor="middle" x="1204.5" y="-106" font-family="Helvetica,sans-Serif" font-size="10.00">N006_VALIDATE_EPIC_01</text>
</g>
<!-- N007_ACTIVATE_EPIC_02 -->
<g id="node8" class="node">
<title>N007_ACTIVATE_EPIC_02</title>
<path fill="#f8fafc" stroke="#475569" stroke-width="1.2" d="M1696.5,-134C1696.5,-134 1330.5,-134 1330.5,-134 1324.5,-134 1318.5,-128 1318.5,-122 1318.5,-122 1318.5,-106 1318.5,-106 1318.5,-100 1324.5,-94 1330.5,-94 1330.5,-94 1696.5,-94 1696.5,-94 1702.5,-94 1708.5,-100 1708.5,-106 1708.5,-106 1708.5,-122 1708.5,-122 1708.5,-128 1702.5,-134 1696.5,-134"/>
<text text-anchor="middle" x="1513.5" y="-117" font-family="Helvetica,sans-Serif" font-size="10.00">N007_ACTIVATE_EPIC_02</text>
<text text-anchor="middle" x="1513.5" y="-106" font-family="Helvetica,sans-Serif" font-size="10.00">Confirm Epic 02 authoring scope and preserve completed Epic 01 artifacts.</text>
</g>
<!-- N008_DEFINE_TASK_CLASSES -->
<g id="node9" class="node">
<title>N008_DEFINE_TASK_CLASSES</title>
<path fill="#f8fafc" stroke="#475569" stroke-width="1.2" d="M1908.5,-134C1908.5,-134 1760.5,-134 1760.5,-134 1754.5,-134 1748.5,-128 1748.5,-122 1748.5,-122 1748.5,-106 1748.5,-106 1748.5,-100 1754.5,-94 1760.5,-94 1760.5,-94 1908.5,-94 1908.5,-94 1914.5,-94 1920.5,-100 1920.5,-106 1920.5,-106 1920.5,-122 1920.5,-122 1920.5,-128 1914.5,-134 1908.5,-134"/>
<text text-anchor="middle" x="1834.5" y="-117" font-family="Helvetica,sans-Serif" font-size="10.00">N008_DEFINE_TASK_CLASSES</text>
<text text-anchor="middle" x="1834.5" y="-106" font-family="Helvetica,sans-Serif" font-size="10.00">N008_DEFINE_TASK_CLASSES</text>
</g>
<!-- N009_DEFINE_TEST_CASE_INTAKE -->
<g id="node10" class="node">
<title>N009_DEFINE_TEST_CASE_INTAKE</title>
<path fill="#f8fafc" stroke="#475569" stroke-width="1.2" d="M2142.5,-134C2142.5,-134 1972.5,-134 1972.5,-134 1966.5,-134 1960.5,-128 1960.5,-122 1960.5,-122 1960.5,-106 1960.5,-106 1960.5,-100 1966.5,-94 1972.5,-94 1972.5,-94 2142.5,-94 2142.5,-94 2148.5,-94 2154.5,-100 2154.5,-106 2154.5,-106 2154.5,-122 2154.5,-122 2154.5,-128 2148.5,-134 2142.5,-134"/>
<text text-anchor="middle" x="2057.5" y="-117" font-family="Helvetica,sans-Serif" font-size="10.00">N009_DEFINE_TEST_CASE_INTAKE</text>
<text text-anchor="middle" x="2057.5" y="-106" font-family="Helvetica,sans-Serif" font-size="10.00">N009_DEFINE_TEST_CASE_INTAKE</text>
</g>
<!-- N010_DEFINE_TEST_CASE_PACKAGE -->
<g id="node11" class="node">
<title>N010_DEFINE_TEST_CASE_PACKAGE</title>
<path fill="#f8fafc" stroke="#475569" stroke-width="1.2" d="M2386.5,-134C2386.5,-134 2206.5,-134 2206.5,-134 2200.5,-134 2194.5,-128 2194.5,-122 2194.5,-122 2194.5,-106 2194.5,-106 2194.5,-100 2200.5,-94 2206.5,-94 2206.5,-94 2386.5,-94 2386.5,-94 2392.5,-94 2398.5,-100 2398.5,-106 2398.5,-106 2398.5,-122 2398.5,-122 2398.5,-128 2392.5,-134 2386.5,-134"/>
<text text-anchor="middle" x="2296.5" y="-117" font-family="Helvetica,sans-Serif" font-size="10.00">N010_DEFINE_TEST_CASE_PACKAGE</text>
<text text-anchor="middle" x="2296.5" y="-106" font-family="Helvetica,sans-Serif" font-size="10.00">N010_DEFINE_TEST_CASE_PACKAGE</text>
</g>
<!-- N011_VALIDATE_EPIC_02 -->
<g id="node12" class="node">
<title>N011_VALIDATE_EPIC_02</title>
<path fill="#f8fafc" stroke="#475569" stroke-width="1.2" d="M2574.5,-134C2574.5,-134 2450.5,-134 2450.5,-134 2444.5,-134 2438.5,-128 2438.5,-122 2438.5,-122 2438.5,-106 2438.5,-106 2438.5,-100 2444.5,-94 2450.5,-94 2450.5,-94 2574.5,-94 2574.5,-94 2580.5,-94 2586.5,-100 2586.5,-106 2586.5,-106 2586.5,-122 2586.5,-122 2586.5,-128 2580.5,-134 2574.5,-134"/>
<text text-anchor="middle" x="2512.5" y="-117" font-family="Helvetica,sans-Serif" font-size="10.00">N011_VALIDATE_EPIC_02</text>
<text text-anchor="middle" x="2512.5" y="-106" font-family="Helvetica,sans-Serif" font-size="10.00">N011_VALIDATE_EPIC_02</text>
</g>
<!-- N012_ACTIVATE_EPIC_03 -->
<g id="node13" class="node">
<title>N012_ACTIVATE_EPIC_03</title>
<path fill="#f8fafc" stroke="#475569" stroke-width="1.2" d="M3010,-134C3010,-134 2639,-134 2639,-134 2633,-134 2627,-128 2627,-122 2627,-122 2627,-106 2627,-106 2627,-100 2633,-94 2639,-94 2639,-94 3010,-94 3010,-94 3016,-94 3022,-100 3022,-106 3022,-106 3022,-122 3022,-122 3022,-128 3016,-134 3010,-134"/>
<text text-anchor="middle" x="2824.5" y="-117" font-family="Helvetica,sans-Serif" font-size="10.00">N012_ACTIVATE_EPIC_03</text>
<text text-anchor="middle" x="2824.5" y="-106" font-family="Helvetica,sans-Serif" font-size="10.00">Confirm Epic 03 authoring scope and preserve completed Epic 01&#45;02 nodes.</text>
</g>
<!-- N013_DEFINE_CANONICAL_RUNS -->
<g id="node14" class="node">
<title>N013_DEFINE_CANONICAL_RUNS</title>
<path fill="#f8fafc" stroke="#475569" stroke-width="1.2" d="M3239,-134C3239,-134 3074,-134 3074,-134 3068,-134 3062,-128 3062,-122 3062,-122 3062,-106 3062,-106 3062,-100 3068,-94 3074,-94 3074,-94 3239,-94 3239,-94 3245,-94 3251,-100 3251,-106 3251,-106 3251,-122 3251,-122 3251,-128 3245,-134 3239,-134"/>
<text text-anchor="middle" x="3156.5" y="-117" font-family="Helvetica,sans-Serif" font-size="10.00">N013_DEFINE_CANONICAL_RUNS</text>
<text text-anchor="middle" x="3156.5" y="-106" font-family="Helvetica,sans-Serif" font-size="10.00">N013_DEFINE_CANONICAL_RUNS</text>
</g>
<!-- N014_DEFINE_RUN_EXTENSIBILITY -->
<g id="node15" class="node">
<title>N014_DEFINE_RUN_EXTENSIBILITY</title>
<path fill="#f8fafc" stroke="#475569" stroke-width="1.2" d="M3476,-134C3476,-134 3303,-134 3303,-134 3297,-134 3291,-128 3291,-122 3291,-122 3291,-106 3291,-106 3291,-100 3297,-94 3303,-94 3303,-94 3476,-94 3476,-94 3482,-94 3488,-100 3488,-106 3488,-106 3488,-122 3488,-122 3488,-128 3482,-134 3476,-134"/>
<text text-anchor="middle" x="3389.5" y="-117" font-family="Helvetica,sans-Serif" font-size="10.00">N014_DEFINE_RUN_EXTENSIBILITY</text>
<text text-anchor="middle" x="3389.5" y="-106" font-family="Helvetica,sans-Serif" font-size="10.00">N014_DEFINE_RUN_EXTENSIBILITY</text>
</g>
<!-- N015_VALIDATE_EPIC_03 -->
<g id="node16" class="node">
<title>N015_VALIDATE_EPIC_03</title>
<path fill="#f8fafc" stroke="#475569" stroke-width="1.2" d="M3664.5,-134C3664.5,-134 3540.5,-134 3540.5,-134 3534.5,-134 3528.5,-128 3528.5,-122 3528.5,-122 3528.5,-106 3528.5,-106 3528.5,-100 3534.5,-94 3540.5,-94 3540.5,-94 3664.5,-94 3664.5,-94 3670.5,-94 3676.5,-100 3676.5,-106 3676.5,-106 3676.5,-122 3676.5,-122 3676.5,-128 3670.5,-134 3664.5,-134"/>
<text text-anchor="middle" x="3602.5" y="-117" font-family="Helvetica,sans-Serif" font-size="10.00">N015_VALIDATE_EPIC_03</text>
<text text-anchor="middle" x="3602.5" y="-106" font-family="Helvetica,sans-Serif" font-size="10.00">N015_VALIDATE_EPIC_03</text>
</g>
<!-- N016_ACTIVATE_EPIC_04 -->
<g id="node17" class="node">
<title>N016_ACTIVATE_EPIC_04</title>
<path fill="#f8fafc" stroke="#475569" stroke-width="1.2" d="M4128,-134C4128,-134 3729,-134 3729,-134 3723,-134 3717,-128 3717,-122 3717,-122 3717,-106 3717,-106 3717,-100 3723,-94 3729,-94 3729,-94 4128,-94 4128,-94 4134,-94 4140,-100 4140,-106 4140,-106 4140,-122 4140,-122 4140,-128 4134,-134 4128,-134"/>
<text text-anchor="middle" x="3928.5" y="-117" font-family="Helvetica,sans-Serif" font-size="10.00">N016_ACTIVATE_EPIC_04</text>
<text text-anchor="middle" x="3928.5" y="-106" font-family="Helvetica,sans-Serif" font-size="10.00">Confirm Epic 04 package&#45;variant authoring scope and preserve completed Epic …</text>
</g>
<!-- N017_DEFINE_VARIANT_REGISTRY -->
<g id="node18" class="node">
<title>N017_DEFINE_VARIANT_REGISTRY</title>
<path fill="#f8fafc" stroke="#475569" stroke-width="1.2" d="M4362.5,-134C4362.5,-134 4192.5,-134 4192.5,-134 4186.5,-134 4180.5,-128 4180.5,-122 4180.5,-122 4180.5,-106 4180.5,-106 4180.5,-100 4186.5,-94 4192.5,-94 4192.5,-94 4362.5,-94 4362.5,-94 4368.5,-94 4374.5,-100 4374.5,-106 4374.5,-106 4374.5,-122 4374.5,-122 4374.5,-128 4368.5,-134 4362.5,-134"/>
<text text-anchor="middle" x="4277.5" y="-117" font-family="Helvetica,sans-Serif" font-size="10.00">N017_DEFINE_VARIANT_REGISTRY</text>
<text text-anchor="middle" x="4277.5" y="-106" font-family="Helvetica,sans-Serif" font-size="10.00">N017_DEFINE_VARIANT_REGISTRY</text>
</g>
<!-- N018_DEFINE_YAML_COMPILER -->
<g id="node19" class="node">
<title>N018_DEFINE_YAML_COMPILER</title>
<path fill="#f8fafc" stroke="#475569" stroke-width="1.2" d="M4582.5,-134C4582.5,-134 4426.5,-134 4426.5,-134 4420.5,-134 4414.5,-128 4414.5,-122 4414.5,-122 4414.5,-106 4414.5,-106 4414.5,-100 4420.5,-94 4426.5,-94 4426.5,-94 4582.5,-94 4582.5,-94 4588.5,-94 4594.5,-100 4594.5,-106 4594.5,-106 4594.5,-122 4594.5,-122 4594.5,-128 4588.5,-134 4582.5,-134"/>
<text text-anchor="middle" x="4504.5" y="-117" font-family="Helvetica,sans-Serif" font-size="10.00">N018_DEFINE_YAML_COMPILER</text>
<text text-anchor="middle" x="4504.5" y="-106" font-family="Helvetica,sans-Serif" font-size="10.00">N018_DEFINE_YAML_COMPILER</text>
</g>
<!-- N019_DEFINE_STRUCTURED_COMPILER -->
<g id="node20" class="node">
<title>N019_DEFINE_STRUCTURED_COMPILER</title>
<path fill="#f8fafc" stroke="#475569" stroke-width="1.2" d="M4844,-134C4844,-134 4647,-134 4647,-134 4641,-134 4635,-128 4635,-122 4635,-122 4635,-106 4635,-106 4635,-100 4641,-94 4647,-94 4647,-94 4844,-94 4844,-94 4850,-94 4856,-100 4856,-106 4856,-106 4856,-122 4856,-122 4856,-128 4850,-134 4844,-134"/>
<text text-anchor="middle" x="4745.5" y="-117" font-family="Helvetica,sans-Serif" font-size="10.00">N019_DEFINE_STRUCTURED_COMPILER</text>
<text text-anchor="middle" x="4745.5" y="-106" font-family="Helvetica,sans-Serif" font-size="10.00">N019_DEFINE_STRUCTURED_COMPILER</text>
</g>
<!-- N020_DEFINE_HISTORICAL_COMPILER -->
<g id="node21" class="node">
<title>N020_DEFINE_HISTORICAL_COMPILER</title>
<path fill="#f8fafc" stroke="#475569" stroke-width="1.2" d="M5097,-134C5097,-134 4908,-134 4908,-134 4902,-134 4896,-128 4896,-122 4896,-122 4896,-106 4896,-106 4896,-100 4902,-94 4908,-94 4908,-94 5097,-94 5097,-94 5103,-94 5109,-100 5109,-106 5109,-106 5109,-122 5109,-122 5109,-128 5103,-134 5097,-134"/>
<text text-anchor="middle" x="5002.5" y="-117" font-family="Helvetica,sans-Serif" font-size="10.00">N020_DEFINE_HISTORICAL_COMPILER</text>
<text text-anchor="middle" x="5002.5" y="-106" font-family="Helvetica,sans-Serif" font-size="10.00">N020_DEFINE_HISTORICAL_COMPILER</text>
</g>
<!-- N021_DEFINE_DIRECT_ADAPTATION -->
<g id="node22" class="node">
<title>N021_DEFINE_DIRECT_ADAPTATION</title>
<path fill="#f8fafc" stroke="#475569" stroke-width="1.2" d="M5339.5,-134C5339.5,-134 5161.5,-134 5161.5,-134 5155.5,-134 5149.5,-128 5149.5,-122 5149.5,-122 5149.5,-106 5149.5,-106 5149.5,-100 5155.5,-94 5161.5,-94 5161.5,-94 5339.5,-94 5339.5,-94 5345.5,-94 5351.5,-100 5351.5,-106 5351.5,-106 5351.5,-122 5351.5,-122 5351.5,-128 5345.5,-134 5339.5,-134"/>
<text text-anchor="middle" x="5250.5" y="-117" font-family="Helvetica,sans-Serif" font-size="10.00">N021_DEFINE_DIRECT_ADAPTATION</text>
<text text-anchor="middle" x="5250.5" y="-106" font-family="Helvetica,sans-Serif" font-size="10.00">N021_DEFINE_DIRECT_ADAPTATION</text>
</g>
<!-- N022_VALIDATE_EPIC_04 -->
<g id="node23" class="node">
<title>N022_VALIDATE_EPIC_04</title>
<path fill="#f8fafc" stroke="#475569" stroke-width="1.2" d="M5527.5,-134C5527.5,-134 5403.5,-134 5403.5,-134 5397.5,-134 5391.5,-128 5391.5,-122 5391.5,-122 5391.5,-106 5391.5,-106 5391.5,-100 5397.5,-94 5403.5,-94 5403.5,-94 5527.5,-94 5527.5,-94 5533.5,-94 5539.5,-100 5539.5,-106 5539.5,-106 5539.5,-122 5539.5,-122 5539.5,-128 5533.5,-134 5527.5,-134"/>
<text text-anchor="middle" x="5465.5" y="-117" font-family="Helvetica,sans-Serif" font-size="10.00">N022_VALIDATE_EPIC_04</text>
<text text-anchor="middle" x="5465.5" y="-106" font-family="Helvetica,sans-Serif" font-size="10.00">N022_VALIDATE_EPIC_04</text>
</g>
<!-- N023_ACTIVATE_EPIC_05 -->
<g id="node24" class="node">
<title>N023_ACTIVATE_EPIC_05</title>
<path fill="#f8fafc" stroke="#475569" stroke-width="1.2" d="M5987.5,-134C5987.5,-134 5591.5,-134 5591.5,-134 5585.5,-134 5579.5,-128 5579.5,-122 5579.5,-122 5579.5,-106 5579.5,-106 5579.5,-100 5585.5,-94 5591.5,-94 5591.5,-94 5987.5,-94 5987.5,-94 5993.5,-94 5999.5,-100 5999.5,-106 5999.5,-106 5999.5,-122 5999.5,-122 5999.5,-128 5993.5,-134 5987.5,-134"/>
<text text-anchor="middle" x="5789.5" y="-117" font-family="Helvetica,sans-Serif" font-size="10.00">N023_ACTIVATE_EPIC_05</text>
<text text-anchor="middle" x="5789.5" y="-106" font-family="Helvetica,sans-Serif" font-size="10.00">Confirm Epic 05 blind&#45;execution architecture scope and preserve completed Ep…</text>
</g>
<!-- N024_DEFINE_STEP_BOUND_DRIVER -->
<g id="node25" class="node">
<title>N024_DEFINE_STEP_BOUND_DRIVER</title>
<path fill="#f8fafc" stroke="#475569" stroke-width="1.2" d="M6235,-134C6235,-134 6052,-134 6052,-134 6046,-134 6040,-128 6040,-122 6040,-122 6040,-106 6040,-106 6040,-100 6046,-94 6052,-94 6052,-94 6235,-94 6235,-94 6241,-94 6247,-100 6247,-106 6247,-106 6247,-122 6247,-122 6247,-128 6241,-134 6235,-134"/>
<text text-anchor="middle" x="6143.5" y="-117" font-family="Helvetica,sans-Serif" font-size="10.00">N024_DEFINE_STEP_BOUND_DRIVER</text>
<text text-anchor="middle" x="6143.5" y="-106" font-family="Helvetica,sans-Serif" font-size="10.00">N024_DEFINE_STEP_BOUND_DRIVER</text>
</g>
<!-- N025_DEFINE_ADAPTIVE_SEMANTIC_DRIVER -->
<g id="node26" class="node">
<title>N025_DEFINE_ADAPTIVE_SEMANTIC_DRIVER</title>
<path fill="#f8fafc" stroke="#475569" stroke-width="1.2" d="M6521.5,-134C6521.5,-134 6299.5,-134 6299.5,-134 6293.5,-134 6287.5,-128 6287.5,-122 6287.5,-122 6287.5,-106 6287.5,-106 6287.5,-100 6293.5,-94 6299.5,-94 6299.5,-94 6521.5,-94 6521.5,-94 6527.5,-94 6533.5,-100 6533.5,-106 6533.5,-106 6533.5,-122 6533.5,-122 6533.5,-128 6527.5,-134 6521.5,-134"/>
<text text-anchor="middle" x="6410.5" y="-117" font-family="Helvetica,sans-Serif" font-size="10.00">N025_DEFINE_ADAPTIVE_SEMANTIC_DRIVER</text>
<text text-anchor="middle" x="6410.5" y="-106" font-family="Helvetica,sans-Serif" font-size="10.00">N025_DEFINE_ADAPTIVE_SEMANTIC_DRIVER</text>
</g>
<!-- N026_DEFINE_DRIVER_SELECTION_AND_ISOLATION -->
<g id="node27" class="node">
<title>N026_DEFINE_DRIVER_SELECTION_AND_ISOLATION</title>
<path fill="#f8fafc" stroke="#475569" stroke-width="1.2" d="M6841,-134C6841,-134 6586,-134 6586,-134 6580,-134 6574,-128 6574,-122 6574,-122 6574,-106 6574,-106 6574,-100 6580,-94 6586,-94 6586,-94 6841,-94 6841,-94 6847,-94 6853,-100 6853,-106 6853,-106 6853,-122 6853,-122 6853,-128 6847,-134 6841,-134"/>
<text text-anchor="middle" x="6713.5" y="-117" font-family="Helvetica,sans-Serif" font-size="10.00">N026_DEFINE_DRIVER_SELECTION_AND_ISOLATION</text>
<text text-anchor="middle" x="6713.5" y="-106" font-family="Helvetica,sans-Serif" font-size="10.00">N026_DEFINE_DRIVER_SELECTION_AND_ISOLATION</text>
</g>
<!-- N027_VALIDATE_EPIC_05 -->
<g id="node28" class="node">
<title>N027_VALIDATE_EPIC_05</title>
<path fill="#f8fafc" stroke="#475569" stroke-width="1.2" d="M7029.5,-134C7029.5,-134 6905.5,-134 6905.5,-134 6899.5,-134 6893.5,-128 6893.5,-122 6893.5,-122 6893.5,-106 6893.5,-106 6893.5,-100 6899.5,-94 6905.5,-94 6905.5,-94 7029.5,-94 7029.5,-94 7035.5,-94 7041.5,-100 7041.5,-106 7041.5,-106 7041.5,-122 7041.5,-122 7041.5,-128 7035.5,-134 7029.5,-134"/>
<text text-anchor="middle" x="6967.5" y="-117" font-family="Helvetica,sans-Serif" font-size="10.00">N027_VALIDATE_EPIC_05</text>
<text text-anchor="middle" x="6967.5" y="-106" font-family="Helvetica,sans-Serif" font-size="10.00">N027_VALIDATE_EPIC_05</text>
</g>
<!-- N028_DEFINE_UNIVERSAL_LAUNCH_PROTOCOL -->
<g id="node29" class="node">
<title>N028_DEFINE_UNIVERSAL_LAUNCH_PROTOCOL</title>
<path fill="#f8fafc" stroke="#475569" stroke-width="1.2" d="M7331,-134C7331,-134 7094,-134 7094,-134 7088,-134 7082,-128 7082,-122 7082,-122 7082,-106 7082,-106 7082,-100 7088,-94 7094,-94 7094,-94 7331,-94 7331,-94 7337,-94 7343,-100 7343,-106 7343,-106 7343,-122 7343,-122 7343,-128 7337,-134 7331,-134"/>
<text text-anchor="middle" x="7212.5" y="-117" font-family="Helvetica,sans-Serif" font-size="10.00">N028_DEFINE_UNIVERSAL_LAUNCH_PROTOCOL</text>
<text text-anchor="middle" x="7212.5" y="-106" font-family="Helvetica,sans-Serif" font-size="10.00">N028_DEFINE_UNIVERSAL_LAUNCH_PROTOCOL</text>
</g>
<!-- N029_DEFINE_PREFLIGHT_GATE -->
<g id="node30" class="node">
<title>N029_DEFINE_PREFLIGHT_GATE</title>
<path fill="#f8fafc" stroke="#475569" stroke-width="1.2" d="M7554,-134C7554,-134 7395,-134 7395,-134 7389,-134 7383,-128 7383,-122 7383,-122 7383,-106 7383,-106 7383,-100 7389,-94 7395,-94 7395,-94 7554,-94 7554,-94 7560,-94 7566,-100 7566,-106 7566,-106 7566,-122 7566,-122 7566,-128 7560,-134 7554,-134"/>
<text text-anchor="middle" x="7474.5" y="-117" font-family="Helvetica,sans-Serif" font-size="10.00">N029_DEFINE_PREFLIGHT_GATE</text>
<text text-anchor="middle" x="7474.5" y="-106" font-family="Helvetica,sans-Serif" font-size="10.00">N029_DEFINE_PREFLIGHT_GATE</text>
</g>
<!-- N030_DEFINE_EXECUTION_LOGGING -->
<g id="node31" class="node">
<title>N030_DEFINE_EXECUTION_LOGGING</title>
<path fill="#f8fafc" stroke="#475569" stroke-width="1.2" d="M7801,-134C7801,-134 7618,-134 7618,-134 7612,-134 7606,-128 7606,-122 7606,-122 7606,-106 7606,-106 7606,-100 7612,-94 7618,-94 7618,-94 7801,-94 7801,-94 7807,-94 7813,-100 7813,-106 7813,-106 7813,-122 7813,-122 7813,-128 7807,-134 7801,-134"/>
<text text-anchor="middle" x="7709.5" y="-117" font-family="Helvetica,sans-Serif" font-size="10.00">N030_DEFINE_EXECUTION_LOGGING</text>
<text text-anchor="middle" x="7709.5" y="-106" font-family="Helvetica,sans-Serif" font-size="10.00">N030_DEFINE_EXECUTION_LOGGING</text>
</g>
<!-- N031_DEFINE_TERMINAL_HANDLING -->
<g id="node32" class="node">
<title>N031_DEFINE_TERMINAL_HANDLING</title>
<path fill="#f8fafc" stroke="#475569" stroke-width="1.2" d="M8048,-134C8048,-134 7865,-134 7865,-134 7859,-134 7853,-128 7853,-122 7853,-122 7853,-106 7853,-106 7853,-100 7859,-94 7865,-94 7865,-94 8048,-94 8048,-94 8054,-94 8060,-100 8060,-106 8060,-106 8060,-122 8060,-122 8060,-128 8054,-134 8048,-134"/>
<text text-anchor="middle" x="7956.5" y="-117" font-family="Helvetica,sans-Serif" font-size="10.00">N031_DEFINE_TERMINAL_HANDLING</text>
<text text-anchor="middle" x="7956.5" y="-106" font-family="Helvetica,sans-Serif" font-size="10.00">N031_DEFINE_TERMINAL_HANDLING</text>
</g>
<!-- N032_VALIDATE_EPIC_06 -->
<g id="node33" class="node">
<title>N032_VALIDATE_EPIC_06</title>
<path fill="#f8fafc" stroke="#475569" stroke-width="1.2" d="M8236.5,-134C8236.5,-134 8112.5,-134 8112.5,-134 8106.5,-134 8100.5,-128 8100.5,-122 8100.5,-122 8100.5,-106 8100.5,-106 8100.5,-100 8106.5,-94 8112.5,-94 8112.5,-94 8236.5,-94 8236.5,-94 8242.5,-94 8248.5,-100 8248.5,-106 8248.5,-106 8248.5,-122 8248.5,-122 8248.5,-128 8242.5,-134 8236.5,-134"/>
<text text-anchor="middle" x="8174.5" y="-117" font-family="Helvetica,sans-Serif" font-size="10.00">N032_VALIDATE_EPIC_06</text>
<text text-anchor="middle" x="8174.5" y="-106" font-family="Helvetica,sans-Serif" font-size="10.00">N032_VALIDATE_EPIC_06</text>
</g>
<!-- N033_ACTIVATE_EPIC_07 -->
<g id="node34" class="node">
<title>N033_ACTIVATE_EPIC_07</title>
<path fill="#f8fafc" stroke="#475569" stroke-width="1.2" d="M8660,-134C8660,-134 8301,-134 8301,-134 8295,-134 8289,-128 8289,-122 8289,-122 8289,-106 8289,-106 8289,-100 8295,-94 8301,-94 8301,-94 8660,-94 8660,-94 8666,-94 8672,-100 8672,-106 8672,-106 8672,-122 8672,-122 8672,-128 8666,-134 8660,-134"/>
<text text-anchor="middle" x="8480.5" y="-117" font-family="Helvetica,sans-Serif" font-size="10.00">N033_ACTIVATE_EPIC_07</text>
<text text-anchor="middle" x="8480.5" y="-106" font-family="Helvetica,sans-Serif" font-size="10.00">Confirm Epic 07 process&#45;validation scope and preserve Epic 01&#45;06 nodes.</text>
</g>
<!-- N034_DEFINE_PROCESS_QUALITY_CONTRACT -->
<g id="node35" class="node">
<title>N034_DEFINE_PROCESS_QUALITY_CONTRACT</title>
<path fill="#f8fafc" stroke="#475569" stroke-width="1.2" d="M8949.5,-134C8949.5,-134 8723.5,-134 8723.5,-134 8717.5,-134 8711.5,-128 8711.5,-122 8711.5,-122 8711.5,-106 8711.5,-106 8711.5,-100 8717.5,-94 8723.5,-94 8723.5,-94 8949.5,-94 8949.5,-94 8955.5,-94 8961.5,-100 8961.5,-106 8961.5,-106 8961.5,-122 8961.5,-122 8961.5,-128 8955.5,-134 8949.5,-134"/>
<text text-anchor="middle" x="8836.5" y="-117" font-family="Helvetica,sans-Serif" font-size="10.00">N034_DEFINE_PROCESS_QUALITY_CONTRACT</text>
<text text-anchor="middle" x="8836.5" y="-106" font-family="Helvetica,sans-Serif" font-size="10.00">N034_DEFINE_PROCESS_QUALITY_CONTRACT</text>
</g>
<!-- N035_DEFINE_PROCESS_FAILURE_CAPS -->
<g id="node36" class="node">
<title>N035_DEFINE_PROCESS_FAILURE_CAPS</title>
<path fill="#f8fafc" stroke="#475569" stroke-width="1.2" d="M9209,-134C9209,-134 9014,-134 9014,-134 9008,-134 9002,-128 9002,-122 9002,-122 9002,-106 9002,-106 9002,-100 9008,-94 9014,-94 9014,-94 9209,-94 9209,-94 9215,-94 9221,-100 9221,-106 9221,-106 9221,-122 9221,-122 9221,-128 9215,-134 9209,-134"/>
<text text-anchor="middle" x="9111.5" y="-117" font-family="Helvetica,sans-Serif" font-size="10.00">N035_DEFINE_PROCESS_FAILURE_CAPS</text>
<text text-anchor="middle" x="9111.5" y="-106" font-family="Helvetica,sans-Serif" font-size="10.00">N035_DEFINE_PROCESS_FAILURE_CAPS</text>
</g>
<!-- N036_VALIDATE_EPIC_07 -->
<g id="node37" class="node">
<title>N036_VALIDATE_EPIC_07</title>
<path fill="#f8fafc" stroke="#475569" stroke-width="1.2" d="M9397.5,-134C9397.5,-134 9273.5,-134 9273.5,-134 9267.5,-134 9261.5,-128 9261.5,-122 9261.5,-122 9261.5,-106 9261.5,-106 9261.5,-100 9267.5,-94 9273.5,-94 9273.5,-94 9397.5,-94 9397.5,-94 9403.5,-94 9409.5,-100 9409.5,-106 9409.5,-106 9409.5,-122 9409.5,-122 9409.5,-128 9403.5,-134 9397.5,-134"/>
<text text-anchor="middle" x="9335.5" y="-117" font-family="Helvetica,sans-Serif" font-size="10.00">N036_VALIDATE_EPIC_07</text>
<text text-anchor="middle" x="9335.5" y="-106" font-family="Helvetica,sans-Serif" font-size="10.00">N036_VALIDATE_EPIC_07</text>
</g>
<!-- N037_ACTIVATE_EPIC_08 -->
<g id="node38" class="node">
<title>N037_ACTIVATE_EPIC_08</title>
<path fill="#f8fafc" stroke="#475569" stroke-width="1.2" d="M9585.5,-134C9585.5,-134 9461.5,-134 9461.5,-134 9455.5,-134 9449.5,-128 9449.5,-122 9449.5,-122 9449.5,-106 9449.5,-106 9449.5,-100 9455.5,-94 9461.5,-94 9461.5,-94 9585.5,-94 9585.5,-94 9591.5,-94 9597.5,-100 9597.5,-106 9597.5,-106 9597.5,-122 9597.5,-122 9597.5,-128 9591.5,-134 9585.5,-134"/>
<text text-anchor="middle" x="9523.5" y="-117" font-family="Helvetica,sans-Serif" font-size="10.00">N037_ACTIVATE_EPIC_08</text>
<text text-anchor="middle" x="9523.5" y="-106" font-family="Helvetica,sans-Serif" font-size="10.00">N037_ACTIVATE_EPIC_08</text>
</g>
<!-- N038_DEFINE_DOCUMENT_CONTRACT_REGISTRY -->
<g id="node39" class="node">
<title>N038_DEFINE_DOCUMENT_CONTRACT_REGISTRY</title>
<path fill="#f8fafc" stroke="#475569" stroke-width="1.2" d="M9893.5,-134C9893.5,-134 9649.5,-134 9649.5,-134 9643.5,-134 9637.5,-128 9637.5,-122 9637.5,-122 9637.5,-106 9637.5,-106 9637.5,-100 9643.5,-94 9649.5,-94 9649.5,-94 9893.5,-94 9893.5,-94 9899.5,-94 9905.5,-100 9905.5,-106 9905.5,-106 9905.5,-122 9905.5,-122 9905.5,-128 9899.5,-134 9893.5,-134"/>
<text text-anchor="middle" x="9771.5" y="-117" font-family="Helvetica,sans-Serif" font-size="10.00">N038_DEFINE_DOCUMENT_CONTRACT_REGISTRY</text>
<text text-anchor="middle" x="9771.5" y="-106" font-family="Helvetica,sans-Serif" font-size="10.00">N038_DEFINE_DOCUMENT_CONTRACT_REGISTRY</text>
</g>
<!-- N039_DEFINE_ARTIFACT_SPECIFIC_RULES -->
<g id="node40" class="node">
<title>N039_DEFINE_ARTIFACT_SPECIFIC_RULES</title>
<path fill="#f8fafc" stroke="#475569" stroke-width="1.2" d="M10163.5,-134C10163.5,-134 9957.5,-134 9957.5,-134 9951.5,-134 9945.5,-128 9945.5,-122 9945.5,-122 9945.5,-106 9945.5,-106 9945.5,-100 9951.5,-94 9957.5,-94 9957.5,-94 10163.5,-94 10163.5,-94 10169.5,-94 10175.5,-100 10175.5,-106 10175.5,-106 10175.5,-122 10175.5,-122 10175.5,-128 10169.5,-134 10163.5,-134"/>
<text text-anchor="middle" x="10060.5" y="-117" font-family="Helvetica,sans-Serif" font-size="10.00">N039_DEFINE_ARTIFACT_SPECIFIC_RULES</text>
<text text-anchor="middle" x="10060.5" y="-106" font-family="Helvetica,sans-Serif" font-size="10.00">N039_DEFINE_ARTIFACT_SPECIFIC_RULES</text>
</g>
<!-- N040_DEFINE_DOCUMENT_FAILURE_CAPS -->
<g id="node41" class="node">
<title>N040_DEFINE_DOCUMENT_FAILURE_CAPS</title>
<path fill="#f8fafc" stroke="#475569" stroke-width="1.2" d="M10435.5,-134C10435.5,-134 10227.5,-134 10227.5,-134 10221.5,-134 10215.5,-128 10215.5,-122 10215.5,-122 10215.5,-106 10215.5,-106 10215.5,-100 10221.5,-94 10227.5,-94 10227.5,-94 10435.5,-94 10435.5,-94 10441.5,-94 10447.5,-100 10447.5,-106 10447.5,-106 10447.5,-122 10447.5,-122 10447.5,-128 10441.5,-134 10435.5,-134"/>
<text text-anchor="middle" x="10331.5" y="-117" font-family="Helvetica,sans-Serif" font-size="10.00">N040_DEFINE_DOCUMENT_FAILURE_CAPS</text>
<text text-anchor="middle" x="10331.5" y="-106" font-family="Helvetica,sans-Serif" font-size="10.00">N040_DEFINE_DOCUMENT_FAILURE_CAPS</text>
</g>
<!-- N041_DEFINE_FOCUSED_ARTIFACT_REVIEW -->
<g id="node42" class="node">
<title>N041_DEFINE_FOCUSED_ARTIFACT_REVIEW</title>
<path fill="#f8fafc" stroke="#475569" stroke-width="1.2" d="M10715.5,-134C10715.5,-134 10499.5,-134 10499.5,-134 10493.5,-134 10487.5,-128 10487.5,-122 10487.5,-122 10487.5,-106 10487.5,-106 10487.5,-100 10493.5,-94 10499.5,-94 10499.5,-94 10715.5,-94 10715.5,-94 10721.5,-94 10727.5,-100 10727.5,-106 10727.5,-106 10727.5,-122 10727.5,-122 10727.5,-128 10721.5,-134 10715.5,-134"/>
<text text-anchor="middle" x="10607.5" y="-117" font-family="Helvetica,sans-Serif" font-size="10.00">N041_DEFINE_FOCUSED_ARTIFACT_REVIEW</text>
<text text-anchor="middle" x="10607.5" y="-106" font-family="Helvetica,sans-Serif" font-size="10.00">N041_DEFINE_FOCUSED_ARTIFACT_REVIEW</text>
</g>
<!-- N042_DEFINE_DOCUMENT_EVALUATION_REPORT -->
<g id="node43" class="node">
<title>N042_DEFINE_DOCUMENT_EVALUATION_REPORT</title>
<path fill="#f8fafc" stroke="#475569" stroke-width="1.2" d="M11023,-134C11023,-134 10780,-134 10780,-134 10774,-134 10768,-128 10768,-122 10768,-122 10768,-106 10768,-106 10768,-100 10774,-94 10780,-94 10780,-94 11023,-94 11023,-94 11029,-94 11035,-100 11035,-106 11035,-106 11035,-122 11035,-122 11035,-128 11029,-134 11023,-134"/>
<text text-anchor="middle" x="10901.5" y="-117" font-family="Helvetica,sans-Serif" font-size="10.00">N042_DEFINE_DOCUMENT_EVALUATION_REPORT</text>
<text text-anchor="middle" x="10901.5" y="-106" font-family="Helvetica,sans-Serif" font-size="10.00">N042_DEFINE_DOCUMENT_EVALUATION_REPORT</text>
</g>
<!-- N043_VALIDATE_EPIC_08 -->
<g id="node44" class="node">
<title>N043_VALIDATE_EPIC_08</title>
<path fill="#f8fafc" stroke="#475569" stroke-width="1.2" d="M11211.5,-134C11211.5,-134 11087.5,-134 11087.5,-134 11081.5,-134 11075.5,-128 11075.5,-122 11075.5,-122 11075.5,-106 11075.5,-106 11075.5,-100 11081.5,-94 11087.5,-94 11087.5,-94 11211.5,-94 11211.5,-94 11217.5,-94 11223.5,-100 11223.5,-106 11223.5,-106 11223.5,-122 11223.5,-122 11223.5,-128 11217.5,-134 11211.5,-134"/>
<text text-anchor="middle" x="11149.5" y="-117" font-family="Helvetica,sans-Serif" font-size="10.00">N043_VALIDATE_EPIC_08</text>
<text text-anchor="middle" x="11149.5" y="-106" font-family="Helvetica,sans-Serif" font-size="10.00">N043_VALIDATE_EPIC_08</text>
</g>
<!-- N044_ACTIVATE_EPIC_09 -->
<g id="node45" class="node">
<title>N044_ACTIVATE_EPIC_09</title>
<path fill="#f8fafc" stroke="#475569" stroke-width="1.2" d="M11399.5,-134C11399.5,-134 11275.5,-134 11275.5,-134 11269.5,-134 11263.5,-128 11263.5,-122 11263.5,-122 11263.5,-106 11263.5,-106 11263.5,-100 11269.5,-94 11275.5,-94 11275.5,-94 11399.5,-94 11399.5,-94 11405.5,-94 11411.5,-100 11411.5,-106 11411.5,-106 11411.5,-122 11411.5,-122 11411.5,-128 11405.5,-134 11399.5,-134"/>
<text text-anchor="middle" x="11337.5" y="-117" font-family="Helvetica,sans-Serif" font-size="10.00">N044_ACTIVATE_EPIC_09</text>
<text text-anchor="middle" x="11337.5" y="-106" font-family="Helvetica,sans-Serif" font-size="10.00">N044_ACTIVATE_EPIC_09</text>
</g>
<!-- N045_DEFINE_RESULT_REGISTRY -->
<g id="node46" class="node">
<title>N045_DEFINE_RESULT_REGISTRY</title>
<path fill="#f8fafc" stroke="#475569" stroke-width="1.2" d="M11627.5,-134C11627.5,-134 11463.5,-134 11463.5,-134 11457.5,-134 11451.5,-128 11451.5,-122 11451.5,-122 11451.5,-106 11451.5,-106 11451.5,-100 11457.5,-94 11463.5,-94 11463.5,-94 11627.5,-94 11627.5,-94 11633.5,-94 11639.5,-100 11639.5,-106 11639.5,-106 11639.5,-122 11639.5,-122 11639.5,-128 11633.5,-134 11627.5,-134"/>
<text text-anchor="middle" x="11545.5" y="-117" font-family="Helvetica,sans-Serif" font-size="10.00">N045_DEFINE_RESULT_REGISTRY</text>
<text text-anchor="middle" x="11545.5" y="-106" font-family="Helvetica,sans-Serif" font-size="10.00">N045_DEFINE_RESULT_REGISTRY</text>
</g>
<!-- N046_DEFINE_COMPARATIVE_MATRIX -->
<g id="node47" class="node">
<title>N046_DEFINE_COMPARATIVE_MATRIX</title>
<path fill="#f8fafc" stroke="#475569" stroke-width="1.2" d="M11879,-134C11879,-134 11692,-134 11692,-134 11686,-134 11680,-128 11680,-122 11680,-122 11680,-106 11680,-106 11680,-100 11686,-94 11692,-94 11692,-94 11879,-94 11879,-94 11885,-94 11891,-100 11891,-106 11891,-106 11891,-122 11891,-122 11891,-128 11885,-134 11879,-134"/>
<text text-anchor="middle" x="11785.5" y="-117" font-family="Helvetica,sans-Serif" font-size="10.00">N046_DEFINE_COMPARATIVE_MATRIX</text>
<text text-anchor="middle" x="11785.5" y="-106" font-family="Helvetica,sans-Serif" font-size="10.00">N046_DEFINE_COMPARATIVE_MATRIX</text>
</g>
<!-- N047_DEFINE_RESULT_UPDATE_RULES -->
<g id="node48" class="node">
<title>N047_DEFINE_RESULT_UPDATE_RULES</title>
<path fill="#f8fafc" stroke="#475569" stroke-width="1.2" d="M12135.5,-134C12135.5,-134 11943.5,-134 11943.5,-134 11937.5,-134 11931.5,-128 11931.5,-122 11931.5,-122 11931.5,-106 11931.5,-106 11931.5,-100 11937.5,-94 11943.5,-94 11943.5,-94 12135.5,-94 12135.5,-94 12141.5,-94 12147.5,-100 12147.5,-106 12147.5,-106 12147.5,-122 12147.5,-122 12147.5,-128 12141.5,-134 12135.5,-134"/>
<text text-anchor="middle" x="12039.5" y="-117" font-family="Helvetica,sans-Serif" font-size="10.00">N047_DEFINE_RESULT_UPDATE_RULES</text>
<text text-anchor="middle" x="12039.5" y="-106" font-family="Helvetica,sans-Serif" font-size="10.00">N047_DEFINE_RESULT_UPDATE_RULES</text>
</g>
<!-- N048_DEFINE_CROSS_VARIANT_COMPARISON -->
<g id="node49" class="node">
<title>N048_DEFINE_CROSS_VARIANT_COMPARISON</title>
<path fill="#f8fafc" stroke="#475569" stroke-width="1.2" d="M12427,-134C12427,-134 12200,-134 12200,-134 12194,-134 12188,-128 12188,-122 12188,-122 12188,-106 12188,-106 12188,-100 12194,-94 12200,-94 12200,-94 12427,-94 12427,-94 12433,-94 12439,-100 12439,-106 12439,-106 12439,-122 12439,-122 12439,-128 12433,-134 12427,-134"/>
<text text-anchor="middle" x="12313.5" y="-117" font-family="Helvetica,sans-Serif" font-size="10.00">N048_DEFINE_CROSS_VARIANT_COMPARISON</text>
<text text-anchor="middle" x="12313.5" y="-106" font-family="Helvetica,sans-Serif" font-size="10.00">N048_DEFINE_CROSS_VARIANT_COMPARISON</text>
</g>
<!-- N049_VALIDATE_EPIC_09 -->
<g id="node50" class="node">
<title>N049_VALIDATE_EPIC_09</title>
<path fill="#f8fafc" stroke="#475569" stroke-width="1.2" d="M12615.5,-134C12615.5,-134 12491.5,-134 12491.5,-134 12485.5,-134 12479.5,-128 12479.5,-122 12479.5,-122 12479.5,-106 12479.5,-106 12479.5,-100 12485.5,-94 12491.5,-94 12491.5,-94 12615.5,-94 12615.5,-94 12621.5,-94 12627.5,-100 12627.5,-106 12627.5,-106 12627.5,-122 12627.5,-122 12627.5,-128 12621.5,-134 12615.5,-134"/>
<text text-anchor="middle" x="12553.5" y="-117" font-family="Helvetica,sans-Serif" font-size="10.00">N049_VALIDATE_EPIC_09</text>
<text text-anchor="middle" x="12553.5" y="-106" font-family="Helvetica,sans-Serif" font-size="10.00">N049_VALIDATE_EPIC_09</text>
</g>
<!-- N050_ACTIVATE_EPIC_10 -->
<g id="node51" class="node">
<title>N050_ACTIVATE_EPIC_10</title>
<path fill="#f8fafc" stroke="#475569" stroke-width="1.2" d="M12803.5,-134C12803.5,-134 12679.5,-134 12679.5,-134 12673.5,-134 12667.5,-128 12667.5,-122 12667.5,-122 12667.5,-106 12667.5,-106 12667.5,-100 12673.5,-94 12679.5,-94 12679.5,-94 12803.5,-94 12803.5,-94 12809.5,-94 12815.5,-100 12815.5,-106 12815.5,-106 12815.5,-122 12815.5,-122 12815.5,-128 12809.5,-134 12803.5,-134"/>
<text text-anchor="middle" x="12741.5" y="-117" font-family="Helvetica,sans-Serif" font-size="10.00">N050_ACTIVATE_EPIC_10</text>
<text text-anchor="middle" x="12741.5" y="-106" font-family="Helvetica,sans-Serif" font-size="10.00">N050_ACTIVATE_EPIC_10</text>
</g>
<!-- N051_DEFINE_CAUSAL_DIAGNOSTIC_PROMPT -->
<g id="node52" class="node">
<title>N051_DEFINE_CAUSAL_DIAGNOSTIC_PROMPT</title>
<path fill="#f8fafc" stroke="#475569" stroke-width="1.2" d="M13095.5,-134C13095.5,-134 12867.5,-134 12867.5,-134 12861.5,-134 12855.5,-128 12855.5,-122 12855.5,-122 12855.5,-106 12855.5,-106 12855.5,-100 12861.5,-94 12867.5,-94 12867.5,-94 13095.5,-94 13095.5,-94 13101.5,-94 13107.5,-100 13107.5,-106 13107.5,-106 13107.5,-122 13107.5,-122 13107.5,-128 13101.5,-134 13095.5,-134"/>
<text text-anchor="middle" x="12981.5" y="-117" font-family="Helvetica,sans-Serif" font-size="10.00">N051_DEFINE_CAUSAL_DIAGNOSTIC_PROMPT</text>
<text text-anchor="middle" x="12981.5" y="-106" font-family="Helvetica,sans-Serif" font-size="10.00">N051_DEFINE_CAUSAL_DIAGNOSTIC_PROMPT</text>
</g>
<!-- N052_DEFINE_DIAGNOSTIC_EVIDENCE_CONTRACT -->
<g id="node53" class="node">
<title>N052_DEFINE_DIAGNOSTIC_EVIDENCE_CONTRACT</title>
<path fill="#f8fafc" stroke="#475569" stroke-width="1.2" d="M13409.5,-134C13409.5,-134 13159.5,-134 13159.5,-134 13153.5,-134 13147.5,-128 13147.5,-122 13147.5,-122 13147.5,-106 13147.5,-106 13147.5,-100 13153.5,-94 13159.5,-94 13159.5,-94 13409.5,-94 13409.5,-94 13415.5,-94 13421.5,-100 13421.5,-106 13421.5,-106 13421.5,-122 13421.5,-122 13421.5,-128 13415.5,-134 13409.5,-134"/>
<text text-anchor="middle" x="13284.5" y="-117" font-family="Helvetica,sans-Serif" font-size="10.00">N052_DEFINE_DIAGNOSTIC_EVIDENCE_CONTRACT</text>
<text text-anchor="middle" x="13284.5" y="-106" font-family="Helvetica,sans-Serif" font-size="10.00">N052_DEFINE_DIAGNOSTIC_EVIDENCE_CONTRACT</text>
</g>
<!-- N053_DEFINE_ROOT_CAUSE_CLASSIFICATION -->
<g id="node54" class="node">
<title>N053_DEFINE_ROOT_CAUSE_CLASSIFICATION</title>
<path fill="#f8fafc" stroke="#475569" stroke-width="1.2" d="M13699.5,-134C13699.5,-134 13473.5,-134 13473.5,-134 13467.5,-134 13461.5,-128 13461.5,-122 13461.5,-122 13461.5,-106 13461.5,-106 13461.5,-100 13467.5,-94 13473.5,-94 13473.5,-94 13699.5,-94 13699.5,-94 13705.5,-94 13711.5,-100 13711.5,-106 13711.5,-106 13711.5,-122 13711.5,-122 13711.5,-128 13705.5,-134 13699.5,-134"/>
<text text-anchor="middle" x="13586.5" y="-117" font-family="Helvetica,sans-Serif" font-size="10.00">N053_DEFINE_ROOT_CAUSE_CLASSIFICATION</text>
<text text-anchor="middle" x="13586.5" y="-106" font-family="Helvetica,sans-Serif" font-size="10.00">N053_DEFINE_ROOT_CAUSE_CLASSIFICATION</text>
</g>
<!-- N054_VALIDATE_EPIC_10 -->
<g id="node55" class="node">
<title>N054_VALIDATE_EPIC_10</title>
<path fill="#f8fafc" stroke="#475569" stroke-width="1.2" d="M13887.5,-134C13887.5,-134 13763.5,-134 13763.5,-134 13757.5,-134 13751.5,-128 13751.5,-122 13751.5,-122 13751.5,-106 13751.5,-106 13751.5,-100 13757.5,-94 13763.5,-94 13763.5,-94 13887.5,-94 13887.5,-94 13893.5,-94 13899.5,-100 13899.5,-106 13899.5,-106 13899.5,-122 13899.5,-122 13899.5,-128 13893.5,-134 13887.5,-134"/>
<text text-anchor="middle" x="13825.5" y="-117" font-family="Helvetica,sans-Serif" font-size="10.00">N054_VALIDATE_EPIC_10</text>
<text text-anchor="middle" x="13825.5" y="-106" font-family="Helvetica,sans-Serif" font-size="10.00">N054_VALIDATE_EPIC_10</text>
</g>
<!-- N055_DEFINE_IMPROVEMENT_PATCH_WORKFLOW -->
<g id="node56" class="node">
<title>N055_DEFINE_IMPROVEMENT_PATCH_WORKFLOW</title>
<path fill="#f8fafc" stroke="#475569" stroke-width="1.2" d="M14201,-134C14201,-134 13952,-134 13952,-134 13946,-134 13940,-128 13940,-122 13940,-122 13940,-106 13940,-106 13940,-100 13946,-94 13952,-94 13952,-94 14201,-94 14201,-94 14207,-94 14213,-100 14213,-106 14213,-106 14213,-122 14213,-122 14213,-128 14207,-134 14201,-134"/>
<text text-anchor="middle" x="14076.5" y="-117" font-family="Helvetica,sans-Serif" font-size="10.00">N055_DEFINE_IMPROVEMENT_PATCH_WORKFLOW</text>
<text text-anchor="middle" x="14076.5" y="-106" font-family="Helvetica,sans-Serif" font-size="10.00">N055_DEFINE_IMPROVEMENT_PATCH_WORKFLOW</text>
</g>
<!-- N056_SELECT_REGRESSION_SCENARIOS -->
<g id="node57" class="node">
<title>N056_SELECT_REGRESSION_SCENARIOS</title>
<path fill="#f8fafc" stroke="#475569" stroke-width="1.2" d="M14464,-134C14464,-134 14265,-134 14265,-134 14259,-134 14253,-128 14253,-122 14253,-122 14253,-106 14253,-106 14253,-100 14259,-94 14265,-94 14265,-94 14464,-94 14464,-94 14470,-94 14476,-100 14476,-106 14476,-106 14476,-122 14476,-122 14476,-128 14470,-134 14464,-134"/>
<text text-anchor="middle" x="14364.5" y="-117" font-family="Helvetica,sans-Serif" font-size="10.00">N056_SELECT_REGRESSION_SCENARIOS</text>
<text text-anchor="middle" x="14364.5" y="-106" font-family="Helvetica,sans-Serif" font-size="10.00">N056_SELECT_REGRESSION_SCENARIOS</text>
</g>
<!-- N057_DEFINE_FIVE_CYCLE_MODE -->
<g id="node58" class="node">
<title>N057_DEFINE_FIVE_CYCLE_MODE</title>
<path fill="#f8fafc" stroke="#475569" stroke-width="1.2" d="M14695,-134C14695,-134 14528,-134 14528,-134 14522,-134 14516,-128 14516,-122 14516,-122 14516,-106 14516,-106 14516,-100 14522,-94 14528,-94 14528,-94 14695,-94 14695,-94 14701,-94 14707,-100 14707,-106 14707,-106 14707,-122 14707,-122 14707,-128 14701,-134 14695,-134"/>
<text text-anchor="middle" x="14611.5" y="-117" font-family="Helvetica,sans-Serif" font-size="10.00">N057_DEFINE_FIVE_CYCLE_MODE</text>
<text text-anchor="middle" x="14611.5" y="-106" font-family="Helvetica,sans-Serif" font-size="10.00">N057_DEFINE_FIVE_CYCLE_MODE</text>
</g>
<!-- N058_DEFINE_STABLE_EVOLUTION -->
<g id="node59" class="node">
<title>N058_DEFINE_STABLE_EVOLUTION</title>
<path fill="#f8fafc" stroke="#475569" stroke-width="1.2" d="M14932,-134C14932,-134 14759,-134 14759,-134 14753,-134 14747,-128 14747,-122 14747,-122 14747,-106 14747,-106 14747,-100 14753,-94 14759,-94 14759,-94 14932,-94 14932,-94 14938,-94 14944,-100 14944,-106 14944,-106 14944,-122 14944,-122 14944,-128 14938,-134 14932,-134"/>
<text text-anchor="middle" x="14845.5" y="-117" font-family="Helvetica,sans-Serif" font-size="10.00">N058_DEFINE_STABLE_EVOLUTION</text>
<text text-anchor="middle" x="14845.5" y="-106" font-family="Helvetica,sans-Serif" font-size="10.00">N058_DEFINE_STABLE_EVOLUTION</text>
</g>
<!-- N059_VALIDATE_EPIC_11 -->
<g id="node60" class="node">
<title>N059_VALIDATE_EPIC_11</title>
<path fill="#f8fafc" stroke="#475569" stroke-width="1.2" d="M15120.5,-134C15120.5,-134 14996.5,-134 14996.5,-134 14990.5,-134 14984.5,-128 14984.5,-122 14984.5,-122 14984.5,-106 14984.5,-106 14984.5,-100 14990.5,-94 14996.5,-94 14996.5,-94 15120.5,-94 15120.5,-94 15126.5,-94 15132.5,-100 15132.5,-106 15132.5,-106 15132.5,-122 15132.5,-122 15132.5,-128 15126.5,-134 15120.5,-134"/>
<text text-anchor="middle" x="15058.5" y="-117" font-family="Helvetica,sans-Serif" font-size="10.00">N059_VALIDATE_EPIC_11</text>
<text text-anchor="middle" x="15058.5" y="-106" font-family="Helvetica,sans-Serif" font-size="10.00">N059_VALIDATE_EPIC_11</text>
</g>
<!-- N060_DEFINE_EVIDENCE_PACKAGE -->
<g id="node61" class="node">
<title>N060_DEFINE_EVIDENCE_PACKAGE</title>
<path fill="#f8fafc" stroke="#475569" stroke-width="1.2" d="M15360,-134C15360,-134 15185,-134 15185,-134 15179,-134 15173,-128 15173,-122 15173,-122 15173,-106 15173,-106 15173,-100 15179,-94 15185,-94 15185,-94 15360,-94 15360,-94 15366,-94 15372,-100 15372,-106 15372,-106 15372,-122 15372,-122 15372,-128 15366,-134 15360,-134"/>
<text text-anchor="middle" x="15272.5" y="-117" font-family="Helvetica,sans-Serif" font-size="10.00">N060_DEFINE_EVIDENCE_PACKAGE</text>
<text text-anchor="middle" x="15272.5" y="-106" font-family="Helvetica,sans-Serif" font-size="10.00">N060_DEFINE_EVIDENCE_PACKAGE</text>
</g>
<!-- N061_DEFINE_HANDOFF_PACKAGE -->
<g id="node62" class="node">
<title>N061_DEFINE_HANDOFF_PACKAGE</title>
<path fill="#f8fafc" stroke="#475569" stroke-width="1.2" d="M15598.5,-134C15598.5,-134 15424.5,-134 15424.5,-134 15418.5,-134 15412.5,-128 15412.5,-122 15412.5,-122 15412.5,-106 15412.5,-106 15412.5,-100 15418.5,-94 15424.5,-94 15424.5,-94 15598.5,-94 15598.5,-94 15604.5,-94 15610.5,-100 15610.5,-106 15610.5,-106 15610.5,-122 15610.5,-122 15610.5,-128 15604.5,-134 15598.5,-134"/>
<text text-anchor="middle" x="15511.5" y="-117" font-family="Helvetica,sans-Serif" font-size="10.00">N061_DEFINE_HANDOFF_PACKAGE</text>
<text text-anchor="middle" x="15511.5" y="-106" font-family="Helvetica,sans-Serif" font-size="10.00">N061_DEFINE_HANDOFF_PACKAGE</text>
</g>
<!-- N062_VALIDATE_EPIC_12 -->
<g id="node63" class="node">
<title>N062_VALIDATE_EPIC_12</title>
<path fill="#f8fafc" stroke="#475569" stroke-width="1.2" d="M15786.5,-134C15786.5,-134 15662.5,-134 15662.5,-134 15656.5,-134 15650.5,-128 15650.5,-122 15650.5,-122 15650.5,-106 15650.5,-106 15650.5,-100 15656.5,-94 15662.5,-94 15662.5,-94 15786.5,-94 15786.5,-94 15792.5,-94 15798.5,-100 15798.5,-106 15798.5,-106 15798.5,-122 15798.5,-122 15798.5,-128 15792.5,-134 15786.5,-134"/>
<text text-anchor="middle" x="15724.5" y="-117" font-family="Helvetica,sans-Serif" font-size="10.00">N062_VALIDATE_EPIC_12</text>
<text text-anchor="middle" x="15724.5" y="-106" font-family="Helvetica,sans-Serif" font-size="10.00">N062_VALIDATE_EPIC_12</text>
</g>
<!-- N041_VERIFY_SCOPED_YAML_PATCH -->
<g id="node64" class="node">
<title>N041_VERIFY_SCOPED_YAML_PATCH</title>
<path fill="#f8fafc" stroke="#475569" stroke-width="1.2" d="M16030.5,-134C16030.5,-134 15850.5,-134 15850.5,-134 15844.5,-134 15838.5,-128 15838.5,-122 15838.5,-122 15838.5,-106 15838.5,-106 15838.5,-100 15844.5,-94 15850.5,-94 15850.5,-94 16030.5,-94 16030.5,-94 16036.5,-94 16042.5,-100 16042.5,-106 16042.5,-106 16042.5,-122 16042.5,-122 16042.5,-128 16036.5,-134 16030.5,-134"/>
<text text-anchor="middle" x="15940.5" y="-117" font-family="Helvetica,sans-Serif" font-size="10.00">N041_VERIFY_SCOPED_YAML_PATCH</text>
<text text-anchor="middle" x="15940.5" y="-106" font-family="Helvetica,sans-Serif" font-size="10.00">N041_VERIFY_SCOPED_YAML_PATCH</text>
</g>
<!-- N042_ARF_META_RUNTIME -->
<g id="node65" class="node">
<title>N042_ARF_META_RUNTIME</title>
<path fill="#f8fafc" stroke="#475569" stroke-width="1.2" d="M16230.5,-134C16230.5,-134 16094.5,-134 16094.5,-134 16088.5,-134 16082.5,-128 16082.5,-122 16082.5,-122 16082.5,-106 16082.5,-106 16082.5,-100 16088.5,-94 16094.5,-94 16094.5,-94 16230.5,-94 16230.5,-94 16236.5,-94 16242.5,-100 16242.5,-106 16242.5,-106 16242.5,-122 16242.5,-122 16242.5,-128 16236.5,-134 16230.5,-134"/>
<text text-anchor="middle" x="16162.5" y="-117" font-family="Helvetica,sans-Serif" font-size="10.00">N042_ARF_META_RUNTIME</text>
<text text-anchor="middle" x="16162.5" y="-106" font-family="Helvetica,sans-Serif" font-size="10.00">N042_ARF_META_RUNTIME</text>
</g>
<!-- N063 -->
<g id="node66" class="node">
<title>N063</title>
<path fill="#f8fafc" stroke="#475569" stroke-width="1.2" d="M16324.5,-134C16324.5,-134 16294.5,-134 16294.5,-134 16288.5,-134 16282.5,-128 16282.5,-122 16282.5,-122 16282.5,-106 16282.5,-106 16282.5,-100 16288.5,-94 16294.5,-94 16294.5,-94 16324.5,-94 16324.5,-94 16330.5,-94 16336.5,-100 16336.5,-106 16336.5,-106 16336.5,-122 16336.5,-122 16336.5,-128 16330.5,-134 16324.5,-134"/>
<text text-anchor="middle" x="16309.5" y="-117" font-family="Helvetica,sans-Serif" font-size="10.00">N063</text>
<text text-anchor="middle" x="16309.5" y="-106" font-family="Helvetica,sans-Serif" font-size="10.00">N063</text>
</g>
<!-- N064 -->
<g id="node67" class="node">
<title>N064</title>
<path fill="#f8fafc" stroke="#475569" stroke-width="1.2" d="M16418.5,-134C16418.5,-134 16388.5,-134 16388.5,-134 16382.5,-134 16376.5,-128 16376.5,-122 16376.5,-122 16376.5,-106 16376.5,-106 16376.5,-100 16382.5,-94 16388.5,-94 16388.5,-94 16418.5,-94 16418.5,-94 16424.5,-94 16430.5,-100 16430.5,-106 16430.5,-106 16430.5,-122 16430.5,-122 16430.5,-128 16424.5,-134 16418.5,-134"/>
<text text-anchor="middle" x="16403.5" y="-117" font-family="Helvetica,sans-Serif" font-size="10.00">N064</text>
<text text-anchor="middle" x="16403.5" y="-106" font-family="Helvetica,sans-Serif" font-size="10.00">N064</text>
</g>
<!-- N065 -->
<g id="node68" class="node">
<title>N065</title>
<path fill="#f8fafc" stroke="#475569" stroke-width="1.2" d="M16512.5,-134C16512.5,-134 16482.5,-134 16482.5,-134 16476.5,-134 16470.5,-128 16470.5,-122 16470.5,-122 16470.5,-106 16470.5,-106 16470.5,-100 16476.5,-94 16482.5,-94 16482.5,-94 16512.5,-94 16512.5,-94 16518.5,-94 16524.5,-100 16524.5,-106 16524.5,-106 16524.5,-122 16524.5,-122 16524.5,-128 16518.5,-134 16512.5,-134"/>
<text text-anchor="middle" x="16497.5" y="-117" font-family="Helvetica,sans-Serif" font-size="10.00">N065</text>
<text text-anchor="middle" x="16497.5" y="-106" font-family="Helvetica,sans-Serif" font-size="10.00">N065</text>
</g>
<!-- N066 -->
<g id="node69" class="node">
<title>N066</title>
<path fill="#f8fafc" stroke="#475569" stroke-width="1.2" d="M16606.5,-134C16606.5,-134 16576.5,-134 16576.5,-134 16570.5,-134 16564.5,-128 16564.5,-122 16564.5,-122 16564.5,-106 16564.5,-106 16564.5,-100 16570.5,-94 16576.5,-94 16576.5,-94 16606.5,-94 16606.5,-94 16612.5,-94 16618.5,-100 16618.5,-106 16618.5,-106 16618.5,-122 16618.5,-122 16618.5,-128 16612.5,-134 16606.5,-134"/>
<text text-anchor="middle" x="16591.5" y="-117" font-family="Helvetica,sans-Serif" font-size="10.00">N066</text>
<text text-anchor="middle" x="16591.5" y="-106" font-family="Helvetica,sans-Serif" font-size="10.00">N066</text>
</g>
<!-- N067_FREEZE_RESULT_PACKAGE_RELEASE_INPUTS -->
<g id="node70" class="node">
<title>N067_FREEZE_RESULT_PACKAGE_RELEASE_INPUTS</title>
<path fill="#f8fafc" stroke="#475569" stroke-width="1.2" d="M16924,-134C16924,-134 16671,-134 16671,-134 16665,-134 16659,-128 16659,-122 16659,-122 16659,-106 16659,-106 16659,-100 16665,-94 16671,-94 16671,-94 16924,-94 16924,-94 16930,-94 16936,-100 16936,-106 16936,-106 16936,-122 16936,-122 16936,-128 16930,-134 16924,-134"/>
<text text-anchor="middle" x="16797.5" y="-117" font-family="Helvetica,sans-Serif" font-size="10.00">N067_FREEZE_RESULT_PACKAGE_RELEASE_INPUTS</text>
<text text-anchor="middle" x="16797.5" y="-106" font-family="Helvetica,sans-Serif" font-size="10.00">N067_FREEZE_RESULT_PACKAGE_RELEASE_INPUTS</text>
</g>
<!-- N068_VALIDATE_RESULT_PACKAGE_CROSS_ARTIFACT -->
<g id="node71" class="node">
<title>N068_VALIDATE_RESULT_PACKAGE_CROSS_ARTIFACT</title>
<path fill="#f8fafc" stroke="#475569" stroke-width="1.2" d="M17250.5,-134C17250.5,-134 16988.5,-134 16988.5,-134 16982.5,-134 16976.5,-128 16976.5,-122 16976.5,-122 16976.5,-106 16976.5,-106 16976.5,-100 16982.5,-94 16988.5,-94 16988.5,-94 17250.5,-94 17250.5,-94 17256.5,-94 17262.5,-100 17262.5,-106 17262.5,-106 17262.5,-122 17262.5,-122 17262.5,-128 17256.5,-134 17250.5,-134"/>
<text text-anchor="middle" x="17119.5" y="-117" font-family="Helvetica,sans-Serif" font-size="10.00">N068_VALIDATE_RESULT_PACKAGE_CROSS_ARTIFACT</text>
<text text-anchor="middle" x="17119.5" y="-106" font-family="Helvetica,sans-Serif" font-size="10.00">N068_VALIDATE_RESULT_PACKAGE_CROSS_ARTIFACT</text>
</g>
<!-- N069_REGENERATE_BLOCKED_ARTIFACTS -->
<g id="node72" class="node">
<title>N069_REGENERATE_BLOCKED_ARTIFACTS</title>
<path fill="#f8fafc" stroke="#475569" stroke-width="1.2" d="M17522,-134C17522,-134 17315,-134 17315,-134 17309,-134 17303,-128 17303,-122 17303,-122 17303,-106 17303,-106 17303,-100 17309,-94 17315,-94 17315,-94 17522,-94 17522,-94 17528,-94 17534,-100 17534,-106 17534,-106 17534,-122 17534,-122 17534,-128 17528,-134 17522,-134"/>
<text text-anchor="middle" x="17418.5" y="-117" font-family="Helvetica,sans-Serif" font-size="10.00">N069_REGENERATE_BLOCKED_ARTIFACTS</text>
<text text-anchor="middle" x="17418.5" y="-106" font-family="Helvetica,sans-Serif" font-size="10.00">N069_REGENERATE_BLOCKED_ARTIFACTS</text>
</g>
<!-- N070_SEAL_RESULT_PACKAGE_RELEASE -->
<g id="node73" class="node">
<title>N070_SEAL_RESULT_PACKAGE_RELEASE</title>
<path fill="#f8fafc" stroke="#475569" stroke-width="1.2" d="M17784.5,-134C17784.5,-134 17586.5,-134 17586.5,-134 17580.5,-134 17574.5,-128 17574.5,-122 17574.5,-122 17574.5,-106 17574.5,-106 17574.5,-100 17580.5,-94 17586.5,-94 17586.5,-94 17784.5,-94 17784.5,-94 17790.5,-94 17796.5,-100 17796.5,-106 17796.5,-106 17796.5,-122 17796.5,-122 17796.5,-128 17790.5,-134 17784.5,-134"/>
<text text-anchor="middle" x="17685.5" y="-117" font-family="Helvetica,sans-Serif" font-size="10.00">N070_SEAL_RESULT_PACKAGE_RELEASE</text>
<text text-anchor="middle" x="17685.5" y="-106" font-family="Helvetica,sans-Serif" font-size="10.00">N070_SEAL_RESULT_PACKAGE_RELEASE</text>
</g>
<!-- G_BL_BENCH_041_COMPLETE -->
<g id="node74" class="node">
<title>G_BL_BENCH_041_COMPLETE</title>
<path fill="#ffe3e3" stroke="#475569" stroke-width="1.2" d="M17996.5,-134C17996.5,-134 17848.5,-134 17848.5,-134 17842.5,-134 17836.5,-128 17836.5,-122 17836.5,-122 17836.5,-106 17836.5,-106 17836.5,-100 17842.5,-94 17848.5,-94 17848.5,-94 17996.5,-94 17996.5,-94 18002.5,-94 18008.5,-100 18008.5,-106 18008.5,-106 18008.5,-122 18008.5,-122 18008.5,-128 18002.5,-134 17996.5,-134"/>
<text text-anchor="middle" x="17922.5" y="-117" font-family="Helvetica,sans-Serif" font-size="10.00">G_BL_BENCH_041_COMPLETE</text>
<text text-anchor="middle" x="17922.5" y="-106" font-family="Helvetica,sans-Serif" font-size="10.00">Gate</text>
</g>
<!-- G_EPIC_01_COMPLETE -->
<g id="node75" class="node">
<title>G_EPIC_01_COMPLETE</title>
<path fill="#ffe3e3" stroke="#475569" stroke-width="1.2" d="M18172.5,-134C18172.5,-134 18060.5,-134 18060.5,-134 18054.5,-134 18048.5,-128 18048.5,-122 18048.5,-122 18048.5,-106 18048.5,-106 18048.5,-100 18054.5,-94 18060.5,-94 18060.5,-94 18172.5,-94 18172.5,-94 18178.5,-94 18184.5,-100 18184.5,-106 18184.5,-106 18184.5,-122 18184.5,-122 18184.5,-128 18178.5,-134 18172.5,-134"/>
<text text-anchor="middle" x="18116.5" y="-117" font-family="Helvetica,sans-Serif" font-size="10.00">G_EPIC_01_COMPLETE</text>
<text text-anchor="middle" x="18116.5" y="-106" font-family="Helvetica,sans-Serif" font-size="10.00">Gate</text>
</g>
<!-- G_EPIC_02_COMPLETE -->
<g id="node76" class="node">
<title>G_EPIC_02_COMPLETE</title>
<path fill="#ffe3e3" stroke="#475569" stroke-width="1.2" d="M18348.5,-134C18348.5,-134 18236.5,-134 18236.5,-134 18230.5,-134 18224.5,-128 18224.5,-122 18224.5,-122 18224.5,-106 18224.5,-106 18224.5,-100 18230.5,-94 18236.5,-94 18236.5,-94 18348.5,-94 18348.5,-94 18354.5,-94 18360.5,-100 18360.5,-106 18360.5,-106 18360.5,-122 18360.5,-122 18360.5,-128 18354.5,-134 18348.5,-134"/>
<text text-anchor="middle" x="18292.5" y="-117" font-family="Helvetica,sans-Serif" font-size="10.00">G_EPIC_02_COMPLETE</text>
<text text-anchor="middle" x="18292.5" y="-106" font-family="Helvetica,sans-Serif" font-size="10.00">Gate</text>
</g>
<!-- G_EPIC_03_COMPLETE -->
<g id="node77" class="node">
<title>G_EPIC_03_COMPLETE</title>
<path fill="#ffe3e3" stroke="#475569" stroke-width="1.2" d="M18524.5,-134C18524.5,-134 18412.5,-134 18412.5,-134 18406.5,-134 18400.5,-128 18400.5,-122 18400.5,-122 18400.5,-106 18400.5,-106 18400.5,-100 18406.5,-94 18412.5,-94 18412.5,-94 18524.5,-94 18524.5,-94 18530.5,-94 18536.5,-100 18536.5,-106 18536.5,-106 18536.5,-122 18536.5,-122 18536.5,-128 18530.5,-134 18524.5,-134"/>
<text text-anchor="middle" x="18468.5" y="-117" font-family="Helvetica,sans-Serif" font-size="10.00">G_EPIC_03_COMPLETE</text>
<text text-anchor="middle" x="18468.5" y="-106" font-family="Helvetica,sans-Serif" font-size="10.00">Gate</text>
</g>
<!-- G_EPIC_04_COMPLETE -->
<g id="node78" class="node">
<title>G_EPIC_04_COMPLETE</title>
<path fill="#ffe3e3" stroke="#475569" stroke-width="1.2" d="M18700.5,-134C18700.5,-134 18588.5,-134 18588.5,-134 18582.5,-134 18576.5,-128 18576.5,-122 18576.5,-122 18576.5,-106 18576.5,-106 18576.5,-100 18582.5,-94 18588.5,-94 18588.5,-94 18700.5,-94 18700.5,-94 18706.5,-94 18712.5,-100 18712.5,-106 18712.5,-106 18712.5,-122 18712.5,-122 18712.5,-128 18706.5,-134 18700.5,-134"/>
<text text-anchor="middle" x="18644.5" y="-117" font-family="Helvetica,sans-Serif" font-size="10.00">G_EPIC_04_COMPLETE</text>
<text text-anchor="middle" x="18644.5" y="-106" font-family="Helvetica,sans-Serif" font-size="10.00">Gate</text>
</g>
<!-- G_EPIC_05_COMPLETE -->
<g id="node79" class="node">
<title>G_EPIC_05_COMPLETE</title>
<path fill="#ffe3e3" stroke="#475569" stroke-width="1.2" d="M18876.5,-134C18876.5,-134 18764.5,-134 18764.5,-134 18758.5,-134 18752.5,-128 18752.5,-122 18752.5,-122 18752.5,-106 18752.5,-106 18752.5,-100 18758.5,-94 18764.5,-94 18764.5,-94 18876.5,-94 18876.5,-94 18882.5,-94 18888.5,-100 18888.5,-106 18888.5,-106 18888.5,-122 18888.5,-122 18888.5,-128 18882.5,-134 18876.5,-134"/>
<text text-anchor="middle" x="18820.5" y="-117" font-family="Helvetica,sans-Serif" font-size="10.00">G_EPIC_05_COMPLETE</text>
<text text-anchor="middle" x="18820.5" y="-106" font-family="Helvetica,sans-Serif" font-size="10.00">Gate</text>
</g>
<!-- G_EPIC_06_COMPLETE -->
<g id="node80" class="node">
<title>G_EPIC_06_COMPLETE</title>
<path fill="#ffe3e3" stroke="#475569" stroke-width="1.2" d="M19052.5,-134C19052.5,-134 18940.5,-134 18940.5,-134 18934.5,-134 18928.5,-128 18928.5,-122 18928.5,-122 18928.5,-106 18928.5,-106 18928.5,-100 18934.5,-94 18940.5,-94 18940.5,-94 19052.5,-94 19052.5,-94 19058.5,-94 19064.5,-100 19064.5,-106 19064.5,-106 19064.5,-122 19064.5,-122 19064.5,-128 19058.5,-134 19052.5,-134"/>
<text text-anchor="middle" x="18996.5" y="-117" font-family="Helvetica,sans-Serif" font-size="10.00">G_EPIC_06_COMPLETE</text>
<text text-anchor="middle" x="18996.5" y="-106" font-family="Helvetica,sans-Serif" font-size="10.00">Gate</text>
</g>
<!-- G_EPIC_07_COMPLETE -->
<g id="node81" class="node">
<title>G_EPIC_07_COMPLETE</title>
<path fill="#ffe3e3" stroke="#475569" stroke-width="1.2" d="M19228.5,-134C19228.5,-134 19116.5,-134 19116.5,-134 19110.5,-134 19104.5,-128 19104.5,-122 19104.5,-122 19104.5,-106 19104.5,-106 19104.5,-100 19110.5,-94 19116.5,-94 19116.5,-94 19228.5,-94 19228.5,-94 19234.5,-94 19240.5,-100 19240.5,-106 19240.5,-106 19240.5,-122 19240.5,-122 19240.5,-128 19234.5,-134 19228.5,-134"/>
<text text-anchor="middle" x="19172.5" y="-117" font-family="Helvetica,sans-Serif" font-size="10.00">G_EPIC_07_COMPLETE</text>
<text text-anchor="middle" x="19172.5" y="-106" font-family="Helvetica,sans-Serif" font-size="10.00">Gate</text>
</g>
<!-- G_EPIC_08_COMPLETE -->
<g id="node82" class="node">
<title>G_EPIC_08_COMPLETE</title>
<path fill="#ffe3e3" stroke="#475569" stroke-width="1.2" d="M19404.5,-134C19404.5,-134 19292.5,-134 19292.5,-134 19286.5,-134 19280.5,-128 19280.5,-122 19280.5,-122 19280.5,-106 19280.5,-106 19280.5,-100 19286.5,-94 19292.5,-94 19292.5,-94 19404.5,-94 19404.5,-94 19410.5,-94 19416.5,-100 19416.5,-106 19416.5,-106 19416.5,-122 19416.5,-122 19416.5,-128 19410.5,-134 19404.5,-134"/>
<text text-anchor="middle" x="19348.5" y="-117" font-family="Helvetica,sans-Serif" font-size="10.00">G_EPIC_08_COMPLETE</text>
<text text-anchor="middle" x="19348.5" y="-106" font-family="Helvetica,sans-Serif" font-size="10.00">Gate</text>
</g>
<!-- G_EPIC_09_COMPLETE -->
<g id="node83" class="node">
<title>G_EPIC_09_COMPLETE</title>
<path fill="#ffe3e3" stroke="#475569" stroke-width="1.2" d="M19580.5,-134C19580.5,-134 19468.5,-134 19468.5,-134 19462.5,-134 19456.5,-128 19456.5,-122 19456.5,-122 19456.5,-106 19456.5,-106 19456.5,-100 19462.5,-94 19468.5,-94 19468.5,-94 19580.5,-94 19580.5,-94 19586.5,-94 19592.5,-100 19592.5,-106 19592.5,-106 19592.5,-122 19592.5,-122 19592.5,-128 19586.5,-134 19580.5,-134"/>
<text text-anchor="middle" x="19524.5" y="-117" font-family="Helvetica,sans-Serif" font-size="10.00">G_EPIC_09_COMPLETE</text>
<text text-anchor="middle" x="19524.5" y="-106" font-family="Helvetica,sans-Serif" font-size="10.00">Gate</text>
</g>
<!-- G_EPIC_10_COMPLETE -->
<g id="node84" class="node">
<title>G_EPIC_10_COMPLETE</title>
<path fill="#ffe3e3" stroke="#475569" stroke-width="1.2" d="M19756.5,-134C19756.5,-134 19644.5,-134 19644.5,-134 19638.5,-134 19632.5,-128 19632.5,-122 19632.5,-122 19632.5,-106 19632.5,-106 19632.5,-100 19638.5,-94 19644.5,-94 19644.5,-94 19756.5,-94 19756.5,-94 19762.5,-94 19768.5,-100 19768.5,-106 19768.5,-106 19768.5,-122 19768.5,-122 19768.5,-128 19762.5,-134 19756.5,-134"/>
<text text-anchor="middle" x="19700.5" y="-117" font-family="Helvetica,sans-Serif" font-size="10.00">G_EPIC_10_COMPLETE</text>
<text text-anchor="middle" x="19700.5" y="-106" font-family="Helvetica,sans-Serif" font-size="10.00">Gate</text>
</g>
<!-- G_EPIC_11_COMPLETE -->
<g id="node85" class="node">
<title>G_EPIC_11_COMPLETE</title>
<path fill="#ffe3e3" stroke="#475569" stroke-width="1.2" d="M19932.5,-134C19932.5,-134 19820.5,-134 19820.5,-134 19814.5,-134 19808.5,-128 19808.5,-122 19808.5,-122 19808.5,-106 19808.5,-106 19808.5,-100 19814.5,-94 19820.5,-94 19820.5,-94 19932.5,-94 19932.5,-94 19938.5,-94 19944.5,-100 19944.5,-106 19944.5,-106 19944.5,-122 19944.5,-122 19944.5,-128 19938.5,-134 19932.5,-134"/>
<text text-anchor="middle" x="19876.5" y="-117" font-family="Helvetica,sans-Serif" font-size="10.00">G_EPIC_11_COMPLETE</text>
<text text-anchor="middle" x="19876.5" y="-106" font-family="Helvetica,sans-Serif" font-size="10.00">Gate</text>
</g>
<!-- G_EPIC_12_COMPLETE -->
<g id="node86" class="node">
<title>G_EPIC_12_COMPLETE</title>
<path fill="#ffe3e3" stroke="#475569" stroke-width="1.2" d="M20108.5,-134C20108.5,-134 19996.5,-134 19996.5,-134 19990.5,-134 19984.5,-128 19984.5,-122 19984.5,-122 19984.5,-106 19984.5,-106 19984.5,-100 19990.5,-94 19996.5,-94 19996.5,-94 20108.5,-94 20108.5,-94 20114.5,-94 20120.5,-100 20120.5,-106 20120.5,-106 20120.5,-122 20120.5,-122 20120.5,-128 20114.5,-134 20108.5,-134"/>
<text text-anchor="middle" x="20052.5" y="-117" font-family="Helvetica,sans-Serif" font-size="10.00">G_EPIC_12_COMPLETE</text>
<text text-anchor="middle" x="20052.5" y="-106" font-family="Helvetica,sans-Serif" font-size="10.00">Gate</text>
</g>
<!-- G_EXECUTION_GRAPH_CONNECTIVITY -->
<g id="node87" class="node">
<title>G_EXECUTION_GRAPH_CONNECTIVITY</title>
<path fill="#ffe3e3" stroke="#475569" stroke-width="1.2" d="M20362.5,-134C20362.5,-134 20172.5,-134 20172.5,-134 20166.5,-134 20160.5,-128 20160.5,-122 20160.5,-122 20160.5,-106 20160.5,-106 20160.5,-100 20166.5,-94 20172.5,-94 20172.5,-94 20362.5,-94 20362.5,-94 20368.5,-94 20374.5,-100 20374.5,-106 20374.5,-106 20374.5,-122 20374.5,-122 20374.5,-128 20368.5,-134 20362.5,-134"/>
<text text-anchor="middle" x="20267.5" y="-117" font-family="Helvetica,sans-Serif" font-size="10.00">G_EXECUTION_GRAPH_CONNECTIVITY</text>
<text text-anchor="middle" x="20267.5" y="-106" font-family="Helvetica,sans-Serif" font-size="10.00">Gate</text>
</g>
<!-- G_RESULT_PACKAGE_RELEASE -->
<g id="node88" class="node">
<title>G_RESULT_PACKAGE_RELEASE</title>
<path fill="#ffe3e3" stroke="#475569" stroke-width="1.2" d="M20578,-134C20578,-134 20427,-134 20427,-134 20421,-134 20415,-128 20415,-122 20415,-122 20415,-106 20415,-106 20415,-100 20421,-94 20427,-94 20427,-94 20578,-94 20578,-94 20584,-94 20590,-100 20590,-106 20590,-106 20590,-122 20590,-122 20590,-128 20584,-134 20578,-134"/>
<text text-anchor="middle" x="20502.5" y="-117" font-family="Helvetica,sans-Serif" font-size="10.00">G_RESULT_PACKAGE_RELEASE</text>
<text text-anchor="middle" x="20502.5" y="-106" font-family="Helvetica,sans-Serif" font-size="10.00">Gate</text>
</g>
<!-- G_VALIDATION_CONTRACT_ALIGNMENT -->
<g id="node89" class="node">
<title>G_VALIDATION_CONTRACT_ALIGNMENT</title>
<path fill="#ffe3e3" stroke="#475569" stroke-width="1.2" d="M20839,-134C20839,-134 20642,-134 20642,-134 20636,-134 20630,-128 20630,-122 20630,-122 20630,-106 20630,-106 20630,-100 20636,-94 20642,-94 20642,-94 20839,-94 20839,-94 20845,-94 20851,-100 20851,-106 20851,-106 20851,-122 20851,-122 20851,-128 20845,-134 20839,-134"/>
<text text-anchor="middle" x="20740.5" y="-117" font-family="Helvetica,sans-Serif" font-size="10.00">G_VALIDATION_CONTRACT_ALIGNMENT</text>
<text text-anchor="middle" x="20740.5" y="-106" font-family="Helvetica,sans-Serif" font-size="10.00">Gate</text>
</g>
</g>
</svg>
