<?xml version="1.0" encoding="UTF-8" standalone="no"?>
<!DOCTYPE svg PUBLIC "-//W3C//DTD SVG 1.1//EN"
 "http://www.w3.org/Graphics/SVG/1.1/DTD/svg11.dtd">
<!-- Generated by graphviz version 2.42.4 (0)
 -->
<!-- Title: OrdoWorkflow Pages: 1 -->
<svg width="894pt" height="2087pt"
 viewBox="0.00 0.00 893.70 2087.20" xmlns="http://www.w3.org/2000/svg" xmlns:xlink="http://www.w3.org/1999/xlink">
<g id="graph0" class="graph" transform="scale(1 1) rotate(0) translate(21.6 2065.6)">
<title>OrdoWorkflow</title>
<polygon fill="white" stroke="transparent" points="-21.6,21.6 -21.6,-2065.6 872.1,-2065.6 872.1,21.6 -21.6,21.6"/>
<text text-anchor="middle" x="425.25" y="-2022.4" font-family="Helvetica,sans-Serif" font-size="22.00">INTENT_APPLIED_PROJECT_FACTORY — context view</text>
<!-- ENTRY -->
<g id="node1" class="node">
<title>ENTRY</title>
<path fill="#dcebff" stroke="#475569" stroke-width="1.2" d="M534,-2012C534,-2012 275,-2012 275,-2012 269,-2012 263,-2006 263,-2000 263,-2000 263,-1984 263,-1984 263,-1978 269,-1972 275,-1972 275,-1972 534,-1972 534,-1972 540,-1972 546,-1978 546,-1984 546,-1984 546,-2000 546,-2000 546,-2006 540,-2012 534,-2012"/>
<text text-anchor="middle" x="404.5" y="-1995" font-family="Helvetica,sans-Serif" font-size="10.00">ENTRY</text>
<text text-anchor="middle" x="404.5" y="-1984" font-family="Helvetica,sans-Serif" font-size="10.00">INTENT_APPLIED_PROJECT_FACTORY — context view</text>
</g>
<!-- N_FACTORY_MODE_SELECTION -->
<g id="node2" class="node">
<title>N_FACTORY_MODE_SELECTION</title>
<path fill="#f8fafc" stroke="#475569" stroke-width="1.2" d="M628.5,-1917C628.5,-1917 180.5,-1917 180.5,-1917 174.5,-1917 168.5,-1911 168.5,-1905 168.5,-1905 168.5,-1889 168.5,-1889 168.5,-1883 174.5,-1877 180.5,-1877 180.5,-1877 628.5,-1877 628.5,-1877 634.5,-1877 640.5,-1883 640.5,-1889 640.5,-1889 640.5,-1905 640.5,-1905 640.5,-1911 634.5,-1917 628.5,-1917"/>
<text text-anchor="middle" x="404.5" y="-1900" font-family="Helvetica,sans-Serif" font-size="10.00">N_FACTORY_MODE_SELECTION</text>
<text text-anchor="middle" x="404.5" y="-1889" font-family="Helvetica,sans-Serif" font-size="10.00">Оберіть режим створення нового Ordo&#45;проєкту: 1 — Доменна модель + дерево ріш…</text>
</g>
<!-- ENTRY&#45;&gt;N_FACTORY_MODE_SELECTION -->
<g id="edge1" class="edge">
<title>ENTRY&#45;&gt;N_FACTORY_MODE_SELECTION</title>
<path fill="none" stroke="#475569" d="M404.5,-1971.73C404.5,-1958.01 404.5,-1939.42 404.5,-1924.33"/>
<polygon fill="#475569" stroke="#475569" points="406.95,-1924.24 404.5,-1917.24 402.05,-1924.25 406.95,-1924.24"/>
</g>
<!-- N_MANUAL_TREE_PROJECT_GOAL -->
<g id="node13" class="node">
<title>N_MANUAL_TREE_PROJECT_GOAL</title>
<path fill="#f8fafc" stroke="#475569" stroke-width="1.2" d="M625,-1813C625,-1813 184,-1813 184,-1813 178,-1813 172,-1807 172,-1801 172,-1801 172,-1785 172,-1785 172,-1779 178,-1773 184,-1773 184,-1773 625,-1773 625,-1773 631,-1773 637,-1779 637,-1785 637,-1785 637,-1801 637,-1801 637,-1807 631,-1813 625,-1813"/>
<text text-anchor="middle" x="404.5" y="-1796" font-family="Helvetica,sans-Serif" font-size="10.00">N_MANUAL_TREE_PROJECT_GOAL</text>
<text text-anchor="middle" x="404.5" y="-1785" font-family="Helvetica,sans-Serif" font-size="10.00">Ручний режим: коротко назвіть мету проєкту й тип процесу, без доменного пояс…</text>
</g>
<!-- N_FACTORY_MODE_SELECTION&#45;&gt;N_MANUAL_TREE_PROJECT_GOAL -->
<g id="edge2" class="edge">
<title>N_FACTORY_MODE_SELECTION&#45;&gt;N_MANUAL_TREE_PROJECT_GOAL</title>
<path fill="none" stroke="#475569" d="M404.5,-1876.81C404.5,-1860.86 404.5,-1837.98 404.5,-1820.32"/>
<polygon fill="#475569" stroke="#475569" points="406.95,-1820.1 404.5,-1813.1 402.05,-1820.1 406.95,-1820.1"/>
<text text-anchor="middle" x="520.5" y="-1842.8" font-family="Helvetica,sans-Serif" font-size="9.00">manual_tree_authoring — 2. Ручне дерево рішень</text>
</g>
<!-- N_MODULE_VERSIONING_POLICY -->
<g id="node3" class="node">
<title>N_MODULE_VERSIONING_POLICY</title>
<path fill="#f8fafc" stroke="#475569" stroke-width="1.2" d="M608.5,-1026C608.5,-1026 200.5,-1026 200.5,-1026 194.5,-1026 188.5,-1020 188.5,-1014 188.5,-1014 188.5,-998 188.5,-998 188.5,-992 194.5,-986 200.5,-986 200.5,-986 608.5,-986 608.5,-986 614.5,-986 620.5,-992 620.5,-998 620.5,-998 620.5,-1014 620.5,-1014 620.5,-1020 614.5,-1026 608.5,-1026"/>
<text text-anchor="middle" x="404.5" y="-1009" font-family="Helvetica,sans-Serif" font-size="10.00">N_MODULE_VERSIONING_POLICY</text>
<text text-anchor="middle" x="404.5" y="-998" font-family="Helvetica,sans-Serif" font-size="10.00">Підтвердьте versioning policy: Project Factory має власну версійність модуля…</text>
</g>
<!-- N_GRAPH_ANNOTATION_OVERLAY_POLICY -->
<g id="node4" class="node">
<title>N_GRAPH_ANNOTATION_OVERLAY_POLICY</title>
<path fill="#fff4d6" stroke="#b45309" stroke-width="1.2" d="M612,-922C612,-922 197,-922 197,-922 191,-922 185,-916 185,-910 185,-910 185,-894 185,-894 185,-888 191,-882 197,-882 197,-882 612,-882 612,-882 618,-882 624,-888 624,-894 624,-894 624,-910 624,-910 624,-916 618,-922 612,-922"/>
<text text-anchor="middle" x="404.5" y="-905" font-family="Helvetica,sans-Serif" font-size="10.00">N_GRAPH_ANNOTATION_OVERLAY_POLICY</text>
<text text-anchor="middle" x="404.5" y="-894" font-family="Helvetica,sans-Serif" font-size="10.00">Коли потрібно, використовуємо graph generator v1.1 annotation overlay для пі…</text>
</g>
<!-- N_MODULE_VERSIONING_POLICY&#45;&gt;N_GRAPH_ANNOTATION_OVERLAY_POLICY -->
<g id="edge3" class="edge">
<title>N_MODULE_VERSIONING_POLICY&#45;&gt;N_GRAPH_ANNOTATION_OVERLAY_POLICY</title>
<path fill="none" stroke="#475569" d="M283.12,-985.9C270.45,-979.27 259.08,-970.52 250.5,-959 239.59,-944.36 243.83,-933.54 256.31,-925.55"/>
<polygon fill="#475569" stroke="#475569" points="257.65,-927.6 262.59,-922.07 255.28,-923.31 257.65,-927.6"/>
<text text-anchor="middle" x="377" y="-951.8" font-family="Helvetica,sans-Serif" font-size="9.00">module_local_versioning — власна версійність модуля</text>
</g>
<!-- N_MODULE_VERSIONING_POLICY&#45;&gt;N_GRAPH_ANNOTATION_OVERLAY_POLICY -->
<g id="edge4" class="edge">
<title>N_MODULE_VERSIONING_POLICY&#45;&gt;N_GRAPH_ANNOTATION_OVERLAY_POLICY</title>
<path fill="none" stroke="#475569" d="M478.17,-985.9C490.57,-979.38 501.88,-970.66 509.5,-959 518.98,-944.5 510.98,-933.49 495.93,-925.24"/>
<polygon fill="#475569" stroke="#475569" points="496.95,-923.01 489.59,-922.09 494.78,-927.4 496.95,-923.01"/>
<text text-anchor="middle" x="612" y="-951.8" font-family="Helvetica,sans-Serif" font-size="9.00">adjust_policy — уточнити versioning policy</text>
</g>
<!-- N_DECISION_TREE_BLUEPRINT -->
<g id="node5" class="node">
<title>N_DECISION_TREE_BLUEPRINT</title>
<path fill="#f8fafc" stroke="#475569" stroke-width="1.2" d="M613.5,-818C613.5,-818 195.5,-818 195.5,-818 189.5,-818 183.5,-812 183.5,-806 183.5,-806 183.5,-790 183.5,-790 183.5,-784 189.5,-778 195.5,-778 195.5,-778 613.5,-778 613.5,-778 619.5,-778 625.5,-784 625.5,-790 625.5,-790 625.5,-806 625.5,-806 625.5,-812 619.5,-818 613.5,-818"/>
<text text-anchor="middle" x="404.5" y="-801" font-family="Helvetica,sans-Serif" font-size="10.00">N_DECISION_TREE_BLUEPRINT</text>
<text text-anchor="middle" x="404.5" y="-790" font-family="Helvetica,sans-Serif" font-size="10.00">Які головні питання, варіанти відповідей і terminal paths має мати дерево пр…</text>
</g>
<!-- N_GRAPH_ANNOTATION_OVERLAY_POLICY&#45;&gt;N_DECISION_TREE_BLUEPRINT -->
<g id="edge5" class="edge">
<title>N_GRAPH_ANNOTATION_OVERLAY_POLICY&#45;&gt;N_DECISION_TREE_BLUEPRINT</title>
<path fill="none" stroke="#475569" d="M260.5,-881.94C232.35,-875.26 208.67,-866.46 199.5,-855 187.76,-840.33 217.8,-828.48 258.23,-819.51"/>
<polygon fill="#475569" stroke="#475569" points="258.75,-821.91 265.08,-818.04 257.72,-817.12 258.75,-821.91"/>
<text text-anchor="middle" x="377" y="-847.8" font-family="Helvetica,sans-Serif" font-size="9.00">use_v1_1_preview_when_helpful — використовувати annotations за потреби</text>
</g>
<!-- N_GRAPH_ANNOTATION_OVERLAY_POLICY&#45;&gt;N_DECISION_TREE_BLUEPRINT -->
<g id="edge6" class="edge">
<title>N_GRAPH_ANNOTATION_OVERLAY_POLICY&#45;&gt;N_DECISION_TREE_BLUEPRINT</title>
<path fill="none" stroke="#475569" d="M502.88,-881.93C529.16,-874.75 552.51,-865.69 560.5,-855 571.41,-840.41 567.38,-829.61 555.14,-821.62"/>
<polygon fill="#475569" stroke="#475569" points="556.26,-819.44 548.96,-818.15 553.86,-823.71 556.26,-819.44"/>
<text text-anchor="middle" x="708" y="-847.8" font-family="Helvetica,sans-Serif" font-size="9.00">context_only_without_annotations — поки тільки context SVG</text>
</g>
<!-- N_STATE_SCHEMA_BLUEPRINT -->
<g id="node6" class="node">
<title>N_STATE_SCHEMA_BLUEPRINT</title>
<path fill="#f8fafc" stroke="#475569" stroke-width="1.2" d="M615.5,-723C615.5,-723 193.5,-723 193.5,-723 187.5,-723 181.5,-717 181.5,-711 181.5,-711 181.5,-695 181.5,-695 181.5,-689 187.5,-683 193.5,-683 193.5,-683 615.5,-683 615.5,-683 621.5,-683 627.5,-689 627.5,-695 627.5,-695 627.5,-711 627.5,-711 627.5,-717 621.5,-723 615.5,-723"/>
<text text-anchor="middle" x="404.5" y="-706" font-family="Helvetica,sans-Serif" font-size="10.00">N_STATE_SCHEMA_BLUEPRINT</text>
<text text-anchor="middle" x="404.5" y="-695" font-family="Helvetica,sans-Serif" font-size="10.00">Які дані треба памʼятати в state, щоб процес міг повертатися назад, перевіря…</text>
</g>
<!-- N_DECISION_TREE_BLUEPRINT&#45;&gt;N_STATE_SCHEMA_BLUEPRINT -->
<g id="edge7" class="edge">
<title>N_DECISION_TREE_BLUEPRINT&#45;&gt;N_STATE_SCHEMA_BLUEPRINT</title>
<path fill="none" stroke="#475569" d="M404.5,-777.73C404.5,-764.01 404.5,-745.42 404.5,-730.33"/>
<polygon fill="#475569" stroke="#475569" points="406.95,-730.24 404.5,-723.24 402.05,-730.25 406.95,-730.24"/>
</g>
<!-- N_OUTPUT_ARTIFACT_CATALOG -->
<g id="node7" class="node">
<title>N_OUTPUT_ARTIFACT_CATALOG</title>
<path fill="#f8fafc" stroke="#475569" stroke-width="1.2" d="M615.5,-628C615.5,-628 193.5,-628 193.5,-628 187.5,-628 181.5,-622 181.5,-616 181.5,-616 181.5,-600 181.5,-600 181.5,-594 187.5,-588 193.5,-588 193.5,-588 615.5,-588 615.5,-588 621.5,-588 627.5,-594 627.5,-600 627.5,-600 627.5,-616 627.5,-616 627.5,-622 621.5,-628 615.5,-628"/>
<text text-anchor="middle" x="404.5" y="-611" font-family="Helvetica,sans-Serif" font-size="10.00">N_OUTPUT_ARTIFACT_CATALOG</text>
<text text-anchor="middle" x="404.5" y="-600" font-family="Helvetica,sans-Serif" font-size="10.00">Які output artifacts повинен створювати прикладний проєкт у повній версії? Д…</text>
</g>
<!-- N_STATE_SCHEMA_BLUEPRINT&#45;&gt;N_OUTPUT_ARTIFACT_CATALOG -->
<g id="edge8" class="edge">
<title>N_STATE_SCHEMA_BLUEPRINT&#45;&gt;N_OUTPUT_ARTIFACT_CATALOG</title>
<path fill="none" stroke="#475569" d="M404.5,-682.73C404.5,-669.01 404.5,-650.42 404.5,-635.33"/>
<polygon fill="#475569" stroke="#475569" points="406.95,-635.24 404.5,-628.24 402.05,-635.25 406.95,-635.24"/>
</g>
<!-- N_OUTPUT_TEMPLATE_CATALOG -->
<g id="node8" class="node">
<title>N_OUTPUT_TEMPLATE_CATALOG</title>
<path fill="#f8fafc" stroke="#475569" stroke-width="1.2" d="M605.5,-533C605.5,-533 203.5,-533 203.5,-533 197.5,-533 191.5,-527 191.5,-521 191.5,-521 191.5,-505 191.5,-505 191.5,-499 197.5,-493 203.5,-493 203.5,-493 605.5,-493 605.5,-493 611.5,-493 617.5,-499 617.5,-505 617.5,-505 617.5,-521 617.5,-521 617.5,-527 611.5,-533 605.5,-533"/>
<text text-anchor="middle" x="404.5" y="-516" font-family="Helvetica,sans-Serif" font-size="10.00">N_OUTPUT_TEMPLATE_CATALOG</text>
<text text-anchor="middle" x="404.5" y="-505" font-family="Helvetica,sans-Serif" font-size="10.00">Для кожного output artifact одразу опишіть template contract: required secti…</text>
</g>
<!-- N_OUTPUT_ARTIFACT_CATALOG&#45;&gt;N_OUTPUT_TEMPLATE_CATALOG -->
<g id="edge9" class="edge">
<title>N_OUTPUT_ARTIFACT_CATALOG&#45;&gt;N_OUTPUT_TEMPLATE_CATALOG</title>
<path fill="none" stroke="#475569" d="M404.5,-587.73C404.5,-574.01 404.5,-555.42 404.5,-540.33"/>
<polygon fill="#475569" stroke="#475569" points="406.95,-540.24 404.5,-533.24 402.05,-540.25 406.95,-540.24"/>
</g>
<!-- N_VALIDATION_GATE_CATALOG -->
<g id="node9" class="node">
<title>N_VALIDATION_GATE_CATALOG</title>
<path fill="#f8fafc" stroke="#475569" stroke-width="1.2" d="M619,-438C619,-438 190,-438 190,-438 184,-438 178,-432 178,-426 178,-426 178,-410 178,-410 178,-404 184,-398 190,-398 190,-398 619,-398 619,-398 625,-398 631,-404 631,-410 631,-410 631,-426 631,-426 631,-432 625,-438 619,-438"/>
<text text-anchor="middle" x="404.5" y="-421" font-family="Helvetica,sans-Serif" font-size="10.00">N_VALIDATION_GATE_CATALOG</text>
<text text-anchor="middle" x="404.5" y="-410" font-family="Helvetica,sans-Serif" font-size="10.00">Які gates мають блокувати готовність прикладного проєкту: tree coverage, tem…</text>
</g>
<!-- N_OUTPUT_TEMPLATE_CATALOG&#45;&gt;N_VALIDATION_GATE_CATALOG -->
<g id="edge10" class="edge">
<title>N_OUTPUT_TEMPLATE_CATALOG&#45;&gt;N_VALIDATION_GATE_CATALOG</title>
<path fill="none" stroke="#475569" d="M404.5,-492.73C404.5,-479.01 404.5,-460.42 404.5,-445.33"/>
<polygon fill="#475569" stroke="#475569" points="406.95,-445.24 404.5,-438.24 402.05,-445.25 406.95,-445.24"/>
</g>
<!-- N_BASIC_TEST_CASE_CATALOG -->
<g id="node10" class="node">
<title>N_BASIC_TEST_CASE_CATALOG</title>
<path fill="#f8fafc" stroke="#475569" stroke-width="1.2" d="M625,-343C625,-343 184,-343 184,-343 178,-343 172,-337 172,-331 172,-331 172,-315 172,-315 172,-309 178,-303 184,-303 184,-303 625,-303 625,-303 631,-303 637,-309 637,-315 637,-315 637,-331 637,-331 637,-337 631,-343 625,-343"/>
<text text-anchor="middle" x="404.5" y="-326" font-family="Helvetica,sans-Serif" font-size="10.00">N_BASIC_TEST_CASE_CATALOG</text>
<text text-anchor="middle" x="404.5" y="-315" font-family="Helvetica,sans-Serif" font-size="10.00">Після затвердження дерева рішень сформуйте 2–3 базові тест&#45;кейси для стабіль…</text>
</g>
<!-- N_VALIDATION_GATE_CATALOG&#45;&gt;N_BASIC_TEST_CASE_CATALOG -->
<g id="edge11" class="edge">
<title>N_VALIDATION_GATE_CATALOG&#45;&gt;N_BASIC_TEST_CASE_CATALOG</title>
<path fill="none" stroke="#475569" d="M404.5,-397.73C404.5,-384.01 404.5,-365.42 404.5,-350.33"/>
<polygon fill="#475569" stroke="#475569" points="406.95,-350.24 404.5,-343.24 402.05,-350.25 406.95,-350.24"/>
</g>
<!-- N_FIRST_RELEASE_SCOPE -->
<g id="node11" class="node">
<title>N_FIRST_RELEASE_SCOPE</title>
<path fill="#f8fafc" stroke="#475569" stroke-width="1.2" d="M611,-248C611,-248 198,-248 198,-248 192,-248 186,-242 186,-236 186,-236 186,-220 186,-220 186,-214 192,-208 198,-208 198,-208 611,-208 611,-208 617,-208 623,-214 623,-220 623,-220 623,-236 623,-236 623,-242 617,-248 611,-248"/>
<text text-anchor="middle" x="404.5" y="-231" font-family="Helvetica,sans-Serif" font-size="10.00">N_FIRST_RELEASE_SCOPE</text>
<text text-anchor="middle" x="404.5" y="-220" font-family="Helvetica,sans-Serif" font-size="10.00">Підтвердіть scope першої версії: AI створює тільки source/program.ordo.yaml,…</text>
</g>
<!-- N_BASIC_TEST_CASE_CATALOG&#45;&gt;N_FIRST_RELEASE_SCOPE -->
<g id="edge12" class="edge">
<title>N_BASIC_TEST_CASE_CATALOG&#45;&gt;N_FIRST_RELEASE_SCOPE</title>
<path fill="none" stroke="#475569" d="M404.5,-302.73C404.5,-289.01 404.5,-270.42 404.5,-255.33"/>
<polygon fill="#475569" stroke="#475569" points="406.95,-255.24 404.5,-248.24 402.05,-255.25 406.95,-255.24"/>
</g>
<!-- N_APPROVAL_TO_GENERATE_SOURCE_YAML -->
<g id="node12" class="node">
<title>N_APPROVAL_TO_GENERATE_SOURCE_YAML</title>
<path fill="#f8fafc" stroke="#475569" stroke-width="1.2" d="M441.5,-144C441.5,-144 15.5,-144 15.5,-144 9.5,-144 3.5,-138 3.5,-132 3.5,-132 3.5,-116 3.5,-116 3.5,-110 9.5,-104 15.5,-104 15.5,-104 441.5,-104 441.5,-104 447.5,-104 453.5,-110 453.5,-116 453.5,-116 453.5,-132 453.5,-132 453.5,-138 447.5,-144 441.5,-144"/>
<text text-anchor="middle" x="228.5" y="-127" font-family="Helvetica,sans-Serif" font-size="10.00">N_APPROVAL_TO_GENERATE_SOURCE_YAML</text>
<text text-anchor="middle" x="228.5" y="-116" font-family="Helvetica,sans-Serif" font-size="10.00">Підтверджуєте, що AI може зібрати PM&#45;visible summary і створити `source/prog…</text>
</g>
<!-- N_FIRST_RELEASE_SCOPE&#45;&gt;N_APPROVAL_TO_GENERATE_SOURCE_YAML -->
<g id="edge13" class="edge">
<title>N_FIRST_RELEASE_SCOPE&#45;&gt;N_APPROVAL_TO_GENERATE_SOURCE_YAML</title>
<path fill="none" stroke="#475569" d="M371.4,-207.81C341.9,-190.72 298.69,-165.68 267.52,-147.62"/>
<polygon fill="#475569" stroke="#475569" points="268.74,-145.49 261.46,-144.1 266.28,-149.73 268.74,-145.49"/>
<text text-anchor="middle" x="362.5" y="-173.8" font-family="Helvetica,sans-Serif" font-size="9.00">source_yaml_only</text>
</g>
<!-- terminal_STOP_SCOPE_EXPANSION_NOT_IN_M61_1 -->
<g id="node22" class="node">
<title>terminal_STOP_SCOPE_EXPANSION_NOT_IN_M61_1</title>
<path fill="#ffe2e2" stroke="#475569" stroke-width="1.2" d="M655.5,-144C655.5,-144 505.5,-144 505.5,-144 499.5,-144 493.5,-138 493.5,-132 493.5,-132 493.5,-116 493.5,-116 493.5,-110 499.5,-104 505.5,-104 505.5,-104 655.5,-104 655.5,-104 661.5,-104 667.5,-110 667.5,-116 667.5,-116 667.5,-132 667.5,-132 667.5,-138 661.5,-144 655.5,-144"/>
<text text-anchor="middle" x="580.5" y="-127" font-family="Helvetica,sans-Serif" font-size="10.00">Terminal</text>
<text text-anchor="middle" x="580.5" y="-116" font-family="Helvetica,sans-Serif" font-size="10.00">Scope Expansion Not In M61 1</text>
</g>
<!-- N_FIRST_RELEASE_SCOPE&#45;&gt;terminal_STOP_SCOPE_EXPANSION_NOT_IN_M61_1 -->
<g id="edge14" class="edge">
<title>N_FIRST_RELEASE_SCOPE&#45;&gt;terminal_STOP_SCOPE_EXPANSION_NOT_IN_M61_1</title>
<path fill="none" stroke="#475569" d="M437.6,-207.81C467.1,-190.72 510.31,-165.68 541.48,-147.62"/>
<polygon fill="#475569" stroke="#475569" points="542.72,-149.73 547.54,-144.1 540.26,-145.49 542.72,-149.73"/>
<text text-anchor="middle" x="527.5" y="-173.8" font-family="Helvetica,sans-Serif" font-size="9.00">expand_now</text>
</g>
<!-- G_APPROVAL_TO_GENERATE_SOURCE_YAML -->
<g id="node21" class="node">
<title>G_APPROVAL_TO_GENERATE_SOURCE_YAML</title>
<path fill="#ffe3e3" stroke="#475569" stroke-width="1.2" d="M231,-40C231,-40 12,-40 12,-40 6,-40 0,-34 0,-28 0,-28 0,-12 0,-12 0,-6 6,0 12,0 12,0 231,0 231,0 237,0 243,-6 243,-12 243,-12 243,-28 243,-28 243,-34 237,-40 231,-40"/>
<text text-anchor="middle" x="121.5" y="-23" font-family="Helvetica,sans-Serif" font-size="10.00">G_APPROVAL_TO_GENERATE_SOURCE_YAML</text>
<text text-anchor="middle" x="121.5" y="-12" font-family="Helvetica,sans-Serif" font-size="10.00">Gate</text>
</g>
<!-- N_APPROVAL_TO_GENERATE_SOURCE_YAML&#45;&gt;G_APPROVAL_TO_GENERATE_SOURCE_YAML -->
<g id="edge15" class="edge">
<title>N_APPROVAL_TO_GENERATE_SOURCE_YAML&#45;&gt;G_APPROVAL_TO_GENERATE_SOURCE_YAML</title>
<path fill="none" stroke="#475569" d="M208.37,-103.81C190.89,-87.15 165.48,-62.93 146.66,-44.98"/>
<polygon fill="#475569" stroke="#475569" points="148.29,-43.16 141.54,-40.1 144.91,-46.7 148.29,-43.16"/>
<text text-anchor="middle" x="186.5" y="-69.8" font-family="Helvetica,sans-Serif" font-size="9.00">yes</text>
</g>
<!-- terminal_STOP_NEEDS_APPROVAL -->
<g id="node23" class="node">
<title>terminal_STOP_NEEDS_APPROVAL</title>
<path fill="#ffe2e2" stroke="#475569" stroke-width="1.2" d="M375.5,-40C375.5,-40 295.5,-40 295.5,-40 289.5,-40 283.5,-34 283.5,-28 283.5,-28 283.5,-12 283.5,-12 283.5,-6 289.5,0 295.5,0 295.5,0 375.5,0 375.5,0 381.5,0 387.5,-6 387.5,-12 387.5,-12 387.5,-28 387.5,-28 387.5,-34 381.5,-40 375.5,-40"/>
<text text-anchor="middle" x="335.5" y="-23" font-family="Helvetica,sans-Serif" font-size="10.00">Terminal</text>
<text text-anchor="middle" x="335.5" y="-12" font-family="Helvetica,sans-Serif" font-size="10.00">Needs Approval</text>
</g>
<!-- N_APPROVAL_TO_GENERATE_SOURCE_YAML&#45;&gt;terminal_STOP_NEEDS_APPROVAL -->
<g id="edge16" class="edge">
<title>N_APPROVAL_TO_GENERATE_SOURCE_YAML&#45;&gt;terminal_STOP_NEEDS_APPROVAL</title>
<path fill="none" stroke="#475569" d="M248.63,-103.81C266.11,-87.15 291.52,-62.93 310.34,-44.98"/>
<polygon fill="#475569" stroke="#475569" points="312.09,-46.7 315.46,-40.1 308.71,-43.16 312.09,-46.7"/>
<text text-anchor="middle" x="291.5" y="-69.8" font-family="Helvetica,sans-Serif" font-size="9.00">no</text>
</g>
<!-- N_MANUAL_TREE_RUNTIME_CONTEXT -->
<g id="node14" class="node">
<title>N_MANUAL_TREE_RUNTIME_CONTEXT</title>
<path fill="#f8fafc" stroke="#475569" stroke-width="1.2" d="M613.5,-1718C613.5,-1718 195.5,-1718 195.5,-1718 189.5,-1718 183.5,-1712 183.5,-1706 183.5,-1706 183.5,-1690 183.5,-1690 183.5,-1684 189.5,-1678 195.5,-1678 195.5,-1678 613.5,-1678 613.5,-1678 619.5,-1678 625.5,-1684 625.5,-1690 625.5,-1690 625.5,-1706 625.5,-1706 625.5,-1712 619.5,-1718 613.5,-1718"/>
<text text-anchor="middle" x="404.5" y="-1701" font-family="Helvetica,sans-Serif" font-size="10.00">N_MANUAL_TREE_RUNTIME_CONTEXT</text>
<text text-anchor="middle" x="404.5" y="-1690" font-family="Helvetica,sans-Serif" font-size="10.00">Ручний режим: хто runtime&#45;користувач, яка роль AI, і з якого input починаєть…</text>
</g>
<!-- N_MANUAL_TREE_PROJECT_GOAL&#45;&gt;N_MANUAL_TREE_RUNTIME_CONTEXT -->
<g id="edge17" class="edge">
<title>N_MANUAL_TREE_PROJECT_GOAL&#45;&gt;N_MANUAL_TREE_RUNTIME_CONTEXT</title>
<path fill="none" stroke="#475569" d="M404.5,-1772.73C404.5,-1759.01 404.5,-1740.42 404.5,-1725.33"/>
<polygon fill="#475569" stroke="#475569" points="406.95,-1725.24 404.5,-1718.24 402.05,-1725.25 406.95,-1725.24"/>
</g>
<!-- N_MANUAL_TREE_ROOT_NODE -->
<g id="node15" class="node">
<title>N_MANUAL_TREE_ROOT_NODE</title>
<path fill="#f8fafc" stroke="#475569" stroke-width="1.2" d="M620,-1623C620,-1623 189,-1623 189,-1623 183,-1623 177,-1617 177,-1611 177,-1611 177,-1595 177,-1595 177,-1589 183,-1583 189,-1583 189,-1583 620,-1583 620,-1583 626,-1583 632,-1589 632,-1595 632,-1595 632,-1611 632,-1611 632,-1617 626,-1623 620,-1623"/>
<text text-anchor="middle" x="404.5" y="-1606" font-family="Helvetica,sans-Serif" font-size="10.00">N_MANUAL_TREE_ROOT_NODE</text>
<text text-anchor="middle" x="404.5" y="-1595" font-family="Helvetica,sans-Serif" font-size="10.00">Опишіть root node вручну: питання/опис вузла, варіанти виходу, що писати в s…</text>
</g>
<!-- N_MANUAL_TREE_RUNTIME_CONTEXT&#45;&gt;N_MANUAL_TREE_ROOT_NODE -->
<g id="edge18" class="edge">
<title>N_MANUAL_TREE_RUNTIME_CONTEXT&#45;&gt;N_MANUAL_TREE_ROOT_NODE</title>
<path fill="none" stroke="#475569" d="M404.5,-1677.73C404.5,-1664.01 404.5,-1645.42 404.5,-1630.33"/>
<polygon fill="#475569" stroke="#475569" points="406.95,-1630.24 404.5,-1623.24 402.05,-1630.25 406.95,-1630.24"/>
</g>
<!-- N_TREE_DEPTH_FIRST_REVIEW_LOOP -->
<g id="node16" class="node">
<title>N_TREE_DEPTH_FIRST_REVIEW_LOOP</title>
<path fill="#f8fafc" stroke="#475569" stroke-width="1.2" d="M603,-1528C603,-1528 206,-1528 206,-1528 200,-1528 194,-1522 194,-1516 194,-1516 194,-1500 194,-1500 194,-1494 200,-1488 206,-1488 206,-1488 603,-1488 603,-1488 609,-1488 615,-1494 615,-1500 615,-1500 615,-1516 615,-1516 615,-1522 609,-1528 603,-1528"/>
<text text-anchor="middle" x="404.5" y="-1511" font-family="Helvetica,sans-Serif" font-size="10.00">N_TREE_DEPTH_FIRST_REVIEW_LOOP</text>
<text text-anchor="middle" x="404.5" y="-1500" font-family="Helvetica,sans-Serif" font-size="10.00">Self&#45;hosted depth&#45;first authoring/review loop: показати поточний вузол draft…</text>
</g>
<!-- N_MANUAL_TREE_ROOT_NODE&#45;&gt;N_TREE_DEPTH_FIRST_REVIEW_LOOP -->
<g id="edge19" class="edge">
<title>N_MANUAL_TREE_ROOT_NODE&#45;&gt;N_TREE_DEPTH_FIRST_REVIEW_LOOP</title>
<path fill="none" stroke="#475569" d="M404.5,-1582.73C404.5,-1569.01 404.5,-1550.42 404.5,-1535.33"/>
<polygon fill="#475569" stroke="#475569" points="406.95,-1535.24 404.5,-1528.24 402.05,-1535.25 406.95,-1535.24"/>
</g>
<!-- N_TREE_REVIEW_CONTINUE_OR_APPROVE -->
<g id="node17" class="node">
<title>N_TREE_REVIEW_CONTINUE_OR_APPROVE</title>
<path fill="#f8fafc" stroke="#475569" stroke-width="1.2" d="M599.5,-1424C599.5,-1424 209.5,-1424 209.5,-1424 203.5,-1424 197.5,-1418 197.5,-1412 197.5,-1412 197.5,-1396 197.5,-1396 197.5,-1390 203.5,-1384 209.5,-1384 209.5,-1384 599.5,-1384 599.5,-1384 605.5,-1384 611.5,-1390 611.5,-1396 611.5,-1396 611.5,-1412 611.5,-1412 611.5,-1418 605.5,-1424 599.5,-1424"/>
<text text-anchor="middle" x="404.5" y="-1407" font-family="Helvetica,sans-Serif" font-size="10.00">N_TREE_REVIEW_CONTINUE_OR_APPROVE</text>
<text text-anchor="middle" x="404.5" y="-1396" font-family="Helvetica,sans-Serif" font-size="10.00">Продовжити review наступної гілки/вузла чи затвердити дерево рішень?</text>
</g>
<!-- N_TREE_DEPTH_FIRST_REVIEW_LOOP&#45;&gt;N_TREE_REVIEW_CONTINUE_OR_APPROVE -->
<g id="edge20" class="edge">
<title>N_TREE_DEPTH_FIRST_REVIEW_LOOP&#45;&gt;N_TREE_REVIEW_CONTINUE_OR_APPROVE</title>
<path fill="none" stroke="#475569" d="M400.41,-1487.85C398.85,-1479.63 397.27,-1469.88 396.5,-1461 395.65,-1451.18 396.7,-1440.44 398.29,-1431.03"/>
<polygon fill="#475569" stroke="#475569" points="400.7,-1431.45 399.58,-1424.12 395.88,-1430.55 400.7,-1431.45"/>
</g>
<!-- N_TREE_REVIEW_CONTINUE_OR_APPROVE&#45;&gt;N_TREE_DEPTH_FIRST_REVIEW_LOOP -->
<g id="edge21" class="edge">
<title>N_TREE_REVIEW_CONTINUE_OR_APPROVE&#45;&gt;N_TREE_DEPTH_FIRST_REVIEW_LOOP</title>
<path fill="none" stroke="#475569" d="M404.5,-1424.1C404.5,-1440.03 404.5,-1462.9 404.5,-1480.59"/>
<polygon fill="#475569" stroke="#475569" points="402.05,-1480.81 404.5,-1487.81 406.95,-1480.81 402.05,-1480.81"/>
<text text-anchor="middle" x="499.5" y="-1453.8" font-family="Helvetica,sans-Serif" font-size="9.00">continue_depth_first — наступний вузол</text>
</g>
<!-- N_STABILIZED_TREE_BRANCH_HANDOFF -->
<g id="node18" class="node">
<title>N_STABILIZED_TREE_BRANCH_HANDOFF</title>
<path fill="#f8fafc" stroke="#475569" stroke-width="1.2" d="M617.5,-1320C617.5,-1320 191.5,-1320 191.5,-1320 185.5,-1320 179.5,-1314 179.5,-1308 179.5,-1308 179.5,-1292 179.5,-1292 179.5,-1286 185.5,-1280 191.5,-1280 191.5,-1280 617.5,-1280 617.5,-1280 623.5,-1280 629.5,-1286 629.5,-1292 629.5,-1292 629.5,-1308 629.5,-1308 629.5,-1314 623.5,-1320 617.5,-1320"/>
<text text-anchor="middle" x="404.5" y="-1303" font-family="Helvetica,sans-Serif" font-size="10.00">N_STABILIZED_TREE_BRANCH_HANDOFF</text>
<text text-anchor="middle" x="404.5" y="-1292" font-family="Helvetica,sans-Serif" font-size="10.00">Зафіксуйте стабілізовану гілку authoring: який branch/subflow уже затверджен…</text>
</g>
<!-- N_TREE_REVIEW_CONTINUE_OR_APPROVE&#45;&gt;N_STABILIZED_TREE_BRANCH_HANDOFF -->
<g id="edge22" class="edge">
<title>N_TREE_REVIEW_CONTINUE_OR_APPROVE&#45;&gt;N_STABILIZED_TREE_BRANCH_HANDOFF</title>
<path fill="none" stroke="#475569" d="M404.5,-1383.81C404.5,-1367.86 404.5,-1344.98 404.5,-1327.32"/>
<polygon fill="#475569" stroke="#475569" points="406.95,-1327.1 404.5,-1320.1 402.05,-1327.1 406.95,-1327.1"/>
<text text-anchor="middle" x="491" y="-1349.8" font-family="Helvetica,sans-Serif" font-size="9.00">approve_tree — дерево затверджено</text>
</g>
<!-- N_WORKING_CONTEXT_GRAPH_POLICY -->
<g id="node20" class="node">
<title>N_WORKING_CONTEXT_GRAPH_POLICY</title>
<path fill="#f8fafc" stroke="#475569" stroke-width="1.2" d="M616,-1225C616,-1225 193,-1225 193,-1225 187,-1225 181,-1219 181,-1213 181,-1213 181,-1197 181,-1197 181,-1191 187,-1185 193,-1185 193,-1185 616,-1185 616,-1185 622,-1185 628,-1191 628,-1197 628,-1197 628,-1213 628,-1213 628,-1219 622,-1225 616,-1225"/>
<text text-anchor="middle" x="404.5" y="-1208" font-family="Helvetica,sans-Serif" font-size="10.00">N_WORKING_CONTEXT_GRAPH_POLICY</text>
<text text-anchor="middle" x="404.5" y="-1197" font-family="Helvetica,sans-Serif" font-size="10.00">Підтвердіть стандарт візуалізації під час роботи з частиною дерева: за замов…</text>
</g>
<!-- N_STABILIZED_TREE_BRANCH_HANDOFF&#45;&gt;N_WORKING_CONTEXT_GRAPH_POLICY -->
<g id="edge23" class="edge">
<title>N_STABILIZED_TREE_BRANCH_HANDOFF&#45;&gt;N_WORKING_CONTEXT_GRAPH_POLICY</title>
<path fill="none" stroke="#475569" d="M404.5,-1279.73C404.5,-1266.01 404.5,-1247.42 404.5,-1232.33"/>
<polygon fill="#475569" stroke="#475569" points="406.95,-1232.24 404.5,-1225.24 402.05,-1232.25 406.95,-1232.24"/>
</g>
<!-- N_LANGUAGE_IMPROVEMENT_PROPOSALS_REVIEW -->
<g id="node19" class="node">
<title>N_LANGUAGE_IMPROVEMENT_PROPOSALS_REVIEW</title>
<path fill="#f8fafc" stroke="#475569" stroke-width="1.2" d="M610.5,-1121C610.5,-1121 198.5,-1121 198.5,-1121 192.5,-1121 186.5,-1115 186.5,-1109 186.5,-1109 186.5,-1093 186.5,-1093 186.5,-1087 192.5,-1081 198.5,-1081 198.5,-1081 610.5,-1081 610.5,-1081 616.5,-1081 622.5,-1087 622.5,-1093 622.5,-1093 622.5,-1109 622.5,-1109 622.5,-1115 616.5,-1121 610.5,-1121"/>
<text text-anchor="middle" x="404.5" y="-1104" font-family="Helvetica,sans-Serif" font-size="10.00">N_LANGUAGE_IMPROVEMENT_PROPOSALS_REVIEW</text>
<text text-anchor="middle" x="404.5" y="-1093" font-family="Helvetica,sans-Serif" font-size="10.00">Чи виникли під час authoring речі, яких мові бракує або які поки існують як …</text>
</g>
<!-- N_LANGUAGE_IMPROVEMENT_PROPOSALS_REVIEW&#45;&gt;N_MODULE_VERSIONING_POLICY -->
<g id="edge24" class="edge">
<title>N_LANGUAGE_IMPROVEMENT_PROPOSALS_REVIEW&#45;&gt;N_MODULE_VERSIONING_POLICY</title>
<path fill="none" stroke="#475569" d="M404.5,-1080.73C404.5,-1067.01 404.5,-1048.42 404.5,-1033.33"/>
<polygon fill="#475569" stroke="#475569" points="406.95,-1033.24 404.5,-1026.24 402.05,-1033.25 406.95,-1033.24"/>
</g>
<!-- N_WORKING_CONTEXT_GRAPH_POLICY&#45;&gt;N_LANGUAGE_IMPROVEMENT_PROPOSALS_REVIEW -->
<g id="edge25" class="edge">
<title>N_WORKING_CONTEXT_GRAPH_POLICY&#45;&gt;N_LANGUAGE_IMPROVEMENT_PROPOSALS_REVIEW</title>
<path fill="none" stroke="#475569" d="M287.32,-1185C274.54,-1178.38 263.08,-1169.61 254.5,-1158 243.68,-1143.37 248.21,-1132.55 260.94,-1124.57"/>
<polygon fill="#475569" stroke="#475569" points="262.35,-1126.58 267.34,-1121.09 260.02,-1122.28 262.35,-1126.58"/>
<text text-anchor="middle" x="377.5" y="-1150.8" font-family="Helvetica,sans-Serif" font-size="9.00">confirm_context_svg_policy — context SVG by default</text>
</g>
<!-- N_WORKING_CONTEXT_GRAPH_POLICY&#45;&gt;N_LANGUAGE_IMPROVEMENT_PROPOSALS_REVIEW -->
<g id="edge26" class="edge">
<title>N_WORKING_CONTEXT_GRAPH_POLICY&#45;&gt;N_LANGUAGE_IMPROVEMENT_PROPOSALS_REVIEW</title>
<path fill="none" stroke="#475569" d="M475.33,-1184.94C487.68,-1178.4 498.96,-1169.67 506.5,-1158 515.84,-1143.54 507.67,-1132.51 492.6,-1124.22"/>
<polygon fill="#475569" stroke="#475569" points="493.62,-1121.99 486.27,-1121.06 491.44,-1126.37 493.62,-1121.99"/>
<text text-anchor="middle" x="584.5" y="-1150.8" font-family="Helvetica,sans-Serif" font-size="9.00">adjust_policy — уточнити policy</text>
</g>
</g>
</svg>
